<svg width="35" height="28" viewBox="0 0 35 28" fill="none" xmlns="http://www.w3.org/2000/svg">
<g id="material-symbols:mail-outline" clip-path="url(#clip0_42_2995)">
<path id="Vector" d="M3.5 28C2.5375 28 1.71325 27.657 1.02725 26.971C0.341253 26.285 -0.0011637 25.4613 2.97114e-06 24.5V3.5C2.97114e-06 2.5375 0.343003 1.71325 1.029 1.02725C1.715 0.341253 2.53867 -0.0011637 3.5 2.97114e-06H31.5C32.4625 2.97114e-06 33.2867 0.343003 33.9727 1.029C34.6587 1.715 35.0012 2.53867 35 3.5V24.5C35 25.4625 34.657 26.2867 33.971 26.9727C33.285 27.6587 32.4613 28.0012 31.5 28H3.5ZM17.5 15.75L3.5 7V24.5H31.5V7L17.5 15.75ZM17.5 12.25L31.5 3.5H3.5L17.5 12.25ZM3.5 7V3.5V24.5V7Z" fill="#1F821A"/>
</g>
<defs>
<clipPath id="clip0_42_2995">
<rect width="35" height="28" fill="white"/>
</clipPath>
</defs>
</svg>
