<svg width="57" height="39" viewBox="0 0 57 39" fill="none" xmlns="http://www.w3.org/2000/svg">
<path d="M11.444 38.68C7.604 38.68 4.788 37.8267 2.996 36.12C1.28933 34.328 0.436 32.1093 0.436 29.464V26.776C0.436 24.3013 0.777334 21.8267 1.46 19.352C2.228 16.792 3.20933 14.36 4.404 12.056C5.684 9.752 7.17733 7.61867 8.884 5.656C10.5907 3.60799 12.4253 1.81599 14.388 0.279999H26.292C23.476 2.84 21.044 5.44266 18.996 8.088C17.0333 10.7333 15.54 13.6773 14.516 16.92C17.2467 17.432 19.252 18.584 20.532 20.376C21.812 22.0827 22.452 24.0453 22.452 26.264V29.464C22.452 32.1093 21.556 34.328 19.764 36.12C18.0573 37.8267 15.284 38.68 11.444 38.68ZM41.524 38.68C37.684 38.68 34.868 37.8267 33.076 36.12C31.3693 34.328 30.516 32.1093 30.516 29.464V26.776C30.516 24.3013 30.8573 21.8267 31.54 19.352C32.308 16.792 33.2893 14.36 34.484 12.056C35.764 9.752 37.2573 7.61867 38.964 5.656C40.6707 3.60799 42.5053 1.81599 44.468 0.279999H56.372C53.556 2.84 51.124 5.44266 49.076 8.088C47.1133 10.7333 45.62 13.6773 44.596 16.92C47.3267 17.432 49.332 18.584 50.612 20.376C51.892 22.0827 52.532 24.0453 52.532 26.264V29.464C52.532 32.1093 51.636 34.328 49.844 36.12C48.1373 37.8267 45.364 38.68 41.524 38.68Z" fill="#1F821A"/>
</svg>
