<svg width="543" height="644" viewBox="0 0 543 644" fill="none" xmlns="http://www.w3.org/2000/svg">
<mask id="mask0_26_439" style="mask-type:luminance" maskUnits="userSpaceOnUse" x="0" y="0" width="543" height="644">
<path d="M543 0H0V643.717H543V0Z" fill="white"/>
</mask>
<g mask="url(#mask0_26_439)">
<path d="M369.806 126.943V-241.421H538.673V175.229" stroke="#E0E0E0" stroke-width="4.82" stroke-miterlimit="10"/>
<path d="M386.592 5.38999V26.9467H408.164V-12.6099H386.592V5.38999ZM390.138 -9.07996H404.591V5.38999H390.138V-9.07996ZM390.138 8.9266H404.591V23.4101H390.138V8.9266Z" fill="#64D65E"/>
<path d="M424.625 5.38999V26.9467H446.197V-12.6099H424.625V5.38999ZM428.185 -9.06649H442.665V5.38999H428.185V-9.06649ZM428.185 8.94007H442.665V23.4101H428.185V8.94007Z" fill="#64D65E"/>
<path d="M461.621 5.38999V26.9467H483.193V-12.6099H461.621V5.38999ZM465.167 -9.07996H479.647V5.38999H465.167V-9.07996ZM465.167 8.9266H479.647V23.4101H465.167V8.9266Z" fill="#64D65E"/>
<path d="M496.446 5.38999V26.9467H518.018V-12.6099H496.446V5.38999ZM499.985 -9.07996H514.472V5.38999H499.985V-9.07996ZM499.985 8.9266H514.472V23.4101H499.985V8.9266Z" fill="#64D65E"/>
<path d="M362.357 458.84C356.661 464.579 351.018 470.966 345.005 476.766C343.352 478.378 341.66 479.937 339.929 481.441C338.008 483.111 336.026 484.701 333.997 486.156C333.849 485.732 333.669 485.32 333.458 484.924C330.053 478.187 320.818 473.923 319.672 466.284C318.627 459.15 325.065 452.595 324.013 445.603C322.827 437.694 313.093 432.999 311.293 425.272C310.147 420.476 311.171 414.945 310.753 410.001C310.275 404.472 309.34 398.992 307.956 393.618C308.63 393.57 309.304 393.55 309.978 393.53C323.663 393.301 337.132 400.981 341.561 411.772C345.127 420.53 343.313 430.574 348.052 438.759C348.337 439.288 348.66 439.797 349.016 440.281C349.645 441.14 350.319 441.963 351.039 442.747L352.542 444.309C352.791 444.559 353.068 444.788 353.317 445.057C353.567 445.327 353.836 445.562 354.086 445.832C356.445 448.089 358.852 450.359 360.416 453.053C360.557 453.288 360.683 453.53 360.793 453.781C360.935 454.031 361.061 454.29 361.171 454.556C361.312 454.845 361.42 455.121 361.521 455.391C361.622 455.66 361.75 456.065 361.858 456.348C362.007 456.853 362.148 457.331 362.256 457.83C362.256 457.958 362.256 458.065 362.296 458.166C362.337 458.267 362.296 458.247 362.296 458.294C362.306 458.334 362.306 458.376 362.296 458.416C362.296 458.503 362.296 458.564 362.337 458.624V458.665C362.327 458.724 362.334 458.785 362.357 458.84Z" fill="white"/>
<path d="M362.445 459.258H362.465L362.445 459.279V459.258Z" fill="white"/>
<path d="M362.485 459.219C362.654 459.071 362.795 458.97 362.964 458.822C362.822 458.95 362.654 459.091 362.506 459.239C362.506 459.239 362.506 459.239 362.465 459.239L362.485 459.219Z" fill="white"/>
<path d="M410.395 426.054C410.25 428.403 410.25 430.758 410.395 433.107C406.283 434.111 402.231 435.216 398.261 436.549C395.793 437.365 393.373 438.26 390.953 439.284C384.239 442.006 377.916 445.608 372.152 449.995C373.408 447.855 374.292 445.518 374.768 443.084C374.768 442.983 374.808 442.875 374.828 442.754C375.873 437.708 375.954 432.407 378.334 427.583C382.763 418.691 395.713 412.244 409.269 411.827H409.518C410.752 411.827 412.006 411.827 413.26 411.887C411.856 416.508 410.896 421.252 410.395 426.054Z" fill="white"/>
<path d="M404.233 419.56L398.22 436.523C395.753 437.338 393.333 438.234 390.913 439.258C394.776 431.753 399.198 424.97 404.233 419.56Z" fill="white"/>
<path d="M362.512 459.284C362.512 459.15 362.491 459.016 362.451 458.887C362.492 459.136 362.512 459.284 362.512 459.284Z" fill="white"/>
<path d="M316.787 402.512C330.269 419.979 339.221 449.667 345.005 476.768C343.352 478.38 341.66 479.938 339.929 481.443L316.787 402.512Z" fill="white"/>
<path d="M364.393 431.962C361.697 440.187 361.595 448.494 361.912 453.755C361.994 455.455 362.174 457.148 362.452 458.827L364.393 431.962Z" fill="white"/>
<path d="M362.357 458.84C356.661 464.579 351.018 470.966 345.005 476.766C343.352 478.378 341.66 479.937 339.929 481.441C338.008 483.111 336.026 484.701 333.997 486.156C333.849 485.732 333.669 485.32 333.458 484.924C330.053 478.187 320.818 473.923 319.672 466.284C318.627 459.15 325.065 452.595 324.013 445.603C322.827 437.694 313.093 432.999 311.293 425.272C310.147 420.476 311.171 414.945 310.753 410.001C310.275 404.472 309.34 398.992 307.956 393.618C308.63 393.57 309.304 393.55 309.978 393.53C323.663 393.301 337.132 400.981 341.561 411.772C345.127 420.53 343.313 430.574 348.052 438.759C348.337 439.288 348.66 439.797 349.016 440.281C349.645 441.14 350.319 441.963 351.039 442.747L352.542 444.309C352.791 444.559 353.068 444.788 353.317 445.057C353.567 445.327 353.836 445.562 354.086 445.832C356.445 448.089 358.852 450.359 360.416 453.053C360.557 453.288 360.683 453.53 360.793 453.781C360.935 454.031 361.061 454.29 361.171 454.556C361.312 454.845 361.42 455.121 361.521 455.391C361.622 455.66 361.75 456.065 361.858 456.348C362.007 456.853 362.148 457.331 362.256 457.83C362.256 457.958 362.256 458.065 362.296 458.166C362.337 458.267 362.296 458.247 362.296 458.294C362.306 458.334 362.306 458.376 362.296 458.416C362.296 458.503 362.296 458.564 362.337 458.624V458.665C362.327 458.724 362.334 458.785 362.357 458.84Z" stroke="#E0E0E0" stroke-width="4.65" stroke-miterlimit="10"/>
<path d="M374.768 443.104C374.29 445.532 373.406 447.862 372.152 449.996" stroke="#E0E0E0" stroke-width="4.65" stroke-miterlimit="10"/>
<path d="M410.374 433.106C410.23 430.758 410.23 428.402 410.374 426.053C410.877 421.257 411.837 416.52 413.239 411.906C411.986 411.826 410.732 411.825 409.498 411.846H409.249C395.692 412.263 382.742 418.71 378.313 427.602C375.934 432.426 375.853 437.707 374.808 442.773" stroke="#E0E0E0" stroke-width="4.65" stroke-miterlimit="10"/>
<path d="M374.774 443.112C374.774 443.004 374.815 442.903 374.835 442.775" stroke="#E0E0E0" stroke-width="4.65" stroke-miterlimit="10"/>
<path d="M374.828 442.746C374.828 442.867 374.788 442.975 374.768 443.076C374.293 445.513 373.409 447.853 372.152 449.994" stroke="#E0E0E0" stroke-width="4.65" stroke-miterlimit="10"/>
<path d="M374.774 443.112C374.774 443.004 374.815 442.903 374.835 442.775" stroke="#E0E0E0" stroke-width="4.65" stroke-miterlimit="10"/>
<path d="M362.445 459.158V459.26" stroke="#E0E0E0" stroke-width="4.65" stroke-miterlimit="10"/>
<path d="M404.233 419.56C399.198 424.949 394.796 431.753 390.913 439.285" stroke="#E0E0E0" stroke-width="4.65" stroke-miterlimit="10"/>
<path d="M362.512 459.284C362.512 459.15 362.491 459.016 362.451 458.887C362.492 459.136 362.512 459.284 362.512 459.284Z" stroke="#E0E0E0" stroke-width="4.65" stroke-miterlimit="10"/>
<path d="M316.787 402.512C330.269 419.979 339.221 449.667 345.005 476.768" stroke="#E0E0E0" stroke-width="4.65" stroke-miterlimit="10"/>
<path d="M364.393 431.962C361.697 440.187 361.595 448.494 361.912 453.755C361.994 455.455 362.174 457.148 362.452 458.827" stroke="#E0E0E0" stroke-width="4.65" stroke-miterlimit="10"/>
<path d="M507.785 238.052C516.366 270.172 525.217 304.777 524.489 337.792C523.714 372.586 505.985 401.789 474.22 416.609C453.545 426.249 431.319 428.021 410.375 433.093C406.262 434.097 402.211 435.202 398.24 436.535C395.773 437.351 393.353 438.247 390.933 439.27C384.225 441.998 377.909 445.604 372.152 449.995" stroke="#E0E0E0" stroke-width="4.65" stroke-miterlimit="10"/>
<path d="M164.787 55.2388C164.787 55.2388 124.771 46.1108 91.4628 57.3607C87.3136 58.7269 83.2931 60.4582 79.45 62.5343C60.5747 72.7403 46.3305 91.919 47.3754 126.753C47.9349 144.942 46.8698 162.881 43.2835 180.288C42.1106 185.937 40.6612 191.528 38.9355 197.062C34.7081 210.59 28.6066 223.46 20.8084 235.298C-4.02608 272.928 -0.264508 312.04 27.28 348.309C28.7226 350.208 30.2056 352.088 31.7291 353.927" stroke="#E0E0E0" stroke-width="4.65" stroke-miterlimit="10"/>
<path d="M456.356 38.5741H210.06C181.654 38.5741 158.625 61.5863 158.625 89.9735V321.937C158.625 350.324 181.654 373.336 210.06 373.336H456.356C484.763 373.336 507.791 350.324 507.791 321.937V89.9735C507.791 61.5863 484.763 38.5741 456.356 38.5741Z" fill="#B3EDAF"/>
<path d="M452.938 33.6823H208.382C178.088 33.6823 153.529 58.2236 153.529 88.4968V318.52C153.529 348.793 178.088 373.335 208.382 373.335H452.938C483.233 373.335 507.791 348.793 507.791 318.52V88.4968C507.791 58.2236 483.233 33.6823 452.938 33.6823Z" stroke="#3CA629" stroke-width="4.65" stroke-miterlimit="10"/>
<path d="M449.487 45.1553H216.93C188.523 45.1553 165.494 68.1676 165.494 96.5543V315.348C165.494 343.735 188.523 366.747 216.93 366.747H449.487C477.893 366.747 500.922 343.735 500.922 315.348V96.5543C500.922 68.1676 477.893 45.1553 449.487 45.1553Z" fill="#B3EDAF"/>
<path d="M461.291 62.0359H391.054C381.509 62.0359 373.763 70.3623 373.763 80.6084V243.065C373.763 253.331 381.509 261.678 391.054 261.678H461.291C470.856 261.678 478.629 253.331 478.629 243.065V80.6084C478.629 70.3623 470.856 62.0359 461.291 62.0359ZM473.654 243.772C473.642 247.187 472.278 250.459 469.861 252.873C467.443 255.288 464.169 256.648 460.751 256.659H391.641C388.218 256.648 384.939 255.286 382.517 252.87C380.095 250.454 378.727 247.179 378.711 243.759V79.9415C378.727 76.5214 380.095 73.2462 382.517 70.8298C384.939 68.4134 388.218 67.0517 391.641 67.0411H460.751C464.171 67.0518 467.448 68.4148 469.865 70.8318C472.283 73.2489 473.645 76.5241 473.654 79.9415V243.772Z" fill="#64D65E"/>
<path d="M460.367 280.742H390.131C380.592 280.742 372.84 289.068 372.84 299.314V324.024C372.84 334.297 380.592 342.643 390.131 342.643H460.367C469.933 342.643 477.705 334.297 477.705 324.024V299.314C477.705 289.068 469.933 280.742 460.367 280.742ZM472.73 324.738C472.722 328.155 471.359 331.429 468.941 333.845C466.524 336.261 463.247 337.623 459.828 337.631H390.717C387.295 337.623 384.016 336.262 381.594 333.847C379.172 331.431 377.804 328.157 377.788 324.738V298.647C377.804 295.227 379.172 291.953 381.594 289.536C384.015 287.119 387.295 285.758 390.717 285.747H459.828C463.248 285.758 466.524 287.121 468.942 289.538C471.359 291.955 472.722 295.23 472.73 298.647V324.738Z" fill="#64D65E"/>
<path d="M302.967 298.703L200.043 297.194C198.935 297.176 197.88 296.72 197.11 295.925C196.339 295.131 195.915 294.063 195.931 292.957C195.93 292.573 195.984 292.192 196.093 291.825C196.358 290.954 196.9 290.193 197.635 289.656C198.371 289.119 199.26 288.835 200.171 288.847L303.095 290.343C302.326 291.537 301.895 292.917 301.848 294.338C301.792 295.87 302.181 297.386 302.967 298.703Z" fill="#B3EDAF"/>
<path d="M327.923 296.007C327.662 296.876 327.128 297.638 326.399 298.179C325.67 298.72 324.786 299.012 323.878 299.011L316.463 298.903C317.259 297.662 317.691 296.223 317.714 294.748C317.737 293.274 317.348 291.823 316.591 290.557L324.007 290.665C325.112 290.688 326.164 291.146 326.934 291.939C327.704 292.732 328.129 293.797 328.119 294.902C328.106 295.278 328.04 295.65 327.923 296.007Z" fill="#64D65E"/>
<path d="M327.68 312.571C327.42 313.439 326.884 314.199 326.156 314.736C325.426 315.275 324.542 315.562 323.636 315.555L221.338 314.06C222.294 312.922 222.906 311.536 223.106 310.063C223.305 308.591 223.082 307.092 222.464 305.74L323.73 307.182C324.836 307.204 325.889 307.661 326.66 308.455C327.43 309.248 327.855 310.314 327.842 311.419C327.846 311.809 327.791 312.197 327.68 312.571Z" fill="#64D65E"/>
<path d="M209.029 313.872L199.807 313.737C198.702 313.721 197.648 313.269 196.877 312.478C196.105 311.688 195.677 310.624 195.688 309.52C195.693 309.131 195.749 308.743 195.857 308.368C196.116 307.501 196.65 306.742 197.381 306.207C198.111 305.672 198.996 305.39 199.901 305.404L208.119 305.532C207.638 306.529 207.367 307.613 207.323 308.719C207.255 310.585 207.86 312.414 209.029 313.872Z" fill="#B3EDAF"/>
<path d="M295.687 331.892L200.185 330.504C199.08 330.48 198.029 330.021 197.259 329.228C196.49 328.436 196.063 327.372 196.072 326.267C196.075 325.893 196.134 325.52 196.248 325.162C196.507 324.293 197.041 323.529 197.77 322.988C198.499 322.447 199.384 322.155 200.292 322.158L295.653 323.559C294.875 324.81 294.462 326.253 294.462 327.726C294.462 329.199 294.875 330.642 295.653 331.892H295.687Z" fill="#B3EDAF"/>
<path d="M328.078 329.325C327.819 330.193 327.284 330.953 326.555 331.49C325.825 332.027 324.94 332.312 324.034 332.302L309.028 332.107L295.687 331.925C294.908 330.675 294.496 329.232 294.496 327.759C294.496 326.286 294.908 324.843 295.687 323.592L309.277 323.794L324.108 324.01C325.211 324.028 326.264 324.481 327.034 325.271C327.805 326.062 328.231 327.124 328.22 328.227C328.225 328.598 328.177 328.968 328.078 329.325Z" fill="#64D65E"/>
<path d="M316.423 298.904C315.386 300.523 313.797 301.711 311.951 302.248C310.104 302.784 308.125 302.632 306.382 301.821C304.638 301.01 303.248 299.594 302.471 297.837C301.693 296.078 301.58 294.098 302.153 292.264C302.726 290.429 303.946 288.865 305.585 287.861C307.225 286.857 309.174 286.482 311.07 286.805C312.965 287.128 314.679 288.128 315.893 289.618C317.107 291.109 317.738 292.989 317.67 294.91C317.621 296.329 317.19 297.709 316.423 298.904Z" fill="white"/>
<g opacity="0.72">
<path opacity="0.72" d="M313.436 294.053C313.258 295.001 312.811 295.878 312.149 296.579C311.827 296.936 311.475 297.265 311.097 297.563C310.888 297.711 309.803 298.58 309.594 298.472C308.165 297.752 306.365 295.939 306.142 294.168C306.105 293.89 306.105 293.609 306.142 293.332C306.221 292.855 306.469 292.422 306.84 292.112C307.211 291.802 307.681 291.635 308.165 291.642C308.482 291.653 308.792 291.739 309.069 291.892C309.347 292.046 309.584 292.262 309.762 292.524C309.965 292.28 310.219 292.085 310.508 291.953C310.797 291.821 311.111 291.757 311.427 291.763C311.713 291.772 311.993 291.84 312.251 291.963C312.509 292.085 312.74 292.259 312.928 292.474C313.116 292.688 313.258 292.939 313.346 293.21C313.434 293.483 313.464 293.769 313.436 294.053Z" fill="#B3EDAF"/>
</g>
<path d="M221.325 314.061C220.57 314.965 219.621 315.69 218.55 316.181C217.478 316.672 216.311 316.917 215.132 316.899C213.953 316.882 212.793 316.6 211.738 316.077C210.681 315.553 209.756 314.8 209.029 313.873C207.865 312.413 207.265 310.584 207.337 308.719C207.381 307.614 207.652 306.529 208.132 305.533C208.809 304.159 209.87 303.009 211.186 302.224C212.501 301.438 214.016 301.05 215.548 301.107C217.023 301.153 218.455 301.615 219.68 302.438C220.904 303.262 221.872 304.413 222.471 305.762C223.089 307.113 223.312 308.611 223.113 310.084C222.913 311.557 222.3 312.942 221.345 314.081L221.325 314.061Z" fill="white"/>
<g opacity="0.72">
<path opacity="0.72" d="M218.932 308.424C218.749 309.369 218.3 310.243 217.637 310.943C217.321 311.305 216.968 311.634 216.586 311.926C216.384 312.075 215.292 312.95 215.089 312.836C213.66 312.122 211.86 310.31 211.631 308.531C211.594 308.254 211.594 307.973 211.631 307.696C211.701 307.301 211.886 306.936 212.163 306.647C212.441 306.358 212.798 306.158 213.189 306.072C213.581 305.986 213.989 306.018 214.362 306.165C214.735 306.311 215.056 306.565 215.285 306.894C215.552 306.523 215.938 306.253 216.379 306.129C216.82 306.005 217.289 306.035 217.711 306.212C218.133 306.39 218.482 306.705 218.702 307.107C218.921 307.509 218.997 307.973 218.918 308.424H218.932Z" fill="#B3EDAF"/>
</g>
<path d="M309.028 332.107C308.076 333.543 306.681 334.63 305.055 335.204C303.429 335.777 301.66 335.805 300.017 335.283C298.374 334.762 296.945 333.718 295.949 332.312C294.952 330.906 294.441 329.214 294.494 327.492C294.544 326.112 294.95 324.768 295.673 323.592C296.228 322.705 296.954 321.938 297.806 321.333C298.66 320.728 299.624 320.299 300.645 320.068C301.666 319.838 302.722 319.812 303.752 319.992C304.783 320.172 305.768 320.555 306.649 321.116C307.531 321.679 308.293 322.41 308.89 323.269C309.488 324.127 309.909 325.094 310.131 326.116C310.352 327.138 310.368 328.194 310.179 329.222C309.99 330.25 309.598 331.23 309.028 332.107Z" fill="white"/>
<g opacity="0.72">
<path opacity="0.72" d="M306.095 327.163C305.914 328.111 305.465 328.988 304.801 329.689C304.484 330.051 304.131 330.38 303.749 330.673C303.547 330.821 302.455 331.69 302.253 331.582C300.824 330.861 299.024 329.056 298.794 327.277C298.757 327 298.757 326.719 298.794 326.442C298.864 326.047 299.049 325.682 299.326 325.393C299.604 325.104 299.961 324.904 300.352 324.818C300.744 324.732 301.152 324.765 301.525 324.911C301.899 325.057 302.22 325.311 302.448 325.641C302.716 325.27 303.101 325.001 303.54 324.878C303.98 324.754 304.449 324.783 304.87 324.959C305.292 325.136 305.641 325.45 305.861 325.85C306.08 326.25 306.158 326.713 306.082 327.163H306.095Z" fill="#B3EDAF"/>
</g>
<path d="M195.142 81.753L195.317 106.132C195.363 110.384 197.051 114.455 200.029 117.492C203.008 120.529 207.047 122.298 211.301 122.428L235.448 122.845C237.524 122.877 239.586 122.492 241.511 121.712C243.435 120.932 245.183 119.774 246.651 118.306C248.12 116.839 249.278 115.092 250.057 113.168C250.836 111.245 251.221 109.184 251.188 107.109L251.006 82.7298C250.964 78.4777 249.278 74.4075 246.3 71.3707C243.321 68.3346 239.283 66.5677 235.03 66.4409L210.883 66.0165C208.806 65.9846 206.744 66.37 204.82 67.1496C202.895 67.9291 201.147 69.0871 199.679 70.555C198.211 72.0228 197.053 73.7703 196.273 75.6935C195.494 77.6175 195.109 79.6782 195.142 81.753Z" fill="white"/>
<path d="M198.857 87.8711L198.985 105.521C199.024 109.213 200.491 112.747 203.079 115.383C205.665 118.019 209.172 119.555 212.865 119.667L233.837 120.031C235.64 120.059 237.431 119.724 239.102 119.047C240.774 118.37 242.293 117.365 243.569 116.091C244.845 114.818 245.852 113.301 246.531 111.631C247.21 109.961 247.547 108.172 247.521 106.369V105.177C244.575 99.1547 238.839 90.1413 232.691 95.5305C223.866 103.277 219.828 97.383 214.685 89.7775C210.391 83.4116 203.859 78.7634 198.857 87.8711Z" fill="#B3EDAF"/>
<path d="M238.313 85.4331C240.977 83.6647 241.663 80.0149 239.846 77.2819C238.029 74.549 234.396 73.7669 231.732 75.5352C229.069 77.3042 228.382 80.9533 230.2 83.6863C232.016 86.4193 235.649 87.2014 238.313 85.4331Z" fill="#B3EDAF"/>
<path d="M335.413 91.6165C331.639 91.6152 327.957 92.7812 324.873 94.9551C321.789 97.1283 319.454 100.203 318.189 103.756C316.924 107.308 316.789 111.166 317.806 114.797C318.823 118.429 320.939 121.658 323.865 124.039L276.003 221.522C275.708 221.476 275.411 221.447 275.113 221.435C274.35 221.445 273.591 221.563 272.861 221.785L241.724 183.125C243.114 181.207 243.901 178.92 243.985 176.554C244.069 174.187 243.445 171.85 242.194 169.84C240.943 167.829 239.122 166.236 236.96 165.265C234.8 164.293 232.399 163.987 230.063 164.384C227.728 164.783 225.564 165.866 223.847 167.499C222.13 169.131 220.939 171.237 220.426 173.548C219.912 175.859 220.099 178.272 220.963 180.476C221.826 182.681 223.328 184.578 225.275 185.927L203.454 247.983C201.552 248.097 199.747 248.866 198.347 250.158C196.947 251.451 196.038 253.188 195.775 255.074C195.512 256.96 195.909 258.88 196.902 260.506C197.894 262.133 199.419 263.365 201.217 263.995C203.017 264.625 204.978 264.614 206.769 263.962C208.56 263.311 210.07 262.06 211.043 260.422C212.015 258.784 212.391 256.86 212.104 254.977C211.818 253.094 210.889 251.368 209.474 250.092L231.295 188.029C231.565 188.029 231.828 188.069 232.097 188.069C233.72 188.069 235.325 187.739 236.816 187.099L267.947 225.746C267.291 226.935 266.943 228.269 266.936 229.626C266.904 230.727 267.094 231.822 267.493 232.848C267.893 233.874 268.494 234.809 269.262 235.599C270.03 236.388 270.949 237.016 271.963 237.445C272.978 237.873 274.069 238.094 275.17 238.094C276.272 238.094 277.362 237.873 278.377 237.445C279.391 237.016 280.31 236.388 281.078 235.599C281.845 234.809 282.447 233.874 282.846 232.848C283.246 231.822 283.436 230.727 283.404 229.626C283.399 227.796 282.777 226.021 281.638 224.588L329.501 127.104C332.016 127.989 334.695 128.313 337.35 128.054C340.005 127.795 342.57 126.957 344.866 125.602C347.163 124.246 349.134 122.404 350.643 120.206C352.151 118.008 353.159 115.507 353.598 112.877C354.036 110.248 353.892 107.555 353.178 104.987C352.464 102.419 351.196 100.038 349.463 98.0128C347.729 95.9865 345.574 94.3643 343.147 93.2589C340.719 92.1541 338.079 91.5936 335.413 91.6165Z" fill="#64D65E"/>
<path d="M393.252 126.745H457.293" stroke="white" stroke-width="4.65" stroke-miterlimit="10"/>
<path d="M393.252 136.629H457.293" stroke="white" stroke-width="4.65" stroke-miterlimit="10"/>
<path d="M393.252 146.505H457.293" stroke="white" stroke-width="4.65" stroke-miterlimit="10"/>
<path d="M393.252 156.381H457.293" stroke="white" stroke-width="4.65" stroke-miterlimit="10"/>
<path d="M393.252 166.262H457.293" stroke="white" stroke-width="4.65" stroke-miterlimit="10"/>
<path d="M393.252 223.953H457.293" stroke="white" stroke-width="4.65" stroke-miterlimit="10"/>
<path d="M393.252 232.671H457.293" stroke="white" stroke-width="4.65" stroke-miterlimit="10"/>
<path d="M443.838 299.422C444.481 299.955 444.997 300.626 445.347 301.385C445.697 302.144 445.872 302.972 445.86 303.807L445.712 323.565C445.706 324.311 445.554 325.048 445.263 325.735C444.971 326.422 444.548 327.044 444.016 327.567C443.483 328.089 442.853 328.502 442.16 328.78C441.468 329.059 440.728 329.198 439.982 329.19L410.32 328.934C408.817 328.92 407.379 328.31 406.325 327.237C405.271 326.165 404.686 324.718 404.698 323.215L404.874 303.443C404.93 301.954 405.554 300.543 406.618 299.498C407.682 298.454 409.106 297.855 410.597 297.825L440.258 298.081C441.572 298.093 442.84 298.567 443.838 299.422Z" fill="white"/>
<path d="M439.645 303.034L425.812 314.911C425.635 315.061 425.411 315.143 425.178 315.143C424.946 315.143 424.721 315.061 424.545 314.911L410.462 302.785C410.307 302.654 410.196 302.478 410.146 302.28C410.096 302.084 410.11 301.876 410.184 301.687C410.259 301.498 410.391 301.337 410.561 301.227C410.733 301.117 410.933 301.063 411.136 301.074L439.052 301.323C439.248 301.329 439.437 301.395 439.595 301.512C439.753 301.628 439.872 301.789 439.936 301.975C440.001 302.16 440.007 302.361 439.955 302.55C439.903 302.739 439.795 302.908 439.645 303.034Z" fill="#B3EDAF"/>
<path d="M426.203 182.14C423.247 182.137 420.358 183.01 417.9 184.649C415.441 186.287 413.525 188.618 412.391 191.346C411.259 194.073 410.961 197.075 411.536 199.972C412.111 202.868 413.533 205.529 415.621 207.618C417.71 209.707 420.372 211.131 423.27 211.708C426.168 212.285 429.172 211.99 431.903 210.861C434.633 209.731 436.967 207.818 438.609 205.362C440.251 202.907 441.128 200.021 441.128 197.068C441.128 195.108 440.743 193.168 439.994 191.357C439.244 189.546 438.145 187.901 436.759 186.515C435.373 185.129 433.727 184.029 431.917 183.278C430.105 182.527 428.164 182.14 426.203 182.14ZM426.203 208.412C425.624 208.412 425.068 208.182 424.658 207.773C424.248 207.363 424.019 206.808 424.019 206.229C424.019 205.651 424.248 205.095 424.658 204.686C425.068 204.276 425.624 204.047 426.203 204.047C426.782 204.047 427.337 204.276 427.747 204.686C428.157 205.095 428.387 205.651 428.387 206.229C428.387 206.808 428.157 207.363 427.747 207.773C427.337 208.182 426.782 208.412 426.203 208.412ZM428.946 191.625C428.488 194.865 428.097 198.267 427.133 201.406C427.043 201.576 426.909 201.72 426.743 201.82C426.578 201.919 426.389 201.972 426.196 201.972C426.003 201.972 425.814 201.919 425.649 201.82C425.483 201.72 425.349 201.576 425.259 201.406C424.575 199.041 424.053 196.633 423.695 194.198C423.392 192.433 422.347 189.556 423.351 187.845C424.221 186.303 426.681 186.121 428.07 186.923C429.843 187.872 429.155 189.967 428.946 191.598V191.625Z" fill="white"/>
<path d="M335.676 123.634C343.084 123.634 349.091 117.633 349.091 110.229C349.091 102.825 343.084 96.8231 335.676 96.8231C328.267 96.8231 322.261 102.825 322.261 110.229C322.261 117.633 328.267 123.634 335.676 123.634Z" fill="white"/>
<path d="M426.095 91.0231C428.571 91.0231 430.578 89.0176 430.578 86.5433C430.578 84.0697 428.571 82.0636 426.095 82.0636C423.619 82.0636 421.612 84.0697 421.612 86.5433C421.612 89.0176 423.619 91.0231 426.095 91.0231Z" fill="white"/>
<path d="M413.577 106.799C413.577 103.481 414.896 100.299 417.243 97.9535C419.591 95.6072 422.775 94.2896 426.095 94.2896C429.415 94.2896 432.599 95.6072 434.947 97.9535C437.295 100.299 438.613 103.481 438.613 106.799H413.577Z" fill="white"/>
<path d="M339.875 535.003C339.873 536.021 339.559 537.013 338.977 537.849C338.396 538.684 337.573 539.322 336.619 539.678L289.667 557.193C289.667 557.193 287.429 553.043 283.526 546.111L256.709 501.28C249.463 538.533 241.38 575.833 236.371 599.08L231.545 622.227L250.892 628.586C252.055 628.866 253.09 629.528 253.832 630.467C254.574 631.404 254.98 632.564 254.984 633.76C254.982 634.571 254.796 635.37 254.439 636.099C254.082 636.827 253.565 637.465 252.925 637.964C252.285 638.463 251.54 638.811 250.747 638.98C249.953 639.149 249.131 639.135 248.344 638.94L203.501 627.582V616.629L202.436 616.42L203.36 488.649L159.542 478.296C154.048 480.007 148.244 481.576 142.312 482.849C142.247 482.858 142.185 482.872 142.123 482.89C127.724 486.661 112.685 487.31 98.0152 484.789C97.8871 484.789 97.7388 484.729 97.6175 484.702C96.5524 484.5 95.4873 484.264 94.4424 484.028C94.1255 483.968 93.8155 483.907 93.4986 483.819C92.5818 483.611 91.665 483.341 90.7482 483.092C90.2426 482.944 89.7438 482.822 89.2652 482.674C88.7865 482.526 88.4292 482.405 88.0113 482.257C80.116 479.78 72.8241 475.684 66.6013 470.232C61.8299 466.228 57.7845 461.434 54.6424 456.058C53.2942 453.93 52.0336 451.693 50.8606 449.396C43.742 435.351 42.2589 430.574 44.3284 430.446C39.7707 428.842 35.3559 426.859 31.1292 424.518C31.1292 424.518 21.8129 370.189 42.1308 315.509C41.7418 312.127 41.812 308.707 42.3398 305.344C46.6204 274.666 70.1809 243.132 98.2916 230.36C113.351 223.516 137.91 213.014 129.975 192.104C127.467 185.488 123.908 179.789 123.234 172.925C123.173 172.251 123.092 171.652 123.045 170.985C121.919 154.817 131.337 139.465 146.585 133.934C151.575 132.057 156.908 131.266 162.228 131.615C167.548 131.963 172.732 133.443 177.433 135.955C179.057 136.811 180.514 137.953 181.734 139.324C186.372 139.445 192.196 140.26 194.933 141.533C199.571 143.702 203.285 147.502 206.063 151.779C211.186 159.752 213.243 169.312 211.854 178.685C211.055 183.872 209.206 188.841 206.42 193.289C205.046 195.518 203.452 197.603 201.661 199.514C200.09 201.157 197.859 203.556 195.708 204.438C195.733 204.457 195.762 204.468 195.793 204.468C195.823 204.468 195.853 204.457 195.877 204.438L195.25 214.455C208.126 211.525 242.526 199.453 267.745 149.61C269.565 145.75 271.439 141.91 273.407 138.111C279.232 126.8 285.474 115.551 293.745 105.823C295.768 103.465 298.761 101.337 301.976 102.361C304.794 103.256 306.695 106.402 304.734 109.043L291.197 127.528L295.518 126.969C295.99 127.083 296.43 127.298 296.809 127.599C297.188 127.9 297.498 128.28 297.714 128.714C297.931 129.147 298.051 129.622 298.065 130.105C298.079 130.59 297.988 131.071 297.797 131.516L295.06 138.01L296.354 136.487C297.245 135.437 298.507 134.77 299.878 134.628C301.248 134.486 302.62 134.879 303.708 135.724C304.795 136.57 305.513 137.803 305.712 139.166C305.911 140.528 305.575 141.914 304.774 143.035L297.642 152.244C296.687 153.46 295.473 154.45 294.089 155.141L279.973 161.945C284.148 167.073 288.03 172.433 291.602 177.998C283.851 192.843 274.764 206.954 264.455 220.154C247.076 242.526 222.053 267.532 191.502 277.987C190.828 296.478 187.558 314.802 182.482 332.727C198.331 332.727 213.451 332.727 228.74 332.727L240.268 301.295C240.797 299.845 241.761 298.592 243.027 297.708C244.293 296.823 245.801 296.349 247.346 296.35H293.422C294.223 296.353 295.017 296.509 295.761 296.809C296.89 297.275 297.856 298.065 298.536 299.079C299.217 300.093 299.581 301.286 299.583 302.508C299.575 303.256 299.434 303.998 299.165 304.697L296.112 312.632H296.01H283.02L277.735 327.763L279.238 323.943H285.737C286.755 323.943 287.757 324.194 288.654 324.674C289.551 325.154 290.315 325.849 290.879 326.695C291.443 327.542 291.788 328.515 291.885 329.527C291.982 330.54 291.826 331.561 291.433 332.498L285.899 345.729C284.23 349.713 281.584 353.212 278.205 355.905C274.826 358.597 270.823 360.396 266.565 361.135L265.978 361.236L264.893 364.443L265.453 363.338C265.271 363.776 265.062 364.254 264.873 364.779H279.447C279.447 364.779 276.212 374.21 270.259 374.776C269.778 374.814 269.294 374.798 268.817 374.729H238.616C240.308 376.609 242.209 378.886 244.238 381.56C253.002 381.432 265.749 382.368 268.904 388.485C269.447 389.093 269.943 389.741 270.387 390.425C271.594 392.446 271.992 397.162 271.702 403.972C271.787 410.996 271.198 418.012 269.942 424.923C271.471 427.788 272.94 430.669 274.351 433.565C277.42 439.296 280.188 445.182 282.643 451.201C282.727 451.361 282.797 451.527 282.852 451.7C290.21 468.563 296.666 485.806 302.192 503.355L302.502 504.44C306.682 516.754 310.086 527.943 311.38 534.754L333.289 530.267C334.041 530.018 334.84 529.951 335.624 530.07C336.406 530.19 337.149 530.493 337.792 530.955C338.435 531.417 338.959 532.025 339.321 532.729C339.683 533.432 339.873 534.211 339.875 535.003Z" fill="white"/>
<path d="M264.273 365.587H278.847C278.249 367.23 277.488 368.81 276.576 370.303C274.776 373.118 271.998 376.062 268.324 375.564H224.109C222.39 375.575 220.716 375.016 219.35 373.974C219.047 372.574 219.133 371.118 219.599 369.764C237.457 367.029 255.752 364.085 263.936 362.394L265.48 362.125L264.273 365.587Z" fill="#B3EDAF"/>
<path d="M298.983 303.396C298.975 304.144 298.834 304.886 298.565 305.585L295.518 313.514H282.521L277.182 328.739L275.241 333.602H232.879L242.694 306.885C243.227 305.436 244.192 304.184 245.459 303.3C246.726 302.416 248.234 301.942 249.779 301.941H295.849C296.651 301.942 297.445 302.098 298.188 302.399C298.446 302.504 298.698 302.623 298.943 302.756C298.963 302.958 298.983 303.187 298.983 303.396Z" fill="#B3EDAF"/>
<path d="M298.99 303.389C298.981 304.138 298.84 304.879 298.572 305.579L295.518 313.507H282.528L287.045 301.261C287.544 299.902 288.505 298.763 289.761 298.043C291.016 297.322 292.485 297.067 293.911 297.321C295.336 297.575 296.626 298.322 297.554 299.432C298.483 300.541 298.991 301.942 298.99 303.389Z" fill="#B3EDAF"/>
<path d="M278.841 365.588C278.841 365.588 274.661 377.862 267.07 375.221C262.352 373.597 263.059 368.902 264.293 365.561L278.841 365.588Z" fill="#B3EDAF"/>
<path d="M268.163 313.509H246.975" stroke="white" stroke-width="4.65" stroke-linecap="round" stroke-linejoin="round"/>
<path d="M265.554 321.484H244.366" stroke="white" stroke-width="4.65" stroke-linecap="round" stroke-linejoin="round"/>
<path d="M282.151 452.016C278.481 443.15 274.202 434.55 269.342 426.276C271.311 415.854 272.652 397.599 268.385 389.313C265.23 383.189 252.496 382.26 243.706 382.388C236.917 373.421 231.43 368.8 231.43 368.8C231.43 368.8 190.565 375.416 181.235 375.469C171.905 375.523 171.912 380.69 171.912 380.69C171.912 380.69 165.413 400.287 158.066 410.021C150.718 419.755 130.953 431.577 102.471 436.131C73.9896 440.685 51.5887 435.074 46.4519 432.217C41.3151 429.361 41.1466 432.116 50.3415 450.217C59.5365 468.318 73.693 481.333 97.4691 485.624C112.134 488.147 127.17 487.499 141.563 483.724C141.563 483.724 179.186 474.246 190.221 467.018C201.256 459.79 202.982 469.618 202.982 469.618L201.904 617.268L231.025 623.075L256.184 502.135L283.013 547L310.888 535.548C307.605 518.323 290.746 472.899 282.151 452.016Z" fill="#1C610F"/>
<path d="M206.043 254.592C205.445 258.693 203.7 262.541 201.007 265.693C198.938 268.335 196.306 270.482 193.302 271.978C192.597 272.319 191.864 272.598 191.111 272.814C191.111 270.476 191.07 268.098 190.942 265.781C190.464 257.098 188.711 248.057 183.176 241.381C180.514 238.192 177.153 235.657 173.355 233.971C173.462 232.368 173.591 230.778 173.692 229.175C173.982 226.433 173.968 223.668 173.651 220.93C173.294 219.268 173.091 217.576 173.044 215.877C173.105 214.294 172.876 208.218 174.13 206.904C176.222 207.775 178.463 208.233 180.729 208.252C185.806 208.211 189.837 205.099 192.553 201.118C193.553 200.792 194.591 200.601 195.641 200.552C198.715 201.01 189.54 209.275 192.533 208.339C190.585 208.939 189.163 211.862 188.246 213.533C186.898 216.12 186.116 219.165 187.437 221.9C188.731 224.513 191.441 226.763 193.362 228.912C195.952 231.63 198.375 234.503 200.616 237.515C204.162 242.446 206.75 248.502 206.043 254.592Z" fill="#B3EDAF"/>
<path d="M159.387 230.534C164.214 230.834 168.949 231.993 173.368 233.957C177.164 235.643 180.522 238.179 183.183 241.367C188.718 248.049 190.471 257.083 190.949 265.766C191.077 268.104 191.138 270.482 191.118 272.799C191.017 293.359 187.592 313.703 181.97 333.596C199.43 333.596 215.993 333.596 232.866 333.596H275.241L277.182 328.739L278.733 324.831H285.272C286.29 324.831 287.293 325.083 288.191 325.563C289.089 326.044 289.854 326.739 290.418 327.586C290.983 328.433 291.329 329.407 291.426 330.42C291.523 331.433 291.368 332.454 290.975 333.393L285.44 346.624C283.768 350.605 281.119 354.103 277.74 356.794C274.36 359.485 270.358 361.283 266.1 362.023L265.513 362.131L263.97 362.401C255.786 364.092 237.49 367.035 219.633 369.77C203.299 372.297 187.322 374.634 179.766 375.719C176.901 376.136 173.975 376.446 171.002 376.635C153.36 377.719 135.146 373.799 130.427 353.731C127.353 340.878 128.027 327.021 128.169 313.642" stroke="#3CA629" stroke-width="4.65" stroke-miterlimit="10"/>
<path d="M243.847 382.967C255.267 382.442 265.5 384.132 269.888 391.273C272.099 394.884 271.56 407.616 269.282 425.373" stroke="#3CA629" stroke-width="4.65" stroke-miterlimit="10"/>
<path d="M52.5392 453.99C52.5641 454.021 52.5844 454.055 52.5999 454.091C57.4872 464.048 66.0822 472.643 77.0771 478.659C115.819 499.839 174.089 475.021 195.048 464.694C195.884 464.283 196.812 464.092 197.743 464.138C198.674 464.185 199.577 464.468 200.369 464.961C201.159 465.454 201.811 466.141 202.263 466.956C202.715 467.77 202.95 468.687 202.948 469.619V628.444L247.784 639.795C248.478 639.973 249.201 640.01 249.91 639.901C250.618 639.793 251.298 639.542 251.906 639.164C252.516 638.787 253.042 638.29 253.453 637.704C253.865 637.118 254.154 636.454 254.303 635.753C254.598 634.392 254.348 632.969 253.606 631.79C252.863 630.611 251.688 629.771 250.332 629.448L230.992 623.082C231.888 616.804 245.007 559.389 256.157 502.142" stroke="#3CA629" stroke-width="4.65" stroke-miterlimit="10"/>
<path d="M230.567 368.052C242.027 377.753 250.258 392.668 257.963 405.339C276.737 436.212 290.779 469.813 301.686 504.196C304.983 514.584 308.016 525.079 310.881 535.575L332.777 531.082C334.019 530.678 335.371 530.776 336.542 531.356C337.713 531.935 338.611 532.949 339.043 534.181C339.476 535.413 339.408 536.766 338.855 537.949C338.303 539.132 337.31 540.053 336.087 540.513L289.134 558.027C289.134 558.027 275.396 532.382 256.197 502.115C228.059 457.708 176.065 389.266 162.34 403.863" stroke="#3CA629" stroke-width="4.65" stroke-miterlimit="10"/>
<path d="M189.608 216.091C189.608 216.091 235.65 212.905 267.212 150.465C267.212 150.465 277.189 157.343 291.096 178.859C291.096 178.859 252.078 257.992 190.949 278.875" stroke="#3CA629" stroke-width="4.65" stroke-miterlimit="10"/>
<path d="M185.442 143.081L188.138 147.177L189.763 149.669C191.411 153.506 192.86 157.426 194.104 161.411L194.185 161.694L197.272 173.483C197.278 173.496 197.278 173.51 197.272 173.523C198.31 175.23 199.741 176.664 201.445 177.706C201.848 177.924 202.224 178.189 202.564 178.495C204.418 180.354 199.531 180.893 198.519 181.506C198.073 181.812 197.707 182.221 197.453 182.698C197.198 183.176 197.062 183.707 197.057 184.248C191.252 208.384 194.987 202.045 192.493 207.414C194.657 205.582 200.036 199.755 200.036 199.755C200.71 199.317 201.344 198.003 201.782 197.35C203.174 195.216 204.372 192.961 205.362 190.614C208.438 183.602 209.148 175.781 207.384 168.329C204.6 156.749 198.108 145.163 185.442 143.081Z" fill="#B3EDAF"/>
<path d="M184.889 150.365C184.395 152.869 183.206 155.185 181.458 157.047C179.559 159.121 177.348 160.888 174.905 162.281C170.308 165.016 165.191 167.084 161.328 170.776C157.461 174.493 155.146 179.535 154.85 184.889C154.58 190.372 156.542 196.051 157.735 201.184C161.517 217.776 160.304 233.721 158.214 250.421C156.232 266.178 152.012 281.598 143.828 295.313C134.175 311.48 118.326 324.421 100.489 331.063C85.6586 336.594 56.8401 341.498 45.9396 326.112C44.0588 321.255 44.0386 315.697 44.7666 310.463C49.0473 279.758 72.6077 248.245 100.718 235.473C115.778 228.629 140.336 218.113 132.402 197.196C129.874 190.601 126.335 184.909 125.661 178.018C125.6 177.391 125.539 176.765 125.479 176.098C124.346 159.93 133.764 144.585 149.012 139.047C154.001 137.164 159.334 136.371 164.655 136.72C169.976 137.068 175.16 138.551 179.86 141.068C181.528 141.955 183.022 143.138 184.269 144.558C184.354 144.654 184.431 144.758 184.498 144.868C184.593 145.106 184.669 145.351 184.727 145.602C185.099 147.163 185.154 148.782 184.889 150.365Z" fill="#B3EDAF"/>
<path d="M191.151 272.106C199.295 270.226 206.44 264.399 208.483 255.884C210.384 247.996 207.377 239.899 202.719 233.553C198.398 227.692 189.399 222.775 190.106 214.462C190.336 211.767 191.67 209.41 193.41 207.321C194.037 206.594 194.684 205.92 195.392 205.233" stroke="#3CA629" stroke-width="4.65" stroke-miterlimit="10"/>
<path d="M174.359 206.714L173.982 234.219" stroke="#3CA629" stroke-width="4.65" stroke-miterlimit="10"/>
<path d="M129.463 192.925C126.948 186.323 123.396 180.631 122.722 173.746C122.654 173.113 122.594 172.48 122.546 171.806C121.407 155.639 130.831 140.3 146.073 134.756C151.063 132.875 156.397 132.082 161.719 132.431C167.041 132.779 172.226 134.261 176.927 136.776C178.592 137.667 180.081 138.852 181.323 140.273L181.64 140.657C182.74 142.001 183.541 143.565 183.985 145.244C184.431 146.924 184.511 148.678 184.221 150.391C183.731 152.889 182.549 155.199 180.81 157.06C178.905 159.138 176.69 160.911 174.244 162.314C169.647 165.049 164.537 167.104 160.661 170.796C156.792 174.522 154.483 179.579 154.203 184.942C153.927 190.426 155.895 196.098 157.068 201.244C160.85 217.836 159.643 233.775 157.553 250.468C155.571 266.224 151.358 281.651 143.161 295.366C133.507 311.534 117.666 324.481 99.8218 331.117C84.7013 336.748 55.0536 341.733 44.6385 325.249C41.1398 319.719 40.9106 312.719 41.8139 306.239C46.0946 275.541 69.6685 244.014 97.7657 231.249C112.853 224.323 137.411 213.835 129.463 192.925Z" stroke="#3CA629" stroke-width="4.65" stroke-miterlimit="10"/>
<path d="M187.349 174.257C188.797 174.257 189.972 173.085 189.972 171.637C189.972 170.19 188.797 169.016 187.349 169.016C185.901 169.016 184.727 170.19 184.727 171.637C184.727 173.085 185.901 174.257 187.349 174.257Z" fill="#3CA629"/>
<path d="M186.736 163.191C186.736 163.191 177.858 167.192 180.669 174.973" stroke="#3CA629" stroke-width="4.65" stroke-miterlimit="10"/>
<path d="M194.94 205.362C197.164 204.553 199.537 201.993 201.155 200.316C202.944 198.408 204.543 196.33 205.928 194.112C209.828 187.874 211.866 180.654 211.8 173.299C211.735 165.945 209.569 158.761 205.557 152.595C202.78 148.311 199.079 144.511 194.441 142.356C190.575 140.535 186.249 139.925 182.03 140.604C184.388 142.527 186.503 144.731 188.327 147.165C191.074 150.769 192.998 154.931 193.962 159.358C194.111 160.133 194.239 160.901 194.374 161.682C195.048 165.846 195.425 170.063 197.468 173.471C198.509 175.192 199.947 176.64 201.661 177.695C202.064 177.912 202.439 178.177 202.78 178.483C204.634 180.342 199.746 180.875 198.735 181.488C196.14 183.003 197.104 187.355 196.76 189.874C196.345 192.815 195.465 195.671 194.151 198.335C193.686 199.282 193.157 200.195 192.567 201.07C189.87 205.065 185.826 208.191 180.743 208.218C178.481 208.198 176.245 207.74 174.157 206.871C170.576 205.416 167.373 203.166 164.793 200.289" stroke="#3CA629" stroke-width="4.65" stroke-miterlimit="10"/>
<path d="M190.059 191.423C190.059 191.423 183.945 194.906 181.296 186.89" stroke="#3CA629" stroke-width="4.65" stroke-miterlimit="10"/>
<path d="M278.342 163.358L293.577 156.002C294.97 155.331 296.186 154.343 297.129 153.118L304.241 143.896C305.06 142.777 305.411 141.383 305.219 140.009C305.027 138.636 304.307 137.391 303.213 136.539C302.118 135.686 300.734 135.293 299.354 135.443C297.975 135.593 296.707 136.274 295.822 137.342L294.521 138.857L297.264 132.37C297.45 131.924 297.539 131.444 297.523 130.961C297.507 130.478 297.387 130.004 297.171 129.571C296.956 129.139 296.65 128.757 296.274 128.454C295.898 128.15 295.461 127.93 294.992 127.81L290.658 128.382L304.208 109.891C306.129 107.27 304.262 104.104 301.451 103.208C298.215 102.177 295.222 104.306 293.213 106.664C284.948 116.391 278.686 127.641 272.868 138.958C270.913 142.762 269.027 146.597 267.212 150.464" stroke="#3CA629" stroke-width="4.65" stroke-linejoin="round"/>
<path d="M290.665 128.382C290.665 128.382 281.827 139.369 294.527 138.857" stroke="#3CA629" stroke-width="4.65" stroke-miterlimit="10"/>
<path d="M266.059 362.016C266.059 362.016 259.507 372.639 267.138 375.246C274.769 377.853 278.942 365.593 278.942 365.593H264.212" stroke="#3CA629" stroke-width="4.65" stroke-miterlimit="10"/>
<path d="M268.405 375.558H238.016" stroke="#3CA629" stroke-width="4.65" stroke-miterlimit="10"/>
<path d="M299.084 303.389C299.076 304.138 298.934 304.879 298.666 305.579L295.619 313.507H282.629L287.139 301.261C287.638 299.902 288.6 298.763 289.855 298.043C291.11 297.322 292.58 297.067 294.005 297.321C295.43 297.575 296.72 298.322 297.649 299.432C298.577 300.541 299.086 301.942 299.084 303.389Z" stroke="#3CA629" stroke-width="4.65" stroke-miterlimit="10"/>
<path d="M235.657 313.508L228.241 333.59L239.749 302.177C240.281 300.725 241.248 299.472 242.518 298.588C243.788 297.702 245.299 297.23 246.847 297.233H292.916" stroke="#3CA629" stroke-width="4.65" stroke-miterlimit="10"/>
<path d="M275.254 333.59L282.629 313.509" stroke="#3CA629" stroke-width="4.65" stroke-miterlimit="10"/>
<path d="M41.6386 316.35C21.314 371.03 30.6303 425.373 30.6303 425.373C61.3296 442.443 104.857 440.961 136.035 425.959C147.064 420.637 158.955 412.621 163.769 400.873C167.301 392.27 170.975 383.735 174.002 375.011" stroke="#3CA629" stroke-width="4.65" stroke-miterlimit="10"/>
<path d="M24.1116 486.959H202.975" stroke="#3CA629" stroke-width="4.65" stroke-miterlimit="10"/>
<path d="M181.983 333.61L180.055 340.124" stroke="#3CA629" stroke-width="4.65" stroke-miterlimit="10"/>
<path d="M52.5998 454.092C52.5998 454.092 44.7261 440.053 42.1645 430.71" stroke="#3CA629" stroke-width="4.65" stroke-miterlimit="10"/>
<path d="M91.4628 57.3599V197.06H38.9355C40.666 191.532 42.1154 185.941 43.2836 180.287C46.8699 162.88 47.935 144.907 47.3755 126.752C46.3306 91.9176 60.5545 72.7389 79.45 62.5335C83.2932 60.4574 87.3136 58.726 91.4628 57.3599Z" stroke="#E0E0E0" stroke-width="4.65" stroke-miterlimit="10"/>
<path d="M79.45 62.5333V180.287H43.2633C46.8496 162.88 47.9147 144.907 47.3552 126.752C46.3305 91.9177 60.5544 72.7525 79.45 62.5333Z" stroke="#E0E0E0" stroke-width="4.65" stroke-miterlimit="10"/>
</g>
</svg>
