<svg width="540" height="382" viewBox="0 0 540 382" fill="none" xmlns="http://www.w3.org/2000/svg">
<g clip-path="url(#clip0_26_252)">
<path d="M358.125 379.527C364.538 379.527 370.775 379.241 376.834 378.671C417.746 374.908 450.092 358.824 471.603 336.369C482.981 324.664 491.586 310.567 496.785 295.112C501.681 280.481 503.109 264.916 500.957 249.642C486.092 144.353 361.248 195.553 413.585 131.514C465.922 67.4752 363.465 -13.9732 324.152 5.30269C284.838 24.5786 328.193 65.805 231.04 46.3152C133.888 26.8253 153.992 112.458 153.992 112.458" stroke="#E0E0E0" stroke-width="4.82" stroke-miterlimit="10"/>
<path d="M96.5589 288.657C96.5589 288.657 52.0655 256.839 34.888 292.027C34.888 292.027 52.9536 228.178 114.571 205.342C114.571 205.342 132.183 195.57 132.958 201.473C133.733 207.375 138.841 210.388 141.076 210.317C143.311 210.246 162.181 211.423 162.837 208.611C163.493 205.8 162.241 197.377 171.599 197.318C180.956 197.258 231.732 209.699 246.251 222.847C246.251 222.847 220.979 253.273 234.491 286.82L223.107 284.068C223.107 284.068 230.128 344.695 220.556 379.96H55.2185C55.2185 379.96 71.7463 382.034 88.6973 369.974L113.313 338.472C113.313 338.472 124.107 322.162 146.16 319.832C146.16 319.832 158.713 318.465 158.593 312.515C158.474 306.566 163.117 316.325 169.322 307.725C170.079 307.725 185.158 308.592 185.158 308.592C185.158 308.592 196.483 309.65 198.611 299.57C200.738 289.489 208.582 218.733 205.763 214.484C202.944 210.234 201.865 210.18 178.071 210.323C154.278 210.466 133.369 205.734 130.342 217.539C127.314 229.343 123.815 274.071 123.815 274.071C123.815 274.071 110.405 277.571 100.189 292.057C100.224 292.051 96.5589 299.112 96.5589 288.657Z" fill="#1C610F"/>
<path d="M96.5589 267.169V295.022" stroke="#1F821A" stroke-width="4.82" stroke-miterlimit="10"/>
<path d="M222.344 281.097C248.599 295.005 321.16 323.423 323.734 214.122C323.734 214.122 320.611 185.419 328.753 181.674C336.895 177.93 350.025 166.072 333.116 137.363L344.148 126.385C345.639 124.855 346.459 122.797 346.429 120.664C346.398 118.531 345.519 116.498 343.984 115.011C342.45 113.525 340.387 112.707 338.248 112.737C336.109 112.768 334.07 113.645 332.579 115.175L310.652 138.355C310.652 138.355 307.475 132.412 301.842 135.508C296.21 138.605 275.552 151.747 284.933 179.19L260.532 249.089" stroke="#1F821A" stroke-width="4.82" stroke-miterlimit="10"/>
<path d="M310.622 138.341C310.622 138.341 316.469 147.215 304.024 156.286" stroke="#1F821A" stroke-width="4.82" stroke-miterlimit="10"/>
<path d="M336.716 144.257C336.716 144.257 340.358 155.663 325.666 163.022C320.468 165.625 314.764 160.145 317.22 154.885C317.262 154.807 317.297 154.724 317.339 154.641" stroke="#1F821A" stroke-width="4.82" stroke-miterlimit="10"/>
<path d="M341.162 158.343C341.162 158.343 337.95 169.482 329.158 170.017C321.38 170.487 322.685 162.575 322.685 162.575" stroke="#1F821A" stroke-width="4.82" stroke-miterlimit="10"/>
<path d="M190.761 151.367C190.165 151.521 189.789 151.028 189.235 151.123C181.266 149.673 175.342 143.396 174.674 140.376C174.901 142.023 177.928 141.856 177.416 143.539C177.32 143.859 177.13 143.735 176.975 144.044C176.724 144.638 176.73 143.824 176.379 144.359C174.424 141.476 173.291 140.044 172.946 138.457C173.18 140.16 173.042 141.894 172.54 143.539C172.449 143.86 172.327 144.173 172.177 144.472C170.985 147.277 168.499 149.649 164.345 150.237C163.304 150.369 162.252 150.402 161.204 150.338C158.224 150.166 155.649 149.994 153.456 149.898C146.124 149.571 143.496 150.124 144.318 154.844C144.772 156.978 145.415 159.069 146.238 161.091C147.692 164.907 148.705 171.516 147.215 178.714V178.756C145.487 187.137 140.015 193.615 128.291 199.702C126.214 200.771 124.073 201.71 121.878 202.513C101.536 210.038 52.8761 229.1 32.7066 299C30.561 306.447 28.9577 313.223 27.8252 319.411L27.2709 319.09C13.4967 310.858 4.51462 292.39 7.24442 276.502C8.60336 268.615 13.753 263.111 20.357 258.968C24.9941 256.103 29.953 253.755 34.1072 250.219C47.8754 238.491 36.8668 220.256 44.49 206.234C53.0847 190.459 66.543 180.735 84.1138 179.933C88.5364 180.123 93.5132 180.64 98.341 180.408C105.35 180.658 112.515 180.087 117.646 175.504C121.687 171.938 122.528 166.125 124.06 161.275C125.784 155.805 127.223 150.25 128.369 144.632C129.417 139.305 131.373 134.197 134.15 129.529C137.149 124.47 141.378 120.246 146.446 117.249C150.868 114.76 155.797 113.303 160.864 112.987C165.479 113.258 169.967 114.593 173.977 116.886C175.346 117.694 176.64 118.62 177.845 119.656C186.72 127.205 190.969 139.984 190.761 151.367Z" fill="#B3EDAF"/>
<path d="M325.415 169.351C325.415 169.351 322.572 172.87 324.128 176.211C325.683 179.551 329.546 180.33 333.301 178.868" stroke="#1F821A" stroke-width="4.82" stroke-miterlimit="10"/>
<path d="M333.104 137.362L325.248 145.19" stroke="#1F821A" stroke-width="4.82" stroke-miterlimit="10"/>
<path d="M123.845 273.304L130.24 218.323C130.499 216.098 131.569 214.047 133.246 212.557C134.923 211.068 137.09 210.245 139.336 210.246H198.068C199.353 210.245 200.624 210.514 201.798 211.036C202.972 211.557 204.022 212.319 204.881 213.272C205.741 214.226 206.389 215.348 206.784 216.567C207.179 217.787 207.313 219.076 207.175 220.35L198.616 299.576C198.374 301.815 197.31 303.887 195.629 305.392C193.948 306.898 191.768 307.73 189.509 307.73H168.493" stroke="#1F821A" stroke-width="4.82" stroke-miterlimit="10"/>
<path d="M193.264 224.249C194.587 224.249 195.66 223.179 195.66 221.859C195.66 220.54 194.587 219.47 193.264 219.47C191.941 219.47 190.868 220.54 190.868 221.859C190.868 223.179 191.941 224.249 193.264 224.249Z" fill="#1F821A"/>
<path d="M153.712 286.06C159.911 287.451 161.15 287.475 167.164 288.366C170.955 288.931 179.621 289.4 179.776 283.534C179.919 278.38 174.12 275.355 170.025 273.709C165.299 271.916 160.354 270.763 155.321 270.279C153.247 270.041 151.163 269.878 149.069 269.792C134.556 269.197 117.813 272.698 107.818 284.021C84.6622 310.222 53.8715 327.066 53.8715 327.066" stroke="#1F821A" stroke-width="4.82" stroke-miterlimit="10"/>
<path d="M170.311 288.656C173.291 289.916 178.34 292.602 176.271 297.75C175.33 300.127 173.619 300.971 171.271 301.316C166.199 302.047 160.757 300.971 155.774 299.931C153.932 299.545 150.666 298.837 148.848 298.338" stroke="#1F821A" stroke-width="4.82" stroke-miterlimit="10"/>
<path d="M165.013 301.435C165.013 301.435 170.43 301.369 169.125 306.392C166.973 314.713 150.255 310.945 142.435 309.197" stroke="#1F821A" stroke-width="4.82" stroke-miterlimit="10"/>
<path d="M165.346 197.768C190.82 198.88 229.64 206.327 264.841 236.694" stroke="#1F821A" stroke-width="4.82" stroke-miterlimit="10"/>
<path d="M358.125 379.531L55.2185 379.983" stroke="#1F821A" stroke-width="4.82" stroke-miterlimit="10"/>
<path d="M222.344 269.73C222.344 269.73 228.305 325.05 222.344 379.531" stroke="#1F821A" stroke-width="4.82" stroke-miterlimit="10"/>
<path opacity="0.54" d="M485.383 244.464L537.767 110.603C538.417 108.012 538.466 105.309 537.911 102.697C537.356 100.085 536.211 97.6343 534.564 95.5296C532.916 93.4254 530.81 91.7225 528.404 90.5516C525.998 89.3801 523.357 88.7714 520.679 88.7708H312.577C307.905 88.7702 303.368 90.3382 299.698 93.2228C296.028 96.1067 293.439 100.14 292.348 104.671L234.986 238.502C234.363 241.085 234.336 243.775 234.906 246.37C235.477 248.965 236.63 251.397 238.278 253.484C239.927 255.57 242.029 257.257 244.426 258.417C246.823 259.576 249.452 260.179 252.116 260.179H465.195C469.836 260.179 474.343 258.633 478.001 255.786C481.659 252.938 484.257 248.953 485.383 244.464Z" fill="white"/>
<path d="M485.383 244.464L537.767 110.603C538.417 108.012 538.466 105.309 537.911 102.697C537.356 100.085 536.211 97.6343 534.564 95.5296C532.916 93.4254 530.81 91.7225 528.404 90.5516C525.998 89.3801 523.357 88.7714 520.679 88.7708H312.577C307.905 88.7702 303.368 90.3382 299.698 93.2228C296.028 96.1067 293.439 100.14 292.348 104.671L234.986 238.502C234.363 241.085 234.336 243.775 234.906 246.37C235.477 248.965 236.63 251.397 238.278 253.484C239.927 255.57 242.029 257.257 244.426 258.417C246.823 259.576 249.452 260.179 252.116 260.179H465.195C469.836 260.179 474.343 258.633 478.001 255.786C481.659 252.938 484.257 248.953 485.383 244.464Z" fill="#B3EDAF"/>
<path d="M485.383 244.464L537.767 110.603C538.417 108.012 538.466 105.309 537.911 102.697C537.356 100.085 536.211 97.6343 534.564 95.5296C532.916 93.4254 530.81 91.7225 528.404 90.5516C525.998 89.3801 523.357 88.7714 520.679 88.7708H312.577C307.905 88.7702 303.368 90.3382 299.698 93.2228C296.028 96.1067 293.439 100.14 292.348 104.671L234.986 238.502C234.363 241.085 234.336 243.775 234.906 246.37C235.477 248.965 236.63 251.397 238.278 253.484C239.927 255.57 242.029 257.257 244.426 258.417C246.823 259.576 249.452 260.179 252.116 260.179H465.195C469.836 260.179 474.343 258.633 478.001 255.786C481.659 252.938 484.257 248.953 485.383 244.464Z" stroke="#1F821A" stroke-width="4.82" stroke-linecap="square" stroke-linejoin="round"/>
<path d="M477.718 239.044L526.05 115.549C526.648 113.16 526.693 110.667 526.181 108.258C525.669 105.849 524.613 103.589 523.094 101.648C521.575 99.7069 519.633 98.1359 517.414 97.0553C515.196 95.9747 512.759 95.4124 510.291 95.4113H318.293C313.982 95.4101 309.796 96.8568 306.41 99.5179C303.025 102.18 300.637 105.9 299.631 110.081L246.71 233.546C246.136 235.929 246.111 238.41 246.638 240.805C247.164 243.198 248.228 245.442 249.75 247.367C251.271 249.291 253.211 250.847 255.422 251.917C257.633 252.986 260.059 253.541 262.516 253.541H459.098C463.377 253.539 467.534 252.112 470.908 249.485C474.281 246.858 476.678 243.184 477.718 239.044Z" fill="#B3EDAF"/>
<path d="M332.144 118.116C334.689 114.306 338.856 112.612 341.448 114.329C344.041 116.047 344.077 120.535 341.532 124.345C341.137 124.93 340.69 125.479 340.197 125.985L359.061 165.702C362.041 163.699 365.379 163.205 367.751 164.781C369.283 165.797 370.135 167.527 370.403 169.536L383.289 165.197L394.56 161.44C395.752 161.03 397.01 160.638 398.238 160.251C398.701 158.871 399.344 157.558 400.151 156.346C403.727 150.997 409.574 148.619 413.21 150.997C416.846 153.374 416.893 159.598 413.419 164.917L434.875 194.179C439.554 190.351 445.068 189.168 448.888 191.7C454.085 195.148 454.163 204.147 449.061 211.796C448.858 212.099 448.626 212.349 448.411 212.64L462.716 232.13C462.758 232.19 462.811 232.261 462.847 232.32C463.209 232.864 463.459 233.474 463.584 234.115C463.71 234.755 463.707 235.414 463.577 236.054C463.447 236.694 463.192 237.301 462.826 237.843C462.461 238.384 461.992 238.849 461.446 239.209C460.901 239.57 460.289 239.82 459.647 239.945C459.004 240.069 458.343 240.067 457.702 239.937C457.061 239.808 456.451 239.553 455.908 239.189C455.366 238.824 454.9 238.356 454.538 237.813L441.837 218.703C437.82 221.027 433.552 221.473 430.423 219.393C425.452 216.1 425.214 207.755 429.642 200.372L409.073 169.423C406.04 171.479 402.69 172.002 400.288 170.415C398.946 169.471 398.032 168.038 397.743 166.427C397.23 166.564 396.724 166.712 396.211 166.855L384.75 169.975L370.081 173.916C369.632 175.67 368.891 177.335 367.888 178.844C364.312 184.193 358.471 186.571 354.829 184.163C351.187 181.756 351.134 175.45 354.704 170.094C355.236 169.318 355.835 168.588 356.492 167.913L338.534 127.418C336.37 128.886 333.98 129.266 332.27 128.131C329.641 126.419 329.599 121.931 332.144 118.116Z" fill="white"/>
<path d="M468.754 120.308H496.582C497.855 120.308 499.101 119.938 500.167 119.244C501.232 118.549 502.073 117.56 502.584 116.397C502.747 116.041 502.835 115.654 502.84 115.262C502.834 114.504 502.528 113.78 501.989 113.245C501.45 112.711 500.721 112.411 499.962 112.409H470.357C471.769 114.757 471.066 118.002 468.754 120.308Z" fill="#45CA3D"/>
<path d="M450.76 117.461C450.761 118.217 451.064 118.941 451.6 119.475C452.136 120.009 452.863 120.308 453.62 120.308H468.754C471.066 118.002 471.769 114.757 470.381 112.409H457.018C455.746 112.408 454.501 112.777 453.436 113.469C452.37 114.161 451.529 115.148 451.016 116.308C450.854 116.672 450.767 117.063 450.76 117.461Z" fill="#B3EDAF"/>
<path d="M457.721 120.308C457.8 120.461 457.892 120.606 457.995 120.742C459.98 123.447 464.283 123.714 467.633 121.265C468.029 120.974 468.404 120.654 468.754 120.308C471.066 118.002 471.769 114.757 470.381 112.409C470.302 112.258 470.21 112.115 470.107 111.981C468.14 109.259 463.836 109.009 460.487 111.44C460.085 111.736 459.705 112.06 459.348 112.409C457.054 114.721 456.35 117.949 457.721 120.308Z" fill="white"/>
<path d="M443.762 134.878C443.768 135.636 444.075 136.36 444.614 136.893C445.153 137.426 445.882 137.725 446.641 137.725H475.846C474.434 135.348 475.137 132.138 477.456 129.832H450.038C448.765 129.832 447.52 130.202 446.454 130.897C445.388 131.591 444.548 132.58 444.036 133.743C443.87 134.099 443.777 134.485 443.762 134.878Z" fill="#B3EDAF"/>
<path d="M475.84 137.725H489.549C490.82 137.727 492.064 137.359 493.13 136.668C494.196 135.977 495.037 134.991 495.551 133.832C495.715 133.47 495.803 133.077 495.807 132.679C495.808 132.305 495.735 131.934 495.591 131.588C495.448 131.242 495.238 130.929 494.973 130.664C494.708 130.4 494.392 130.19 494.045 130.047C493.699 129.904 493.327 129.831 492.952 129.832H477.45C475.125 132.138 474.428 135.366 475.84 137.725Z" fill="#45CA3D"/>
<path d="M475.84 137.725C475.902 137.881 475.986 138.027 476.091 138.159C478.064 140.881 482.367 141.131 485.711 138.7C486.116 138.406 486.497 138.08 486.849 137.725C489.144 135.419 489.829 132.191 488.476 129.831C488.4 129.679 488.31 129.534 488.208 129.398C486.217 126.693 481.914 126.426 478.57 128.874C478.171 129.163 477.797 129.483 477.45 129.831C475.125 132.138 474.428 135.365 475.84 137.725Z" fill="white"/>
<path d="M466.113 155.022H483.595C484.867 155.023 486.111 154.654 487.177 153.962C488.242 153.27 489.084 152.283 489.597 151.123C489.761 150.766 489.849 150.379 489.853 149.988C489.85 149.227 489.545 148.5 489.006 147.963C488.467 147.426 487.736 147.124 486.974 147.123H467.74C469.111 149.482 468.408 152.71 466.113 155.022Z" fill="#B3EDAF"/>
<path d="M437.778 152.187C437.781 152.94 438.084 153.663 438.62 154.194C439.157 154.726 439.883 155.023 440.639 155.022H466.113C468.408 152.71 469.093 149.482 467.74 147.123H444.036C442.763 147.123 441.518 147.493 440.452 148.187C439.386 148.882 438.546 149.87 438.034 151.034C437.871 151.396 437.783 151.789 437.778 152.187Z" fill="#45CA3D"/>
<path d="M455.081 155.021C455.159 155.171 455.251 155.314 455.355 155.449C457.322 158.171 461.625 158.421 464.975 155.99C465.376 155.694 465.757 155.37 466.113 155.021C468.408 152.709 469.093 149.481 467.74 147.121C467.662 146.969 467.57 146.824 467.466 146.688C465.481 143.983 461.178 143.751 457.828 146.165C457.432 146.456 457.058 146.776 456.708 147.121C454.395 149.428 453.668 152.673 455.081 155.021Z" fill="white"/>
<path d="M353.095 236.599H370.576C371.848 236.6 373.093 236.231 374.158 235.539C375.224 234.847 376.064 233.86 376.578 232.7C376.778 232.266 376.864 231.788 376.828 231.312C376.793 230.836 376.637 230.377 376.374 229.977C376.113 229.578 375.753 229.251 375.33 229.028C374.907 228.804 374.434 228.691 373.956 228.699H354.728C356.093 231.059 355.389 234.287 353.095 236.599Z" fill="#B3EDAF"/>
<path d="M283.693 233.766C283.694 234.139 283.768 234.508 283.913 234.852C284.056 235.197 284.267 235.51 284.532 235.773C284.797 236.036 285.111 236.245 285.458 236.387C285.803 236.529 286.174 236.602 286.548 236.601H353.095C355.389 234.289 356.075 231.061 354.722 228.702H289.952C288.678 228.702 287.433 229.072 286.367 229.766C285.301 230.461 284.461 231.45 283.95 232.613C283.786 232.975 283.699 233.368 283.693 233.766Z" fill="#45CA3D"/>
<path d="M342.062 236.6C342.141 236.75 342.233 236.894 342.336 237.028C344.303 239.756 348.607 240 351.956 237.569C352.358 237.273 352.738 236.949 353.095 236.6C355.389 234.288 356.075 231.06 354.722 228.701C354.644 228.548 354.552 228.403 354.448 228.267C352.457 225.562 348.154 225.331 344.81 227.744C344.414 228.035 344.039 228.355 343.689 228.701C341.377 231.007 340.673 234.252 342.062 236.6Z" fill="white"/>
<path d="M28.8203 322.215C26.6007 321.342 24.4543 320.295 22.4011 319.083C8.61505 310.85 -0.367072 292.389 2.36869 276.495C3.73359 268.608 8.88326 263.11 15.5111 258.961C20.1422 256.096 25.125 253.754 29.2614 250.217C43.0297 238.49 32.0152 220.248 39.6383 206.233C48.9066 189.234 63.8072 179.266 83.4403 179.914C92.8635 180.223 105.1 182.38 112.795 175.503C116.836 171.937 117.682 166.124 119.214 161.274C120.941 155.804 122.381 150.249 123.529 144.631C124.561 139.305 126.504 134.196 129.275 129.528C132.273 124.464 136.502 120.235 141.571 117.23C151.107 111.744 164.405 111.239 173.989 116.879C175.353 117.688 176.645 118.613 177.851 119.643C186.72 127.227 190.964 140.001 190.761 151.389" stroke="#1F821A" stroke-width="4.82" stroke-miterlimit="10"/>
<path d="M172.749 137.45C173.244 140.802 175.288 143.893 178.918 144.82C183.018 145.86 185.194 149.843 186.35 153.843C187.994 159.712 187.573 165.964 185.158 171.561C182.917 176.828 178.924 182.855 172.171 183.8C159.815 185.583 153.664 180.364 153.664 180.364" stroke="#1F821A" stroke-width="4.82" stroke-miterlimit="10"/>
<path d="M162.456 155.36C163.627 155.36 164.577 154.412 164.577 153.244C164.577 152.075 163.627 151.128 162.456 151.128C161.284 151.128 160.334 152.075 160.334 153.244C160.334 154.412 161.284 155.36 162.456 155.36Z" fill="#1F821A"/>
<path d="M181.117 153.957C182.289 153.957 183.239 153.01 183.239 151.841C183.239 150.672 182.289 149.725 181.117 149.725C179.945 149.725 178.995 150.672 178.995 151.841C178.995 153.01 179.945 153.957 181.117 153.957Z" fill="#1F821A"/>
<path d="M157.532 311.557C160.62 313.447 158.128 316.561 155.887 317.613C152.037 319.396 147.06 319.711 142.864 320.211C110.959 323.955 100.308 367.631 80.2814 375.75C60.2549 383.869 6.51107 389.801 32.7244 298.991C52.9059 229.104 101.565 210.042 121.908 202.517C124.098 201.714 126.235 200.777 128.309 199.711C140.033 193.637 145.522 187.134 147.245 178.747C147.245 178.747 147.245 178.747 147.245 178.712C148.735 171.514 147.734 164.904 146.273 161.082C145.436 159.064 144.786 156.973 144.33 154.835C143.246 148.755 147.954 149.611 161.174 150.336C167.242 150.693 170.675 147.958 172.153 144.475C172.298 144.173 172.416 143.859 172.505 143.536C173.126 141.564 173.201 139.46 172.719 137.45" stroke="#1F821A" stroke-width="4.82" stroke-miterlimit="10"/>
<path d="M171.599 153.756C171.599 153.756 173.828 161.881 173.601 163.082C173.375 164.283 170.52 163.355 170.52 163.355" stroke="#1F821A" stroke-width="4.82" stroke-miterlimit="10"/>
<path d="M170.061 170.796C165.787 173.09 160.846 171.646 158.915 167.824" stroke="#1F821A" stroke-width="4.82" stroke-miterlimit="10"/>
<path d="M165.863 161.89C169.843 158.142 170.097 151.963 166.43 148.089C162.763 144.215 156.563 144.112 152.582 147.86C148.602 151.607 148.348 157.786 152.015 161.66C155.682 165.534 161.882 165.637 165.863 161.89Z" stroke="#1F821A" stroke-width="4.82" stroke-miterlimit="10"/>
<path d="M190.616 159.637C194.597 155.89 194.851 149.711 191.183 145.837C187.516 141.963 181.316 141.86 177.335 145.608C173.355 149.355 173.101 155.534 176.768 159.408C180.435 163.282 186.636 163.385 190.616 159.637Z" stroke="#1F821A" stroke-width="4.82" stroke-miterlimit="10"/>
<path d="M184.181 145.844C185.856 145.833 187.471 146.462 188.696 147.601C189.921 148.741 190.662 150.304 190.767 151.972C190.874 153.787 190.27 155.573 189.082 156.954C187.895 158.334 186.217 159.201 184.401 159.372C184.193 159.372 183.978 159.372 183.769 159.372C182.104 159.384 180.497 158.763 179.273 157.636C178.05 156.509 177.303 154.96 177.183 153.303C177.068 151.482 177.669 149.689 178.857 148.302C180.045 146.915 181.728 146.044 183.549 145.873C183.758 145.873 183.972 145.873 184.181 145.873V145.844ZM184.181 144.441C183.93 144.441 183.674 144.441 183.418 144.476C181.23 144.684 179.209 145.728 177.779 147.391C176.348 149.054 175.62 151.205 175.747 153.392C175.88 155.42 176.785 157.322 178.275 158.708C179.767 160.094 181.731 160.861 183.769 160.852C184.02 160.852 184.276 160.852 184.532 160.816C186.72 160.612 188.743 159.568 190.173 157.904C191.603 156.24 192.329 154.088 192.197 151.9C192.078 149.863 191.181 147.949 189.69 146.551C188.199 145.154 186.227 144.38 184.181 144.387V144.441Z" fill="white"/>
<path d="M169 153.992L174.197 153.516" stroke="#1F821A" stroke-width="4.82" stroke-miterlimit="10"/>
<path d="M159.434 147.907C161.159 147.89 162.826 148.535 164.088 149.709C165.35 150.882 166.113 152.495 166.217 154.213C166.328 156.084 165.707 157.924 164.484 159.347C163.261 160.77 161.531 161.664 159.66 161.839C159.446 161.839 159.225 161.839 159.011 161.839C157.283 161.854 155.616 161.208 154.353 160.033C153.09 158.859 152.327 157.246 152.222 155.527C152.112 153.657 152.733 151.818 153.956 150.396C155.179 148.975 156.908 148.082 158.778 147.907C158.996 147.885 159.215 147.875 159.434 147.877V147.907ZM159.434 146.444C159.171 146.444 158.909 146.456 158.647 146.48C156.393 146.689 154.31 147.768 152.842 149.487C151.374 151.206 150.639 153.428 150.791 155.681C150.928 157.759 151.854 159.708 153.382 161.128C154.909 162.548 156.922 163.334 159.011 163.325C159.267 163.325 159.529 163.325 159.791 163.289C162.035 163.079 164.109 162.007 165.575 160.3C167.041 158.593 167.783 156.385 167.647 154.142C167.512 152.064 166.587 150.116 165.06 148.695C163.534 147.275 161.522 146.489 159.434 146.498V146.444Z" fill="white"/>
<path d="M189.675 158.642C193.088 155.429 193.304 150.128 190.156 146.803C187.009 143.477 181.69 143.387 178.276 146.6C174.863 149.813 174.648 155.114 177.795 158.439C180.943 161.765 186.262 161.855 189.675 158.642Z" fill="#B3EDAF"/>
<path d="M166.711 161.243C170.154 157.997 170.37 152.648 167.193 149.296C164.015 145.943 158.648 145.857 155.204 149.103C151.76 152.348 151.545 157.697 154.723 161.05C157.9 164.402 163.267 164.489 166.711 161.243Z" fill="#B3EDAF"/>
<path d="M138.209 210.316C135.587 207.588 133.31 203.575 131.814 197.768" stroke="#1F821A" stroke-width="4.82" stroke-miterlimit="10"/>
<path d="M162.456 210.246L165.346 197.769L168.487 184.325" stroke="#1F821A" stroke-width="4.82" stroke-miterlimit="10"/>
<path d="M174.272 259.922C175.383 254.486 172.377 249.285 167.558 248.305C162.739 247.326 157.932 250.939 156.821 256.375C155.71 261.811 158.716 267.012 163.535 267.991C168.354 268.97 173.161 265.358 174.272 259.922Z" fill="#45CA3D"/>
<path d="M358.644 348.368L353.756 375.603C353.619 376.367 353.217 377.059 352.62 377.558C352.023 378.057 351.269 378.33 350.49 378.331H324.926C324.14 378.331 323.378 378.053 322.777 377.546C322.177 377.039 321.777 376.335 321.648 375.561L317.178 348.368H358.644Z" stroke="#E0E0E0" stroke-width="4.82" stroke-miterlimit="10"/>
<path d="M363.293 345.323C363.224 346.152 362.846 346.924 362.233 347.488C361.621 348.052 360.818 348.365 359.985 348.367H315.879C315.056 348.367 314.264 348.063 313.653 347.514C313.042 346.965 312.656 346.21 312.571 345.395C312.527 344.935 312.58 344.472 312.726 344.034C312.872 343.596 313.108 343.193 313.42 342.852C313.731 342.51 314.111 342.237 314.535 342.051C314.958 341.865 315.416 341.768 315.879 341.769H359.985C360.441 341.77 360.892 341.864 361.31 342.046C361.729 342.228 362.105 342.494 362.415 342.828C362.725 343.161 362.964 343.555 363.114 343.984C363.266 344.414 363.326 344.87 363.293 345.323Z" stroke="#E0E0E0" stroke-width="4.82" stroke-miterlimit="10"/>
<path d="M339.321 341.723C339.321 340.326 342.897 322.929 339.917 307.505C338.295 299.041 334.719 291.177 327.519 286.868" stroke="#E0E0E0" stroke-width="4.82" stroke-miterlimit="10"/>
<path d="M339.928 307.528C339.928 307.528 340.745 295.807 350.901 294.999" stroke="#E0E0E0" stroke-width="4.82" stroke-miterlimit="10"/>
<path d="M341.019 325.413C343.909 323.395 347.389 322.391 350.913 322.56" stroke="#E0E0E0" stroke-width="4.82" stroke-miterlimit="10"/>
<path d="M341.019 317.086C341.019 317.086 333.64 308.372 321.851 315.267" stroke="#E0E0E0" stroke-width="4.82" stroke-miterlimit="10"/>
<path d="M335.816 313.578C335.816 313.578 319.199 298.445 315.944 318.927C315.944 318.927 320.623 321.965 327.531 318.927C334.439 315.89 335.816 313.578 335.816 313.578Z" stroke="#E0E0E0" stroke-width="4.82" stroke-miterlimit="10"/>
<path d="M343.582 298.565C343.582 298.565 342.986 291.753 350.901 289.524C358.817 287.296 363.305 296.621 363.305 296.621C363.305 296.621 357.195 303.356 343.582 298.565Z" stroke="#E0E0E0" stroke-width="4.82" stroke-miterlimit="10"/>
<path d="M345.418 322.554C345.418 322.554 345.144 315.666 354.358 317.086C363.573 318.507 365.087 326.347 365.087 326.347C365.087 326.347 349.995 331.863 345.418 323.28" stroke="#E0E0E0" stroke-width="4.82" stroke-miterlimit="10"/>
<path d="M334.314 293.263C334.314 293.751 327.388 292.669 326.947 292.514C323.591 291.516 321.207 289.198 319.64 286.131C319.157 285.18 316.362 279.848 317.154 278.921C317.178 278.921 333.64 273.631 334.314 293.263Z" stroke="#E0E0E0" stroke-width="4.82" stroke-miterlimit="10"/>
<path d="M496.797 295.11C491.599 310.568 482.994 324.667 471.614 336.372C450.092 358.828 417.746 374.912 376.846 378.674V295.11H496.797Z" stroke="#E0E0E0" stroke-width="4.82" stroke-miterlimit="10"/>
<path d="M471.614 336.373C450.092 358.829 417.746 374.913 376.846 378.676V336.373H471.614Z" stroke="#E0E0E0" stroke-width="4.82" stroke-miterlimit="10"/>
<path d="M459.164 316.565C459.164 313.232 456.454 310.529 453.111 310.529C449.768 310.529 447.058 313.232 447.058 316.565C447.058 319.899 449.768 322.601 453.111 322.601C456.454 322.601 459.164 319.899 459.164 316.565Z" stroke="#E0E0E0" stroke-width="4.82" stroke-miterlimit="10"/>
</g>
<defs>
<clipPath id="clip0_26_252">
<rect width="540" height="381" fill="white" transform="translate(0 0.5)"/>
</clipPath>
</defs>
</svg>
