<svg width="74" height="105" viewBox="0 0 74 105" fill="none" xmlns="http://www.w3.org/2000/svg">
<g id="logo" clip-path="url(#clip0_39_845)">
<path id="Vector" d="M26.8116 59.283C23.9964 54.2636 6.30076 35.5427 9.51818 0.135742C10.9928 17.9071 19.8406 39.7481 31.9058 52.2288C32.1203 57.3295 28.5992 59.057 26.8116 59.283Z" fill="white"/>
<path id="Vector_2" d="M13.5399 79.225H7.23914C13.2717 70.5429 21.4493 63.2173 26.5435 59.5545C32.1739 55.7561 32.0846 53.4952 31.7717 52.0933L39.1449 59.4188C36.4638 61.1824 21.3152 71.6281 13.5399 79.225Z" fill="white"/>
<path id="Vector_3" d="M50.9421 59.283C46.6522 55.8915 31.2355 42.0543 24.9348 24.6899C26.186 24.7352 28.8225 24.8256 29.3587 24.8256C30.029 24.8256 31.4377 24.8571 31.9058 25.7752C36.1957 34.1861 45.3116 44.6318 52.5508 49.3799C55.7234 52.2287 59.8435 58.1977 50.9421 59.283Z" fill="white"/>
<path id="Vector_4" d="M50.942 59.2831C47.8587 61.0466 17.1594 80.9885 0.134033 104.864C9.11592 96.1823 46.25 66.7443 73.8659 59.2831C65.0717 57.1125 56.1703 51.8671 52.8188 49.5156C52.7295 49.5609 52.7116 49.8412 53.3551 50.6009C56.6797 55.2676 53.1317 58.3335 50.942 59.2831Z" fill="white"/>
</g>
<defs>
<clipPath id="clip0_39_845">
<rect width="74" height="105" fill="white"/>
</clipPath>
</defs>
</svg>
