<svg width="276" height="387" viewBox="0 0 276 387" fill="none" xmlns="http://www.w3.org/2000/svg">
<path d="M100 218.5C89.5 200 23.5 131 35.5001 0.5C41 66 74 146.5 119 192.5C119.8 211.3 106.667 217.667 100 218.5Z" fill="#45CA3D"/>
<path d="M50.5 292H27C49.5 260 80 233 99 219.5C120 205.5 119.667 197.167 118.5 192L146 219C136 225.5 79.5 264 50.5 292Z" fill="#35AB49"/>
<path d="M190 218.5C174 206 116.5 155 93 91C97.6667 91.1667 107.5 91.5 109.5 91.5C112 91.5 117.254 91.6162 119 95C135 126 169 164.5 196 182C207.833 192.5 223.2 214.5 190 218.5Z" fill="#359923"/>
<path d="M190 218.5C178.5 225 64 298.5 0.5 386.5C34 354.5 172.5 246 275.5 218.5C242.7 210.5 209.5 191.167 197 182.5C196.667 182.667 196.6 183.7 199 186.5C211.4 203.7 198.167 215 190 218.5Z" fill="#279158"/>
</svg>
