<svg width="476" height="332" viewBox="0 0 476 332" fill="none" xmlns="http://www.w3.org/2000/svg">
<g clip-path="url(#clip0_196_222)">
<path d="M434.384 35.2769H339.552C334.724 35.2769 330.81 39.2029 330.81 44.0459V180.066C330.81 184.909 334.724 188.835 339.552 188.835H434.384C439.213 188.835 443.127 184.909 443.127 180.066V44.0459C443.127 39.2029 439.213 35.2769 434.384 35.2769Z" stroke="#B3EDAF" stroke-width="4.83" stroke-miterlimit="10"/>
<path d="M430.291 51.0969H344.795C342.381 51.0969 340.424 53.0599 340.424 55.4814V73.7203C340.424 76.1418 342.381 78.1049 344.795 78.1049H430.291C432.705 78.1049 434.662 76.1418 434.662 73.7203V55.4814C434.662 53.0599 432.705 51.0969 430.291 51.0969Z" stroke="#B3EDAF" stroke-width="4.83" stroke-miterlimit="10"/>
<path d="M386.968 62.4735C388.506 62.4735 389.753 61.2229 389.753 59.6805C389.753 58.138 388.506 56.8875 386.968 56.8875C385.43 56.8875 384.184 58.138 384.184 59.6805C384.184 61.2229 385.43 62.4735 386.968 62.4735Z" fill="#45CA3D"/>
<path d="M379.188 72.319C379.188 70.249 380.007 68.2639 381.467 66.8005C382.926 65.3365 384.905 64.5144 386.968 64.5144C389.032 64.5144 391.011 65.3365 392.47 66.8005C393.93 68.2639 394.749 70.249 394.749 72.319H379.188Z" fill="#45CA3D"/>
<path d="M387.536 107.052C384.569 107.053 381.67 107.936 379.203 109.59C376.737 111.244 374.816 113.594 373.681 116.343C372.547 119.093 372.25 122.117 372.83 125.036C373.409 127.954 374.838 130.634 376.936 132.738C379.034 134.841 381.707 136.274 384.617 136.854C387.526 137.434 390.542 137.136 393.282 135.997C396.023 134.858 398.365 132.93 400.013 130.455C401.661 127.981 402.541 125.073 402.541 122.097C402.541 120.121 402.152 118.164 401.398 116.339C400.644 114.513 399.539 112.854 398.145 111.457C396.752 110.06 395.098 108.951 393.277 108.196C391.457 107.44 389.506 107.051 387.536 107.052ZM387.536 133.512C386.972 133.484 386.441 133.24 386.052 132.83C385.664 132.421 385.447 131.877 385.447 131.312C385.447 130.746 385.664 130.202 386.052 129.792C386.441 129.383 386.972 129.139 387.536 129.112C388.099 129.139 388.63 129.383 389.019 129.792C389.407 130.202 389.624 130.746 389.624 131.312C389.624 131.877 389.407 132.421 389.019 132.83C388.63 133.24 388.099 133.484 387.536 133.512ZM390.304 116.59C389.842 119.852 389.453 123.278 388.481 126.45C388.25 127.214 386.821 127.214 386.59 126.45C385.905 124.065 385.379 121.637 385.014 119.183C384.714 117.397 383.674 114.504 384.667 112.77C385.544 111.189 388.014 111.031 389.448 111.842C391.208 112.838 390.514 114.967 390.304 116.59Z" fill="#45CA3D"/>
<path d="M223.41 65.7632C218.151 64.1902 212.545 64.2171 207.301 65.8397C202.057 67.4628 197.411 70.6089 193.95 74.8806C190.489 79.1523 188.368 84.3574 187.857 89.838C187.346 95.3181 188.465 100.828 191.076 105.67C193.686 110.512 197.669 114.469 202.521 117.04C207.373 119.611 212.877 120.681 218.335 120.115C223.794 119.549 228.963 117.372 233.188 113.859C237.413 110.347 240.505 105.656 242.072 100.381C243.113 96.8785 243.456 93.2049 243.082 89.5698C242.708 85.9346 241.623 82.4091 239.89 79.1945C238.157 75.9799 235.81 73.1394 232.982 70.8349C230.155 68.5299 226.902 66.8067 223.41 65.7632ZM209.472 112.665C208.47 112.333 207.636 111.622 207.147 110.684C206.659 109.746 206.555 108.653 206.856 107.639C207.158 106.625 207.841 105.768 208.762 105.251C209.683 104.734 210.769 104.598 211.789 104.871C212.313 105.011 212.804 105.255 213.232 105.589C213.661 105.923 214.018 106.34 214.283 106.815C214.547 107.29 214.715 107.813 214.774 108.354C214.834 108.895 214.785 109.442 214.63 109.964C214.475 110.485 214.217 110.971 213.872 111.391C213.527 111.81 213.101 112.156 212.62 112.408C212.139 112.66 211.613 112.812 211.072 112.857C210.531 112.9 209.987 112.836 209.472 112.665ZM223.289 84.1339C220.752 89.6725 218.251 95.5379 214.883 100.644C214.074 101.877 211.536 101.119 211.531 99.643C211.574 95.0572 211.925 90.4799 212.582 85.9415C212.992 82.6267 212.671 76.9459 215.345 74.3952C217.72 72.1134 222.175 73.0936 224.303 75.2859C226.862 77.9629 224.519 81.3725 223.289 84.1339Z" fill="#8BE386"/>
<path d="M145.916 127.382C143.992 129.346 142.692 131.838 142.18 134.543C141.668 137.248 141.967 140.045 143.039 142.58C144.112 145.115 145.909 147.273 148.205 148.783C150.5 150.293 153.19 151.086 155.935 151.063C158.681 151.039 161.357 150.2 163.627 148.651C165.896 147.101 167.656 144.912 168.685 142.36C169.714 139.807 169.965 137.005 169.407 134.309C168.849 131.613 167.507 129.144 165.55 127.213C162.923 124.625 159.38 123.188 155.698 123.22C152.016 123.252 148.498 124.749 145.916 127.382ZM163.327 144.546C163.141 144.737 162.918 144.889 162.673 144.993C162.428 145.098 162.164 145.153 161.898 145.155C161.632 145.157 161.367 145.107 161.121 145.007C160.874 144.908 160.649 144.759 160.459 144.572C160.268 144.385 160.117 144.162 160.013 143.916C159.908 143.671 159.854 143.406 159.851 143.139C159.849 142.872 159.899 142.607 159.999 142.359C160.098 142.111 160.246 141.886 160.432 141.695C160.809 141.31 161.323 141.091 161.861 141.086C162.399 141.081 162.917 141.291 163.301 141.669C163.685 142.046 163.903 142.562 163.908 143.102C163.913 143.642 163.704 144.161 163.327 144.546ZM153.991 131.746C155.835 134.17 157.837 136.652 159.292 139.35C159.644 139.998 158.72 140.931 158.068 140.604C156.062 139.505 154.131 138.273 152.289 136.915C150.918 135.961 148.343 134.77 147.844 132.984C147.392 131.403 148.895 129.643 150.334 129.227C152.105 128.71 153.056 130.549 153.991 131.746Z" fill="#8BE386"/>
<path d="M349.85 90.1616H423.125" stroke="#B3EDAF" stroke-width="4.83" stroke-miterlimit="10"/>
<path d="M349.85 97.3972H423.125" stroke="#B3EDAF" stroke-width="4.83" stroke-miterlimit="10"/>
<path d="M349.85 143.982H423.125" stroke="#B3EDAF" stroke-width="4.83" stroke-miterlimit="10"/>
<path d="M366.867 150.829H406.103" stroke="#B3EDAF" stroke-width="4.83" stroke-miterlimit="10"/>
<path d="M443.132 134.486C449.594 142.633 455.741 152.73 461.3 165.172C495.145 240.984 452.841 279.459 452.841 279.459" stroke="#C7C7C7" stroke-width="4.83" stroke-miterlimit="10"/>
<path d="M89.6259 194.6C89.6259 194.6 39.4042 137.46 102.03 109.166C164.656 80.872 177.055 76.9407 172.537 47.5086C168.019 18.0766 203.535 -11.893 259.389 7.91103C315.243 27.7151 316.362 65.0361 312.4 93.8885C310.152 110.336 319.456 114.288 330.789 113.461" stroke="#C7C7C7" stroke-width="4.83" stroke-miterlimit="10"/>
<path d="M439.591 304.118C439.463 307.272 438.65 310.36 437.206 313.166C437.149 313.306 437.082 313.441 437.006 313.572C434.474 318.135 430.931 322.055 426.651 325.029L426.499 325.134C422.635 327.726 418.289 329.51 413.721 330.377H462.34C462.34 330.377 455.836 237.338 396.058 192.07C338.207 148.268 284.045 169.378 280.609 170.791C281.674 173.805 282.15 176.997 282.012 180.192C282.012 180.192 286.362 182.464 287.087 190.595C287.812 198.726 289.325 221.334 274.777 225.592C274.777 225.592 261.716 225.27 258.265 220.243C254.813 215.216 253.983 216.238 252.627 217.513C251.576 218.478 245.235 221.924 242.309 223.505C242.678 223.523 243.046 223.574 243.407 223.658C243.407 223.658 245.083 237.844 265.588 260.078C266.283 260.812 266.939 261.582 267.553 262.386C270.65 265.101 274.13 267.873 277.993 270.702L301.394 287.876C301.922 288.327 302.548 288.646 303.222 288.809C304.531 289.14 305.9 289.153 307.215 288.846C309.936 288.319 328.519 286.416 340.545 285.215C340.819 285.215 341.107 285.162 341.375 285.131L342.952 284.978C343.204 284.978 343.477 284.925 343.698 284.909L345.116 284.772C345.81 284.704 346.435 284.635 347.013 284.588L348.589 284.435C349.981 284.298 350.806 284.214 350.874 284.214C353.739 284.132 356.595 283.854 359.422 283.381C362.128 282.854 364.598 282.006 365.238 280.599C365.36 280.302 365.405 279.979 365.37 279.66C365.225 278.765 364.852 277.923 364.288 277.215C361.818 273.89 356.081 271.039 355.661 270.834C355.649 270.829 355.636 270.829 355.624 270.834L355.508 270.749L321.358 244.136H321.321C321.321 244.136 326.465 189.098 373.335 202.642C373.335 202.642 373.555 202.795 373.96 203.132C375.788 204.544 381.541 209.224 390 217.966C390.221 218.204 390.457 218.441 390.693 218.694C391.592 219.611 392.475 220.564 393.352 221.497C399.289 227.863 406.313 235.973 414.063 246.086L414.115 246.139C422.994 257.733 429.393 268.357 433.554 277.758V277.79C438.057 288.008 439.954 296.761 439.581 303.744C439.592 303.868 439.596 303.993 439.591 304.118ZM298.225 209.519C296.838 193.483 304.619 187.675 305.055 187.354C293.991 207.432 314.512 238.208 315.232 239.399C314.644 238.904 299.612 225.55 298.225 209.519Z" fill="#1C610F"/>
<path d="M268.835 206.373C268.259 206.797 267.659 207.188 267.038 207.543L263.434 201.219C271.746 196.955 274.079 189.441 270.422 185.314C269.399 184.186 268.081 183.368 266.618 182.953C262.94 181.836 260.392 183.48 258.664 185.689C257.253 187.608 256.219 189.779 255.616 192.086L253.862 171.787L253.725 170.206C253.725 170.206 249.9 168.303 239.54 170C229.179 171.697 227.272 177.436 222.822 174.891C218.372 172.345 215.85 172.551 215.85 172.551C214.584 177.215 211.195 177.215 211.195 177.215C210.392 177.117 209.604 176.925 208.847 176.64C204.039 172.208 202.736 164.52 202.736 164.52C207.78 163.892 208.169 159.023 207.591 155.034C210.386 156.699 214.326 156.815 219.859 153.253C235.731 143.071 252.007 148.584 257.729 149.432C260.282 149.806 263.077 148.905 265.394 147.851C265.693 148.389 266.11 148.852 266.613 149.205C270.475 151.904 273.66 155.465 275.917 159.608C290.812 187.533 274.483 202.362 268.835 206.373Z" fill="#8BE386"/>
<path d="M209.377 330.387H215.366C217.928 330.384 220.384 329.362 222.195 327.545C224.006 325.728 225.026 323.265 225.028 320.696V313.971C225.028 313.358 224.908 312.751 224.674 312.185C224.44 311.619 224.097 311.105 223.664 310.671C223.232 310.238 222.719 309.895 222.154 309.661C221.59 309.427 220.984 309.307 220.373 309.308H184.552C184.554 310.739 184.273 312.156 183.728 313.479C183.183 314.801 182.382 316.003 181.373 317.015C180.364 318.026 179.165 318.829 177.846 319.376C176.528 319.922 175.114 320.202 173.687 320.2H44.248C44.2496 322.902 45.3198 325.492 47.2244 327.402C49.1284 329.312 51.7106 330.385 54.4038 330.387H229.883C230.112 330.387 230.339 330.343 230.551 330.255C230.763 330.167 230.956 330.039 231.118 329.876C231.28 329.713 231.409 329.52 231.496 329.308C231.583 329.095 231.628 328.867 231.627 328.637V317.723C231.627 315.603 232.467 313.57 233.961 312.071C235.456 310.571 237.484 309.729 239.597 309.729C241.711 309.729 243.738 310.571 245.233 312.071C246.728 313.57 247.567 315.603 247.567 317.723V328.637C247.567 328.867 247.611 329.094 247.698 329.307C247.785 329.518 247.913 329.711 248.075 329.874C248.236 330.036 248.428 330.166 248.64 330.254C248.851 330.342 249.077 330.387 249.306 330.387H462.34C462.34 330.387 455.836 237.327 396.057 192.064C338.207 148.261 284.045 169.372 280.609 170.784L280.441 170.848" stroke="#3CA629" stroke-width="4.83" stroke-miterlimit="10"/>
<path d="M220.71 193.561C220.708 194.146 220.533 194.718 220.208 195.203C219.882 195.689 219.421 196.067 218.881 196.29C218.342 196.512 217.749 196.57 217.177 196.454C216.605 196.34 216.08 196.057 215.668 195.643C215.256 195.229 214.975 194.702 214.862 194.128C214.748 193.554 214.806 192.96 215.029 192.419C215.252 191.878 215.63 191.416 216.114 191.09C216.599 190.765 217.169 190.59 217.752 190.589C217.981 190.59 218.208 190.619 218.43 190.673C218.124 190.77 217.857 190.963 217.668 191.223C217.479 191.482 217.378 191.796 217.379 192.117C217.378 192.319 217.416 192.519 217.492 192.707C217.568 192.893 217.68 193.063 217.822 193.207C217.963 193.35 218.132 193.464 218.317 193.542C218.502 193.62 218.702 193.661 218.903 193.661C219.271 193.654 219.625 193.518 219.903 193.276C220.181 193.035 220.367 192.703 220.426 192.339C220.608 192.721 220.704 193.138 220.71 193.561Z" fill="#3CA629"/>
<path d="M241.205 194.388C241.206 194.976 241.033 195.551 240.708 196.041C240.383 196.53 239.921 196.912 239.379 197.137C238.838 197.364 238.242 197.423 237.667 197.309C237.091 197.195 236.563 196.912 236.148 196.497C235.733 196.081 235.451 195.552 235.336 194.975C235.221 194.398 235.279 193.801 235.503 193.257C235.727 192.713 236.107 192.249 236.595 191.922C237.082 191.595 237.655 191.421 238.241 191.421C238.383 191.42 238.524 191.436 238.662 191.468C238.4 191.589 238.178 191.783 238.022 192.027C237.866 192.271 237.784 192.554 237.784 192.844C237.766 193.249 237.909 193.645 238.182 193.944C238.455 194.244 238.836 194.422 239.24 194.44C239.644 194.459 240.038 194.315 240.337 194.041C240.636 193.767 240.814 193.386 240.832 192.981C241.074 193.41 241.203 193.894 241.205 194.388Z" fill="#3CA629"/>
<path d="M264.842 143.677C264.501 145.986 264.926 148.009 266.618 149.211C270.48 151.91 273.666 155.47 275.923 159.613C293.691 192.914 267.038 207.569 267.038 207.569L263.434 201.245C273.811 195.933 274.872 185.531 266.618 182.98C258.364 180.429 255.617 192.113 255.617 192.113L253.725 170.216C253.725 170.216 249.9 168.314 239.54 170.011C229.179 171.708 227.272 177.447 222.822 174.901C218.372 172.356 215.85 172.561 215.85 172.561C214.584 177.225 211.195 177.225 211.195 177.225C201.265 175.955 198.933 162.175 198.933 162.175C203.971 161.542 204.36 156.673 203.787 152.689C206.577 154.354 210.523 154.475 216.055 150.908C231.927 140.726 248.203 146.244 253.92 147.092C257.87 147.667 262.405 145.243 264.842 143.677Z" stroke="#3CA629" stroke-width="4.83" stroke-linecap="round" stroke-linejoin="round"/>
<path d="M274.005 308.813L277.93 307.232L280.872 315.194L280.409 329.644L276.432 330.366L261.338 329.713C261.338 329.713 262.389 320.902 265.599 316.712C268.809 312.523 274.005 308.813 274.005 308.813Z" fill="#8BE386"/>
<path d="M205.279 182.095C205.279 182.095 209.299 174.859 217.757 175.613" stroke="#3CA629" stroke-width="4.83" stroke-miterlimit="10"/>
<path d="M234.322 175.611C234.322 175.611 243.989 173.435 247.373 178.826" stroke="#3CA629" stroke-width="4.83" stroke-miterlimit="10"/>
<path d="M249.302 208.369C249.302 208.369 243.522 205.013 239.293 210.657" stroke="#3CA629" stroke-width="4.83" stroke-miterlimit="10"/>
<path d="M212.782 176.772C212.782 176.772 208.668 225.312 239.345 224.417C244.599 224.264 249.821 220.802 254.813 215.231" stroke="#3CA629" stroke-width="4.83" stroke-miterlimit="10"/>
<path d="M267.038 219.646L254.812 215.23C254.812 215.23 257.844 224.948 272.86 225.691C287.875 226.434 292.914 191.869 281.88 177.962" stroke="#3CA629" stroke-width="4.83" stroke-linejoin="round"/>
<path d="M314.838 317.022C314.838 317.022 303.631 326.144 311.244 330.386" stroke="#3CA629" stroke-width="4.83" stroke-miterlimit="10"/>
<path d="M306.17 308.533C306.17 308.533 286.73 319.568 303.422 330.387" stroke="#3CA629" stroke-width="4.83" stroke-miterlimit="10"/>
<path d="M299.612 300.049C299.612 300.049 273.81 312.17 293.691 330.388" stroke="#3CA629" stroke-width="4.83" stroke-miterlimit="10"/>
<path d="M408.115 330.387C408.115 330.387 439.417 330.387 439.837 300.048C440.258 269.71 379.139 193.529 339.588 182.931C300.037 172.334 298.34 201.376 298.34 202.567C298.34 203.758 296.018 216.268 306.169 229.617C314.007 239.935 348.63 265.694 363.993 276.887C364.557 277.3 364.983 277.873 365.214 278.534C365.445 279.195 365.47 279.91 365.286 280.585C365.102 281.26 364.717 281.863 364.183 282.313C363.648 282.763 362.99 283.04 362.296 283.106L294.353 289.651H294.311C293.67 289.767 269.691 294.204 262.388 301.74C262.388 301.74 258.295 304.781 260.413 309.45C262.53 314.119 269.034 312.58 269.213 312.406" stroke="#3CA629" stroke-width="4.83" stroke-miterlimit="10"/>
<path opacity="0.26" d="M238.247 199.9C242.919 199.9 246.706 196.102 246.706 191.416C246.706 186.73 242.919 182.931 238.247 182.931C233.575 182.931 229.788 186.73 229.788 191.416C229.788 196.102 233.575 199.9 238.247 199.9Z" fill="white"/>
<path opacity="0.26" d="M216.78 199.062C221.452 199.062 225.239 195.264 225.239 190.578C225.239 185.892 221.452 182.094 216.78 182.094C212.108 182.094 208.321 185.892 208.321 190.578C208.321 195.264 212.108 199.062 216.78 199.062Z" fill="white"/>
<path d="M289.898 307.475C286.924 306.642 282.064 305.894 277.057 307.506C274.609 308.297 272.35 309.587 270.422 311.295C270.001 311.664 269.597 312.038 269.208 312.413C268.37 313.237 267.579 314.107 266.839 315.021C266.741 315.142 266.603 315.222 266.45 315.248C264.585 315.506 252.306 317.456 252.369 323.679C252.427 329.271 258.532 330.188 260.634 330.335C260.72 330.343 260.808 330.333 260.89 330.306C260.973 330.278 261.049 330.234 261.113 330.175C261.178 330.117 261.23 330.045 261.266 329.966C261.302 329.887 261.321 329.8 261.322 329.713C261.322 327.721 261.774 321.477 266.686 315.195" stroke="#3CA629" stroke-width="4.83" stroke-miterlimit="10"/>
<path d="M179.272 263.549C180.712 275.19 171.691 280.455 161.83 281.235" stroke="#3CA629" stroke-width="4.83" stroke-miterlimit="10"/>
<path d="M147.497 278.806C143.737 276.769 140.691 273.622 138.772 269.792C136.853 265.961 136.154 261.632 136.769 257.39C138.345 246.191 147.802 237.601 157.059 232.152C176.498 220.711 220.305 228.99 227.666 230.677C233.308 231.973 238.026 227.546 239.939 225.407C240.02 225.316 240.125 225.25 240.242 225.218C240.36 225.186 240.484 225.188 240.6 225.223C240.716 225.26 240.819 225.328 240.898 225.422C240.976 225.515 241.026 225.628 241.042 225.749C245.082 249.464 292.005 281.652 302.859 288.856" stroke="#3CA629" stroke-width="4.83" stroke-miterlimit="10"/>
<path d="M191.109 255.499L175.574 265.169C174.648 265.747 173.611 266.124 172.532 266.276C171.451 266.428 170.352 266.35 169.303 266.049C168.254 265.748 167.28 265.23 166.444 264.529C165.607 263.827 164.927 262.957 164.446 261.975C163.58 260.211 163.408 258.185 163.965 256.3C164.522 254.415 165.767 252.809 167.451 251.804L191.094 237.676" stroke="#3CA629" stroke-width="4.83" stroke-miterlimit="10"/>
<path d="M238.247 199.9C242.919 199.9 246.706 196.102 246.706 191.416C246.706 186.73 242.919 182.931 238.247 182.931C233.575 182.931 229.788 186.73 229.788 191.416C229.788 196.102 233.575 199.9 238.247 199.9Z" stroke="#3CA629" stroke-width="4.83" stroke-miterlimit="10"/>
<path d="M216.779 197.792C220.752 197.792 223.972 194.562 223.972 190.578C223.972 186.593 220.752 183.364 216.779 183.364C212.807 183.364 209.587 186.593 209.587 190.578C209.587 194.562 212.807 197.792 216.779 197.792Z" stroke="white" stroke-width="4.83" stroke-miterlimit="10"/>
<path d="M216.78 199.062C221.452 199.062 225.239 195.264 225.239 190.578C225.239 185.892 221.452 182.094 216.78 182.094C212.108 182.094 208.321 185.892 208.321 190.578C208.321 195.264 212.108 199.062 216.78 199.062Z" stroke="#3CA629" stroke-width="4.83" stroke-miterlimit="10"/>
<path d="M229.83 190.579H225.238" stroke="#3CA629" stroke-width="4.83" stroke-miterlimit="10"/>
<path d="M229.83 202.568H226.804C226.614 202.568 226.426 202.526 226.253 202.445C226.081 202.364 225.929 202.245 225.807 202.098C225.686 201.951 225.598 201.78 225.55 201.595C225.503 201.41 225.497 201.217 225.533 201.029L227.534 190.579" stroke="#3CA629" stroke-width="4.83" stroke-miterlimit="10"/>
<path d="M169.111 231.525C169.111 231.525 158.325 233.86 154.521 250.196C152.21 260.114 149.036 272.767 146.903 281.178C146.629 282.256 146.605 283.384 146.832 284.473C147.059 285.563 147.531 286.587 148.212 287.466C148.893 288.345 149.766 289.056 150.762 289.545C151.759 290.035 152.854 290.289 153.964 290.289C155.621 290.289 157.23 289.723 158.523 288.683C159.816 287.644 160.717 286.193 161.078 284.571L165.591 264.261" stroke="#3CA629" stroke-width="4.83" stroke-miterlimit="10"/>
<path d="M178.973 269.711C178.973 269.711 190.295 262.924 212.598 269.711C234.901 276.499 260.539 281.105 268.998 263.103" stroke="#3CA629" stroke-width="4.83" stroke-miterlimit="10"/>
<path d="M277.062 307.506C277.062 307.506 284.943 316.528 280.152 330.387" stroke="#3CA629" stroke-width="4.83" stroke-miterlimit="10"/>
<path d="M16.6444 195.316H141.161C145.172 195.31 149.067 196.659 152.221 199.144C155.374 201.63 157.602 205.108 158.546 209.017L178.369 291.364C178.904 293.586 178.929 295.901 178.443 298.133C177.957 300.367 176.972 302.461 175.562 304.256C174.152 306.052 172.355 307.504 170.305 308.502C168.255 309.5 166.005 310.019 163.726 310.019H39.5302C35.5273 310.023 31.6389 308.678 28.4892 306.2C25.3398 303.722 23.1111 300.255 22.161 296.354L2.01765 214.024C1.47371 211.799 1.44104 209.48 1.92203 207.241C2.40302 205.003 3.38512 202.903 4.79405 201.101C6.20303 199.299 8.00201 197.842 10.055 196.839C12.108 195.837 14.3612 195.316 16.6444 195.316Z" fill="#8BE386"/>
<path d="M21.1786 198.858H138.003C141.767 198.863 145.42 200.134 148.377 202.469C151.335 204.803 153.427 208.065 154.317 211.733L172.926 288.983C173.428 291.067 173.453 293.239 172.997 295.334C172.541 297.429 171.618 299.393 170.295 301.078C168.973 302.763 167.287 304.125 165.363 305.062C163.44 305.998 161.33 306.484 159.192 306.484H42.6511C38.8993 306.476 35.2579 305.21 32.3068 302.887C29.3552 300.563 27.2634 297.316 26.3641 293.663L7.45023 216.407C6.9395 214.32 6.90872 212.144 7.36023 210.043C7.8117 207.942 8.73364 205.972 10.0563 204.281C11.3789 202.591 13.0675 201.224 14.9944 200.284C16.9214 199.345 19.0361 198.857 21.1786 198.858Z" fill="#8BE386"/>
<path d="M16.6444 195.316H141.161C145.172 195.31 149.067 196.659 152.221 199.144C155.374 201.63 157.602 205.108 158.546 209.017L178.369 291.364C178.904 293.586 178.929 295.901 178.443 298.133C177.957 300.367 176.972 302.461 175.562 304.256C174.152 306.052 172.355 307.504 170.305 308.502C168.255 309.5 166.005 310.019 163.726 310.019H39.5302C35.5273 310.023 31.6389 308.678 28.4892 306.2C25.3398 303.722 23.1111 300.255 22.161 296.354L2.01765 214.024C1.47371 211.799 1.44104 209.48 1.92203 207.241C2.40302 205.003 3.38512 202.903 4.79405 201.101C6.20303 199.299 8.00201 197.842 10.055 196.839C12.108 195.837 14.3612 195.316 16.6444 195.316Z" stroke="#3CA629" stroke-width="4.83" stroke-miterlimit="10"/>
<path d="M74.9621 250.165L67.5384 215.452C67.3845 214.718 66.9831 214.059 66.4026 213.587C65.822 213.113 65.0975 212.855 64.3493 212.854H27.6143C27.1202 212.856 26.6328 212.969 26.1891 213.188C25.7454 213.406 25.3569 213.722 25.0532 214.113C24.7495 214.504 24.5384 214.959 24.436 215.444C24.3336 215.929 24.3424 216.431 24.462 216.912L33.0521 252.03C33.1587 252.52 33.3862 252.974 33.7141 253.353C34.0083 253.728 34.3829 254.031 34.8106 254.24C35.2382 254.449 35.7079 254.558 36.1834 254.56H36.2517L71.8046 254.138C72.2848 254.131 72.7571 254.018 73.1884 253.806C73.6198 253.595 73.9996 253.291 74.3002 252.915C74.6065 252.534 74.8245 252.09 74.939 251.615C75.0536 251.139 75.0614 250.644 74.9621 250.165ZM26.9156 216.29C26.8889 216.186 26.8864 216.078 26.9083 215.972C26.9301 215.867 26.9758 215.769 27.0417 215.684C27.1091 215.596 27.1958 215.524 27.2951 215.475C27.3943 215.426 27.5035 215.4 27.6143 215.399H64.3493C64.5148 215.399 64.6756 215.455 64.8038 215.56C64.9325 215.665 65.0203 215.811 65.0534 215.974L70.7065 242.413C51.8294 224.131 49.6911 245.105 49.6911 245.105C39.0362 239.54 35.9575 245.632 35.0643 249.643L26.9156 216.29Z" fill="#45CA3D"/>
<path d="M37.5233 228.891C39.5723 228.253 40.5443 225.528 39.7037 222.804C38.863 220.079 36.5146 218.393 34.4498 219.031C32.385 219.668 31.4288 222.393 32.2747 225.112C33.1206 227.831 35.4796 229.528 37.5233 228.891Z" fill="#45CA3D"/>
<path d="M46.5178 228.268H58.5701C60.0675 228.268 61.5701 228.268 63.0674 228.268H63.2828C63.7042 228.28 64.1235 228.201 64.5122 228.037C64.7807 227.903 65.0093 227.7 65.1737 227.449C65.3387 227.198 65.4338 226.908 65.4501 226.607C65.4658 226.307 65.4023 226.008 65.2651 225.74C65.128 225.473 64.9226 225.247 64.6699 225.085C64.3867 224.956 64.1287 224.778 63.9081 224.558C63.762 224.327 63.6616 224.069 63.6138 223.8C63.3354 223.037 62.7979 222.397 62.0955 221.992C61.5843 221.647 61.0095 221.41 60.4042 221.293C59.7995 221.176 59.1775 221.183 58.5754 221.312C57.9812 221.463 57.4374 221.768 56.9992 222.198C56.6262 222.566 56.5526 223.062 56.2637 223.473C56.0745 223.742 55.9537 223.657 55.6963 223.51C55.4388 223.362 55.297 223.252 55.0868 223.146C54.6723 222.924 54.242 222.732 53.7996 222.572C52.8986 222.237 51.9377 222.095 50.9783 222.155C49.2918 222.287 47.6106 223.294 47.0221 224.885C46.492 224.893 45.9813 225.089 45.5831 225.44C45.1843 225.79 44.9232 226.272 44.847 226.798C44.8124 227.001 44.8255 227.21 44.8854 227.406C44.9458 227.603 45.0514 227.783 45.1938 227.931C45.5768 228.207 46.0496 228.327 46.5178 228.268Z" fill="#45CA3D"/>
<path d="M132.923 227.519L131.956 223.53C131.308 220.848 129.779 218.463 127.616 216.758C125.453 215.052 122.781 214.126 120.03 214.128H106.753C105.239 214.127 103.744 214.476 102.385 215.148C101.027 215.821 99.8418 216.798 98.9213 218.005C98.0013 219.212 97.3714 220.616 97.0803 222.107C96.7893 223.598 96.8455 225.137 97.2437 226.602L98.3418 230.655C99.0432 233.262 100.582 235.565 102.72 237.206C104.858 238.848 107.476 239.736 110.168 239.735H123.366C124.856 239.734 126.328 239.393 127.668 238.738C129.008 238.083 130.183 237.132 131.103 235.956C132.023 234.779 132.665 233.409 132.98 231.947C133.296 230.486 133.276 228.972 132.923 227.519ZM118.322 228.505L113.788 231.303C113.614 231.414 113.416 231.484 113.21 231.505C113.004 231.527 112.796 231.5 112.602 231.428C112.408 231.356 112.234 231.239 112.092 231.087C111.95 230.936 111.846 230.753 111.786 230.555L110.079 224.958C110.007 224.71 110.007 224.446 110.079 224.198C110.151 223.949 110.292 223.726 110.485 223.556C110.678 223.384 110.916 223.272 111.171 223.231C111.425 223.19 111.686 223.223 111.923 223.324L118.212 226.112C118.437 226.214 118.63 226.375 118.769 226.579C118.909 226.783 118.989 227.021 119.003 227.268C119.017 227.515 118.962 227.761 118.846 227.979C118.729 228.197 118.555 228.379 118.343 228.505H118.322Z" fill="white"/>
<path d="M129.96 263.354H106.733C105.669 263.352 104.629 263.04 103.739 262.456C102.849 261.873 102.148 261.042 101.72 260.066C101.588 259.765 101.517 259.441 101.51 259.112C101.516 258.476 101.771 257.869 102.221 257.421C102.67 256.973 103.278 256.721 103.911 256.719H128.604C127.443 258.69 128.032 261.415 129.96 263.354Z" fill="#45CA3D"/>
<path d="M145.007 260.961C145.005 261.596 144.753 262.204 144.306 262.652C143.86 263.1 143.253 263.353 142.621 263.354H129.96C128.031 261.415 127.443 258.69 128.604 256.719H139.753C140.815 256.72 141.853 257.03 142.743 257.61C143.632 258.191 144.335 259.018 144.765 259.992C144.911 260.295 144.992 260.625 145.007 260.961Z" fill="#8BE386"/>
<path d="M139.17 263.354C139.104 263.481 139.028 263.603 138.944 263.718C137.283 265.989 133.69 266.2 130.9 264.155C130.567 263.913 130.252 263.645 129.96 263.354C128.031 261.415 127.443 258.691 128.604 256.72C128.669 256.594 128.745 256.475 128.83 256.361C130.474 254.074 134.084 253.874 136.858 255.903C137.194 256.152 137.512 256.425 137.809 256.72C139.753 258.659 140.315 261.383 139.17 263.354Z" fill="white"/>
<path d="M150.823 275.613C150.817 276.249 150.562 276.856 150.112 277.304C149.663 277.752 149.055 278.004 148.422 278.006H56.3635C57.5404 276.024 56.952 273.31 55.0186 271.376H145.6C146.663 271.376 147.702 271.686 148.591 272.269C149.481 272.852 150.181 273.683 150.607 274.659C150.743 274.959 150.817 275.284 150.823 275.613Z" fill="#8BE386"/>
<path d="M56.3634 277.979H44.8942C43.8324 277.979 42.7937 277.67 41.9037 277.089C41.0142 276.508 40.3118 275.68 39.882 274.706C39.747 274.401 39.6756 274.071 39.6719 273.737C39.6714 273.423 39.7323 273.112 39.8521 272.821C39.9719 272.531 40.1474 272.267 40.3691 272.046C40.5908 271.823 40.854 271.648 41.144 271.528C41.4335 271.409 41.744 271.348 42.0571 271.349H55.0184C56.9518 273.283 57.5403 275.997 56.3634 277.979Z" fill="#45CA3D"/>
<path d="M56.3637 277.979C56.3096 278.109 56.2392 278.231 56.1535 278.343C54.5091 280.63 50.8997 280.825 48.1204 278.796C47.7857 278.547 47.4694 278.274 47.1747 277.979C45.257 276.04 44.6686 273.331 45.8139 271.349C45.8775 271.221 45.9531 271.1 46.0398 270.986C47.7001 268.714 51.2937 268.504 54.0835 270.543C54.4166 270.786 54.7292 271.056 55.0187 271.349C56.9521 273.283 57.5405 275.997 56.3637 277.979Z" fill="white"/>
<path d="M64.4863 292.477H49.9121C48.8508 292.476 47.8121 292.166 46.9226 291.585C46.0331 291.004 45.3307 290.177 44.8999 289.204C44.7554 288.91 44.6729 288.588 44.6582 288.261C44.6598 287.624 44.9125 287.014 45.3617 286.563C45.8104 286.113 46.4188 285.859 47.054 285.858H63.115C61.996 287.85 62.5686 290.558 64.4863 292.477Z" fill="#8BE386"/>
<path d="M155.819 290.121C155.811 290.754 155.553 291.357 155.102 291.798C154.651 292.24 154.044 292.484 153.413 292.477H64.4862C62.5685 290.538 61.9801 287.829 63.1254 285.848H150.597C151.659 285.847 152.699 286.158 153.588 286.741C154.478 287.324 155.178 288.154 155.604 289.131C155.743 289.443 155.816 289.78 155.819 290.121Z" fill="#45CA3D"/>
<path d="M73.691 292.477C73.6274 292.605 73.5517 292.726 73.465 292.84C71.8206 295.127 68.2112 295.322 65.4371 293.293C65.1009 293.045 64.783 292.772 64.4862 292.477C62.5685 290.537 61.9801 287.829 63.1254 285.847C63.1911 285.721 63.2668 285.599 63.3514 285.484C65.0116 283.212 68.6052 283.012 71.395 285.041C71.7292 285.283 72.0418 285.553 72.3302 285.847C74.2636 287.802 74.8521 290.527 73.691 292.477Z" fill="white"/>
<g opacity="0.21">
<path opacity="0.21" d="M76.2338 251.434L68.8258 216.721C68.6724 215.987 68.2715 215.328 67.6905 214.856C67.1099 214.384 66.3843 214.127 65.6367 214.128H28.8965C28.3989 214.128 27.9082 214.243 27.4618 214.463C27.0155 214.683 26.6255 215.003 26.3221 215.398C26.0211 215.786 25.8126 216.237 25.7124 216.717C25.6122 217.198 25.6231 217.695 25.7441 218.17L34.3342 253.294C34.4393 253.783 34.6647 254.238 34.9909 254.617C35.2862 254.991 35.6624 255.294 36.0906 255.502C36.5193 255.711 36.9895 255.818 37.4655 255.818H37.5496L73.0972 255.391C73.5764 255.385 74.0482 255.273 74.4784 255.063C74.9093 254.853 75.2881 254.549 75.5875 254.174C75.8896 253.793 76.104 253.35 76.2159 252.876C76.3273 252.403 76.3336 251.91 76.2338 251.434ZM28.1819 217.564C28.1551 217.46 28.153 217.351 28.1761 217.246C28.1987 217.141 28.246 217.042 28.3133 216.958C28.3789 216.87 28.4646 216.798 28.5634 216.749C28.6616 216.699 28.7704 216.673 28.8807 216.674H65.6157C65.7812 216.673 65.942 216.729 66.0712 216.832C66.2005 216.936 66.2898 217.081 66.325 217.243L71.9781 243.682C53.0957 225.395 50.9627 246.375 50.9627 246.375C40.3131 240.81 37.2291 246.902 36.3412 250.912L28.1819 217.564Z" fill="#45CA3D"/>
<path opacity="0.21" d="M38.7947 230.16C40.8385 229.523 41.8157 226.798 40.9698 224.079C40.1239 221.36 37.786 219.663 35.716 220.3C33.6459 220.938 32.695 223.663 33.5356 226.387C34.3762 229.112 36.7772 230.819 38.7947 230.16Z" fill="#45CA3D"/>
<path opacity="0.21" d="M47.8103 229.542H59.8574C61.36 229.542 62.8574 229.542 64.36 229.542H64.5702C64.992 229.554 65.4108 229.475 65.7996 229.31C66.0696 229.178 66.2992 228.976 66.4647 228.725C66.6307 228.473 66.7269 228.182 66.7426 227.882C66.7589 227.581 66.6943 227.281 66.5561 227.013C66.4185 226.745 66.2115 226.52 65.9572 226.359C65.6766 226.226 65.4197 226.048 65.1954 225.832C65.0535 225.597 64.9542 225.338 64.9012 225.068C64.6227 224.308 64.0873 223.67 63.388 223.266C62.8768 222.92 62.3005 222.681 61.6947 222.564C61.089 222.447 60.4658 222.455 59.8627 222.586C59.2785 222.738 58.7452 223.043 58.3181 223.471C57.9398 223.84 57.8715 224.33 57.5825 224.747C57.3934 225.015 57.2725 224.931 57.0151 224.778C56.7577 224.625 56.6158 224.525 56.4057 224.415C55.9911 224.194 55.5608 224.004 55.1185 223.845C54.2174 223.51 53.2565 223.366 52.2971 223.424C50.6106 223.556 48.9294 224.567 48.3357 226.154C47.8056 226.163 47.296 226.36 46.8983 226.712C46.5006 227.063 46.241 227.546 46.1659 228.072C46.1317 228.275 46.1454 228.482 46.2042 228.679C46.2636 228.875 46.3671 229.055 46.5074 229.205C46.8867 229.471 47.3496 229.592 47.8103 229.542Z" fill="#45CA3D"/>
<path opacity="0.21" d="M134.215 228.789L133.249 224.805C132.599 222.122 131.07 219.737 128.906 218.03C126.742 216.324 124.069 215.397 121.317 215.398H108.019C106.506 215.397 105.014 215.746 103.657 216.418C102.3 217.09 101.115 218.066 100.196 219.271C99.276 220.475 98.6455 221.877 98.3529 223.366C98.0608 224.855 98.1144 226.392 98.51 227.856L99.608 231.914C100.31 234.522 101.85 236.825 103.989 238.466C106.128 240.108 108.747 240.996 111.44 240.994H124.637C126.128 240.995 127.6 240.656 128.941 240.003C130.283 239.35 131.459 238.4 132.381 237.225C133.304 236.049 133.948 234.68 134.265 233.218C134.583 231.758 134.566 230.243 134.215 228.789ZM119.609 229.764L115.06 232.578C114.885 232.69 114.688 232.759 114.482 232.78C114.277 232.802 114.069 232.776 113.875 232.703C113.682 232.631 113.508 232.514 113.367 232.363C113.226 232.211 113.122 232.029 113.063 231.83L111.382 226.228C111.312 225.98 111.313 225.717 111.385 225.47C111.458 225.222 111.598 225.001 111.792 224.83C111.985 224.66 112.222 224.547 112.476 224.507C112.73 224.466 112.99 224.498 113.226 224.6L119.468 227.382C119.689 227.485 119.878 227.646 120.016 227.848C120.154 228.05 120.234 228.286 120.248 228.531C120.263 228.775 120.212 229.019 120.099 229.236C119.986 229.453 119.817 229.635 119.609 229.764Z" fill="#45CA3D"/>
<path opacity="0.21" d="M131.231 264.623H108.004C106.942 264.621 105.903 264.31 105.013 263.727C104.123 263.145 103.421 262.315 102.992 261.34C102.828 260.976 102.759 260.577 102.79 260.179C102.821 259.781 102.952 259.397 103.171 259.063C103.389 258.73 103.688 258.457 104.04 258.27C104.392 258.082 104.784 257.988 105.183 257.994H129.876C128.72 259.96 129.298 262.689 131.231 264.623Z" fill="#45CA3D"/>
<path opacity="0.21" d="M146.247 262.23C146.247 262.864 145.996 263.472 145.55 263.92C145.104 264.369 144.498 264.622 143.867 264.623H131.231C129.298 262.689 128.709 259.959 129.87 257.993H141.024C142.086 257.993 143.125 258.302 144.015 258.883C144.905 259.464 145.607 260.292 146.037 261.266C146.171 261.57 146.243 261.898 146.247 262.23Z" fill="#8BE386"/>
<path opacity="0.21" d="M140.436 264.624C140.374 264.753 140.298 264.875 140.21 264.988C138.55 267.259 134.956 267.47 132.166 265.43C131.834 265.186 131.522 264.916 131.231 264.624C129.298 262.69 128.709 259.96 129.87 257.994C129.936 257.866 130.013 257.745 130.102 257.631C131.746 255.344 135.356 255.149 138.13 257.178C138.466 257.426 138.784 257.699 139.081 257.994C140.998 259.934 141.587 262.642 140.436 264.624Z" fill="white"/>
<path opacity="0.21" d="M152.089 276.86C152.083 277.495 151.828 278.102 151.378 278.549C150.929 278.996 150.321 279.247 149.688 279.247H57.635C58.8119 277.265 58.2235 274.557 56.29 272.617H146.867C147.931 272.617 148.971 272.928 149.861 273.513C150.752 274.097 151.453 274.928 151.879 275.906C152.014 276.206 152.085 276.531 152.089 276.86Z" fill="#8BE386"/>
<path opacity="0.21" d="M57.6353 279.247H46.1608C45.1001 279.246 44.0619 278.938 43.1724 278.358C42.2829 277.778 41.58 276.952 41.1486 275.98C41.0168 275.673 40.9453 275.344 40.9385 275.01C40.9385 274.375 41.1896 273.767 41.6372 273.318C42.0843 272.87 42.6912 272.617 43.3237 272.617H56.2903C58.2237 274.557 58.8121 277.265 57.6353 279.247Z" fill="#45CA3D"/>
<path opacity="0.21" d="M57.635 279.248C57.5809 279.379 57.5084 279.502 57.4196 279.612C55.7752 281.899 52.1658 282.099 49.3917 280.07C49.0549 279.82 48.7371 279.545 48.4408 279.248C46.5231 277.314 45.9347 274.6 47.0853 272.619C47.1473 272.49 47.2229 272.368 47.3112 272.255C48.9714 269.984 52.565 269.773 55.3548 271.818C55.6853 272.062 55.9979 272.33 56.29 272.619C58.2235 274.558 58.8119 277.267 57.635 279.248Z" fill="white"/>
<path opacity="0.21" d="M65.7521 293.766H51.1569C50.0962 293.764 49.059 293.454 48.1696 292.875C47.2806 292.295 46.5771 291.47 46.1447 290.498C46.0129 290.197 45.9414 289.873 45.9346 289.545C45.9372 288.907 46.191 288.296 46.6407 287.845C47.0904 287.394 47.6999 287.139 48.3356 287.136H64.3967C63.2461 289.118 63.8345 291.832 65.7521 293.766Z" fill="#8BE386"/>
<path opacity="0.21" d="M157.091 291.389C157.09 291.703 157.028 292.012 156.907 292.301C156.787 292.591 156.611 292.853 156.39 293.074C156.168 293.295 155.905 293.47 155.616 293.588C155.327 293.707 155.018 293.767 154.705 293.766H65.7523C63.8346 291.832 63.2462 289.118 64.3968 287.136H151.863C152.927 287.136 153.968 287.447 154.858 288.031C155.748 288.615 156.449 289.447 156.875 290.425C157.012 290.728 157.085 291.056 157.091 291.389Z" fill="#45CA3D"/>
<path opacity="0.21" d="M74.9623 293.767C74.8966 293.895 74.8194 294.017 74.7311 294.131C73.0867 296.418 69.4773 296.618 66.7032 294.589C66.3665 294.339 66.0486 294.064 65.7523 293.767C63.8346 291.833 63.2462 289.119 64.3968 287.137C64.4588 287.008 64.5344 286.887 64.6227 286.774C66.2829 284.503 69.8766 284.308 72.6664 286.336C72.9968 286.58 73.3094 286.848 73.6016 287.137C75.535 289.077 76.1234 291.801 74.9623 293.767Z" fill="white"/>
</g>
</g>
<defs>
<clipPath id="clip0_196_222">
<rect width="476" height="332" fill="white"/>
</clipPath>
</defs>
</svg>
