<svg width="424" height="372" viewBox="0 0 424 372" fill="none" xmlns="http://www.w3.org/2000/svg">
<g clip-path="url(#clip0_196_302)">
<path d="M84.8002 116.216C84.8002 116.216 59.4403 41.0233 147.896 50.2006C236.352 59.3779 194.089 26.0961 227.514 5.44258C260.939 -15.211 359.425 49.044 318.222 111.019C277.018 172.994 384.069 116.301 406.399 209.5C420.179 267.013 385.991 309.345 357.785 333.341" stroke="#E0E0E0" stroke-width="5.47" stroke-miterlimit="10"/>
<path d="M366.411 261.487C359.764 222.913 336.227 188.394 297.987 176.04C288.205 172.897 278.202 170.491 268.062 168.841V168.893C267.534 172.095 266.281 175.134 264.402 177.777C260.416 183.249 254.923 187.743 248.563 190.084C242.071 192.492 234.029 192.804 228.004 189.018C224.376 186.742 220.857 182.734 220.221 178.41C219.495 173.538 221.973 168.926 225.46 165.706C195.911 165.947 168.116 170.819 145.842 176.366C146.614 179.605 147.683 182.765 149.036 185.807C150.929 190.048 153.605 193.892 156.922 197.137C161.06 193.03 164.683 188.433 167.711 183.447C170.607 184.397 173.162 186.179 175.055 188.572C176.949 190.965 178.099 193.863 178.363 196.906V197.062C179.531 208.113 168.912 216.417 159.989 221.525C149.681 227.464 138.191 231.911 126.903 235.607C122.249 237.137 116.199 238.44 111.286 236.844C110.757 236.675 110.24 236.468 109.741 236.226C104.841 233.818 101.562 228.771 99.0039 224.159C91.7158 211.059 86.9765 196.779 83.7635 182.12C61.4658 184.977 58.9124 169.846 57.5886 166.136L38.5133 219.571C37.5126 223.411 37.4047 227.431 38.1967 231.321C38.9891 235.21 40.6611 238.866 43.084 242.007C45.5064 245.148 48.6158 247.69 52.1722 249.438C55.7291 251.187 59.6384 252.095 63.5999 252.092H142.568L178.438 344.29L188.605 370.457H246.674C241.963 370.457 239.386 369.305 237.515 367.426C235.584 365.49 234.496 362.866 234.491 360.128C234.491 354.463 239.131 349.818 246.674 349.818H247.206C246.636 349.818 246.09 349.766 245.52 349.714C245.873 349.676 246.223 349.617 246.57 349.539C246.196 349.53 245.824 349.502 245.454 349.454C248.855 349.052 252.008 347.464 254.36 344.968C256.712 342.473 258.113 339.228 258.32 335.802C258.329 335.624 258.329 335.446 258.32 335.268V334.994C258.239 331.482 256.898 328.115 254.545 325.511C252.191 322.906 248.981 321.237 245.501 320.808C245.896 320.775 246.273 320.742 246.655 320.742C246.311 320.657 245.929 320.605 245.571 320.554C246.137 320.502 246.707 320.464 247.253 320.464L289.738 320.69L297.554 320.723H306.83C307.259 320.723 307.692 320.723 308.102 320.775L321.882 320.846L331.087 320.898C334.935 320.93 338.612 322.488 341.317 325.231C344.021 327.973 345.531 331.677 345.518 335.533C345.513 337.713 345.008 339.862 344.043 341.816C347.993 341.31 351.655 339.479 354.436 336.623C361.064 329.839 363.919 319.685 365.893 310.659C369.384 294.58 369.177 277.637 366.411 261.487ZM259.073 262.573C251.069 274.917 237.44 273.808 237.44 273.808C237.44 273.808 236.309 274.913 233.671 270.211C231.033 265.509 223.519 262.294 223.519 262.294C222.92 267.015 221.681 274.19 209.385 264.89C197.089 255.59 200.797 242.032 201.847 234.871C202.898 227.709 207.086 225.335 207.086 225.335L212.033 222.719C212.033 222.719 197.725 219.032 197.037 218.896C196.35 218.759 183.606 208.066 196.538 205.243C209.47 202.42 229.629 213.646 233.525 215.865C237.421 218.084 260.19 237.382 260.19 237.382C260.19 237.382 267.12 250.246 259.073 262.573Z" fill="#1C610F"/>
<path d="M83.7446 182.129C83.7446 182.129 94.5284 180.816 98.5658 173.103L95.0466 192.888C95.0466 192.888 137.946 178.253 145.814 176.365C145.814 176.365 148.348 192.741 158.439 197.136L168.851 183.871C168.851 183.871 181.905 187.175 178.334 205.001C174.763 222.827 125.372 237.726 116.996 237.381C108.619 237.037 99.6022 231.872 90.3685 204.118L83.7446 182.129Z" fill="#1C610F"/>
<path d="M101.313 138.056C104.045 142.512 106.792 146.959 109.628 151.35C111.375 154.055 114.56 157.912 111.173 160.739C110.071 161.586 108.739 162.08 107.352 162.156C105.176 162.349 102.891 161.825 101.567 159.951L94.9714 148.999C93.657 146.814 91.5695 145.207 89.1254 144.494C86.6808 143.782 84.0586 144.019 81.7803 145.156" stroke="#3CA629" stroke-width="5.47" stroke-miterlimit="10"/>
<path d="M126.258 152.481C127.982 156.588 126.814 159.237 124.797 160.568C121.499 162.735 117.085 161.696 114.748 158.533L101.336 138.078" stroke="#3CA629" stroke-width="5.47" stroke-miterlimit="10"/>
<path d="M112.666 132.108C117.547 138.056 123.704 149.103 127.11 153.715C130.517 158.327 135.784 155.546 135.784 155.546C140.061 153.238 139.336 149.409 137.465 144.759C132.858 133.344 126.281 125.753 118.946 120.778C96.215 105.369 72.895 116.737 65.9555 143.334L38.5133 219.57C37.5126 223.411 37.4047 227.431 38.1967 231.321C38.9891 235.21 40.6611 238.866 43.084 242.007C45.5064 245.147 48.6158 247.69 52.1722 249.438C55.7291 251.186 59.6384 252.094 63.5999 252.092H142.568L188.619 370.461" stroke="#3CA629" stroke-width="5.47" stroke-miterlimit="10"/>
<path d="M140.862 139.524C146.515 137.56 146.256 128.524 138.233 125.474C129.372 122.104 113.637 117.336 109.684 116.146C109.659 116.127 109.63 116.116 109.599 116.113C109.321 116.028 109.128 115.957 108.977 115.924L108.756 115.853" stroke="#3CA629" stroke-width="5.47" stroke-miterlimit="10"/>
<path d="M224.39 229.865C219.443 223.908 205.903 220.532 197.065 218.899C195.58 218.619 194.226 217.863 193.206 216.746C192.186 215.628 191.557 214.208 191.412 212.7C191.309 211.683 191.427 210.656 191.756 209.688C192.283 208.203 193.292 206.938 194.622 206.095C195.952 205.253 197.526 204.883 199.091 205.043C214.167 206.573 229.713 211.327 241.213 221.566C241.213 221.566 296.96 264.195 303.617 268.345C306.363 270.016 308.926 268.042 307.065 265.418L306.481 264.417C303.204 258.782 299.326 253.521 294.915 248.725" stroke="#3CA629" stroke-width="5.47" stroke-miterlimit="10"/>
<path d="M225.422 165.7C155.311 166.286 95.0469 192.883 95.0469 192.883L101.063 159.091" stroke="#3CA629" stroke-width="5.47" stroke-miterlimit="10"/>
<path d="M334.315 349.609C334.315 349.609 326.678 347.876 324.647 354.004C322.617 360.131 320.497 369.88 335.097 370.456C349.696 371.032 341.122 368.157 340.279 363.422C339.436 358.687 334.315 349.609 334.315 349.609Z" fill="#1C610F"/>
<path d="M217.654 237.641C217.654 237.641 209.414 231.382 201.994 237.726C201.682 238.002 201.409 238.32 201.184 238.671" stroke="#3CA629" stroke-width="5.47" stroke-miterlimit="10"/>
<g opacity="0.77">
<path opacity="0.77" d="M114.72 158.511C117.076 161.679 121.485 162.713 124.769 160.541C126.762 159.219 127.93 156.585 126.248 152.516C126.554 152.964 126.832 153.361 127.106 153.724C130.507 158.355 135.779 155.565 135.779 155.565C140.056 153.257 139.336 149.428 137.465 144.774C135.635 140.163 133.234 135.802 130.319 131.791C132.227 130.002 134.493 128.194 136.881 128.987C139.458 129.846 140.179 133.085 140.471 135.785C140.608 137.041 140.744 138.282 140.881 139.538L142.944 158.025C143.632 164.162 144.32 170.389 145.813 176.379C146.586 179.618 147.654 182.779 149.008 185.821C150.901 190.062 153.576 193.906 156.894 197.151C161.032 193.043 164.655 188.446 167.682 183.461C170.579 184.41 173.133 186.193 175.027 188.586C176.92 190.979 178.071 193.877 178.334 196.92V197.075C179.503 208.127 168.884 216.431 159.961 221.539C149.653 227.478 138.163 231.925 126.875 235.621C122.22 237.15 116.171 238.453 111.257 236.858C110.728 236.689 110.212 236.482 109.712 236.239C104.813 233.832 101.534 228.785 98.9755 224.173C86.7266 202.103 81.6386 176.762 78.958 151.666C84.3193 150.925 89.6617 150.099 94.9381 148.961C94.9381 148.961 94.9381 148.999 94.9711 149.013L101.053 159.12L101.552 159.96C102.872 161.849 105.156 162.354 107.338 162.165C108.725 162.096 110.057 161.602 111.154 160.749C114.536 157.916 111.361 154.074 109.608 151.369" fill="white"/>
<path opacity="0.77" d="M114.72 158.511C117.076 161.679 121.485 162.713 124.769 160.541C126.762 159.219 127.93 156.585 126.248 152.516C126.554 152.964 126.832 153.361 127.106 153.724C130.507 158.355 135.779 155.565 135.779 155.565C140.056 153.257 139.336 149.428 137.465 144.774C135.635 140.163 133.234 135.802 130.319 131.791C132.227 130.002 134.493 128.194 136.881 128.987C139.458 129.846 140.179 133.085 140.471 135.785C140.608 137.041 140.744 138.282 140.881 139.538L142.944 158.025C143.632 164.162 144.32 170.389 145.813 176.379C146.586 179.618 147.654 182.779 149.008 185.821C150.901 190.062 153.576 193.906 156.894 197.151C161.032 193.043 164.655 188.446 167.682 183.461C170.579 184.41 173.133 186.193 175.027 188.586C176.92 190.979 178.071 193.877 178.334 196.92V197.075C179.503 208.127 168.884 216.431 159.961 221.539C149.653 227.478 138.163 231.925 126.875 235.621C122.22 237.15 116.171 238.453 111.257 236.858C110.728 236.689 110.212 236.482 109.712 236.239C104.813 233.832 101.534 228.785 98.9755 224.173C86.7266 202.103 81.6386 176.762 78.958 151.666C84.3193 150.925 89.6617 150.099 94.9381 148.961C94.9381 148.961 94.9381 148.999 94.9711 149.013L101.053 159.12L101.552 159.96C102.872 161.849 105.156 162.354 107.338 162.165C108.725 162.096 110.057 161.602 111.154 160.749C114.536 157.916 111.361 154.074 109.608 151.369" fill="#8BE386"/>
<path opacity="0.77" d="M116.166 160.008C118.253 162.84 121.819 162.481 124.769 160.541C126.549 159.361 128.01 159.706 126.507 156.066C126.785 156.462 126.823 155.122 127.068 155.419C130.106 159.554 127.105 153.71 127.105 153.71C131.345 159.078 140.574 154.022 138.883 149.872C137.093 145.401 135.208 138.792 132.82 135.488C134.704 133.703 134.342 133.968 136.74 135.389C137.384 135.803 137.923 136.363 138.314 137.022C138.706 137.682 138.94 138.423 138.996 139.189C139.189 140.988 139.383 142.711 139.576 144.467L141.413 160.99C142.03 166.48 142.643 172.027 143.976 177.371C144.665 180.26 145.621 183.08 146.831 185.793C148.517 189.527 153.935 195.744 156.894 198.591C160.573 194.932 164.983 188.205 167.682 183.734C172.864 185.33 172.638 190.296 173.006 195.721V195.862C174.052 205.724 164.573 213.131 156.63 217.696C147.424 222.997 137.168 226.963 127.091 230.268C122.936 231.637 117.537 232.817 113.151 231.372C112.678 231.223 112.216 231.037 111.771 230.82C107.399 228.667 104.468 224.168 102.184 220.047C92.1819 202.046 87.5414 181.61 84.988 161.122C84.8005 159.588 85.2146 158.043 86.1427 156.81C87.0708 155.577 88.4403 154.753 89.963 154.513C92.832 154.041 95.6917 153.568 98.5325 152.936L98.6126 152.974L104.04 161.995C105.222 163.671 105.415 162.359 107.361 162.189C108.591 162.08 110.975 161.839 111.926 161.042C114.946 158.521 113.241 157.477 111.676 155.065" fill="#8BE386"/>
</g>
<path d="M216.659 246.753C216.659 246.753 201.014 241.598 200.778 250.265" stroke="#3CA629" stroke-width="5.47" stroke-miterlimit="10"/>
<path opacity="0.54" d="M76.6119 335.045L45.9284 256.273C45.5482 254.749 45.52 253.158 45.845 251.621C46.1706 250.084 46.8414 248.641 47.8063 247.403C48.7716 246.165 50.0054 245.163 51.415 244.474C52.8241 243.786 54.3717 243.428 55.9395 243.428H177.816C180.553 243.427 183.21 244.35 185.359 246.048C187.509 247.745 189.025 250.118 189.664 252.784L223.255 331.537C223.618 333.056 223.633 334.638 223.298 336.164C222.963 337.69 222.288 339.12 221.323 340.346C220.357 341.573 219.127 342.564 217.725 343.246C216.322 343.928 214.784 344.283 213.225 344.283H88.4321C85.7157 344.285 83.077 343.376 80.9353 341.702C78.7936 340.028 77.2719 337.685 76.6119 335.045Z" fill="white"/>
<path d="M221.752 260.04C221.752 260.04 224.292 262.372 223.326 265.705C222.61 268.174 220.16 269.732 217.734 268.887C210.007 266.21 203.049 261.664 201.353 253.936C200.552 250.024 200.378 246.008 200.84 242.04C201.212 238.362 201.754 234.392 202.988 230.894C204.872 225.522 210.643 221.778 216.245 224.365" stroke="#3CA629" stroke-width="5.47" stroke-miterlimit="10"/>
<path d="M76.6119 335.045L45.9284 256.273C45.5482 254.749 45.52 253.158 45.845 251.621C46.1706 250.084 46.8414 248.641 47.8063 247.403C48.7716 246.165 50.0054 245.163 51.415 244.474C52.8241 243.786 54.3717 243.428 55.9395 243.428H177.816C180.553 243.427 183.21 244.35 185.359 246.048C187.509 247.745 189.025 250.118 189.664 252.784L223.255 331.537C223.618 333.056 223.633 334.638 223.298 336.164C222.963 337.69 222.288 339.12 221.323 340.346C220.357 341.573 219.127 342.564 217.725 343.246C216.322 343.928 214.784 344.283 213.225 344.283H88.4321C85.7157 344.285 83.077 343.376 80.9353 341.702C78.7936 340.028 77.2719 337.685 76.6119 335.045Z" fill="#8BE386"/>
<path d="M76.6119 335.045L45.9284 256.273C45.5482 254.749 45.52 253.158 45.845 251.621C46.1706 250.084 46.8414 248.641 47.8063 247.403C48.7716 246.165 50.0054 245.163 51.415 244.474C52.8241 243.786 54.3717 243.428 55.9395 243.428H177.816C180.553 243.427 183.21 244.35 185.359 246.048C187.509 247.745 189.025 250.118 189.664 252.784L223.255 331.537C223.618 333.056 223.633 334.638 223.298 336.164C222.963 337.69 222.288 339.12 221.323 340.346C220.357 341.573 219.127 342.564 217.725 343.246C216.322 343.928 214.784 344.283 213.225 344.283H88.4321C85.7157 344.285 83.077 343.376 80.9353 341.702C78.7936 340.028 77.2719 337.685 76.6119 335.045Z" stroke="#3CA629" stroke-width="5.47" stroke-linecap="square" stroke-linejoin="round"/>
<path d="M81.1017 331.872L52.7926 259.172C52.4426 257.765 52.4172 256.298 52.7177 254.88C53.0183 253.462 53.6374 252.131 54.5282 250.99C55.4186 249.848 56.5573 248.924 57.8571 248.288C59.1574 247.653 60.5848 247.322 62.0311 247.322H174.467C176.991 247.321 179.442 248.173 181.425 249.738C183.408 251.303 184.807 253.492 185.396 255.952L216.391 328.61C216.725 330.012 216.738 331.472 216.429 332.88C216.12 334.287 215.497 335.606 214.606 336.738C213.715 337.869 212.58 338.784 211.286 339.413C209.992 340.042 208.572 340.37 207.133 340.37H92.0032C89.5012 340.372 87.0702 339.537 85.0958 337.998C83.1209 336.458 81.7156 334.303 81.1017 331.872Z" fill="#8BE386"/>
<path d="M321.731 320.468L343.289 370.456" stroke="#3CA629" stroke-width="5.47" stroke-miterlimit="10"/>
<path d="M424 370.456H0" stroke="#3CA629" stroke-width="5.47" stroke-miterlimit="10"/>
<path d="M223.481 144.839C219.986 148.299 214.766 148.294 211.793 145.094" stroke="#3CA629" stroke-width="5.47" stroke-miterlimit="10"/>
<path d="M130.319 131.776C132.227 129.987 134.493 128.179 136.881 128.972C139.458 129.831 140.179 133.07 140.471 135.77C141.297 143.191 142.122 150.605 142.945 158.01C143.991 167.452 145.093 177.12 149.008 185.796C150.901 190.037 153.577 193.881 156.894 197.126" stroke="#3CA629" stroke-width="5.47" stroke-miterlimit="10"/>
<path d="M178.334 197.07V196.914C178.071 193.871 176.921 190.973 175.027 188.58C173.133 186.188 170.579 184.405 167.683 183.455C164.655 188.441 161.032 193.038 156.894 197.145C146.046 207.955 132.11 215.113 117.019 217.629C117.745 220.523 119.238 223.157 120.27 225.942C121.302 228.728 121.815 231.952 120.562 234.638C118.979 238.065 114.438 237.617 111.281 236.857C111.248 236.857 111.229 236.857 111.196 236.857" stroke="#3CA629" stroke-width="5.47" stroke-miterlimit="10"/>
<path d="M94.9479 148.956C89.6714 150.094 84.329 150.92 78.9678 151.661C81.6484 176.757 86.7175 202.098 98.9853 224.168C101.543 228.78 104.822 233.827 109.722 236.235C110.222 236.478 110.738 236.684 111.267 236.853C116.181 238.472 122.23 237.146 126.884 235.616C138.191 231.915 149.663 227.473 159.971 221.534C168.87 216.421 179.489 208.122 178.344 197.071C178.233 195.854 177.985 194.653 177.604 193.492" stroke="#3CA629" stroke-width="5.47" stroke-miterlimit="10"/>
<path d="M183.177 98.8953C183.968 102.199 185.773 105.17 188.338 107.391C190.903 109.612 194.099 110.97 197.475 111.273C197.756 109.911 198.364 108.637 199.247 107.563C203.016 103.111 204.622 111.463 216.678 105.467C233.384 97.1396 239.725 101.917 239.725 101.917C240.281 102.333 240.196 106.165 240.29 106.864C240.761 110.844 241.185 114.804 241.652 118.779C241.934 121.206 242.212 123.614 242.476 126.022C242.704 125.612 242.955 125.216 243.23 124.836C244.751 119.44 247.47 113.068 253.33 115.81C254.517 116.39 255.55 117.242 256.346 118.298C260.232 123.415 257.288 128.358 253.222 132.017C252.203 133.152 251.064 134.172 249.825 135.062C250.494 136.45 253.227 141.959 253.227 141.978C253.509 142.535 263.059 131.705 263.77 130.525C264.833 127.634 265.403 124.584 265.457 121.504C265.612 108.838 260.468 94.0942 250.23 86.8289C247.691 85.0303 248.502 83.2977 248.346 80.8523C248.335 80.7202 248.285 80.5946 248.201 80.4917C248.118 80.3888 248.004 80.3137 247.878 80.2764C247.751 80.2391 247.615 80.2415 247.49 80.2825C247.364 80.3241 247.254 80.4024 247.173 80.5082C243.965 84.2093 236.022 83.8411 236.022 83.8411C208.452 76.9204 199.186 89.2039 193.622 91.3944C191.351 92.2559 188.853 92.2975 186.555 91.5124C186.42 92.2743 186.079 92.9848 185.57 93.5674C185.061 94.1499 184.404 94.5819 183.667 94.817L183.809 96.0959C183.929 97.0745 183.705 98.064 183.177 98.8953Z" fill="#8BE386"/>
<path d="M197.495 111.294C194.118 110.99 190.922 109.632 188.357 107.412C185.792 105.191 183.987 102.219 183.196 98.916C182.887 97.649 182.691 96.3564 182.612 95.0544L182.829 95.0308C183.125 95.0086 183.417 94.9449 183.696 94.842C184.432 94.6069 185.09 94.1749 185.599 93.5924C186.108 93.0103 186.449 92.2993 186.584 91.5374C186.67 91.1149 186.687 90.681 186.636 90.2533L185.929 84.003C185.929 84.003 190.913 87.7183 196.444 85.5467C201.975 83.3751 211.261 71.0916 238.844 77.9934C238.844 77.9934 245.072 78.3616 248.266 74.6605C248.347 74.5547 248.457 74.4764 248.583 74.4353C248.709 74.3938 248.844 74.3919 248.971 74.4292C249.098 74.4665 249.211 74.5415 249.294 74.644C249.378 74.7469 249.429 74.8729 249.439 75.0051C249.604 77.4552 250.509 79.1877 253.053 80.9816C263.29 88.2517 268.435 102.99 268.274 115.656C268.227 120.91 266.484 126.098 263.794 130.55C263.083 131.73 253.533 142.56 253.251 142.003C253.251 142.003 250.518 136.475 249.849 135.087L249.689 134.78L249.995 134.577C251.133 133.803 252.218 132.956 253.246 132.042C257.307 128.383 260.256 123.441 256.369 118.323C255.574 117.268 254.541 116.415 253.354 115.835C247.475 113.093 244.775 119.466 243.254 124.862C242.958 125.893 242.776 126.953 242.712 128.025C242.641 127.364 242.571 126.726 242.5 126.065C242.236 123.658 241.958 121.25 241.675 118.824C241.204 114.849 240.762 110.888 240.314 106.908C240.243 106.229 240.314 102.376 239.749 101.961C239.749 101.961 233.403 97.1835 216.702 105.511C204.646 111.506 203.04 103.151 199.271 107.607C198.388 108.681 197.78 109.955 197.499 111.318C197.413 111.755 197.358 112.198 197.335 112.644C197.326 112.702 197.326 112.761 197.335 112.819C197.278 113.796 197.259 114.769 197.236 115.722C197.146 124.923 198.154 134.535 201.758 143.079C206.14 153.437 217.734 163.653 229.789 158.823C233.558 157.308 236.936 154.867 240.027 152.275" stroke="#3CA629" stroke-width="5.47" stroke-miterlimit="10"/>
<path d="M205.745 133.734C206.944 133.332 207.522 131.827 207.037 130.374C206.552 128.92 205.186 128.067 203.986 128.469C202.787 128.871 202.209 130.376 202.694 131.83C203.18 133.284 204.546 134.136 205.745 133.734Z" fill="#3CA629"/>
<path d="M223.683 133.159C224.882 132.757 225.461 131.252 224.975 129.798C224.49 128.344 223.124 127.492 221.925 127.894C220.726 128.296 220.147 129.801 220.633 131.254C221.118 132.708 222.484 133.561 223.683 133.159Z" fill="#3CA629"/>
<path d="M216.824 136.272C216.824 136.272 210.855 139.666 210.493 136.144C210.379 135.059 208.919 124.423 208.919 124.423C208.919 124.423 204.095 119.3 196.703 123.087" stroke="#3CA629" stroke-width="5.47" stroke-miterlimit="10"/>
<path d="M215.481 121.442C215.481 121.442 225.12 116.618 231.499 123.571" stroke="#3CA629" stroke-width="5.47" stroke-miterlimit="10"/>
<path d="M224.32 160.008L225.427 165.701C221.936 168.925 219.467 173.547 220.188 178.414C220.829 182.729 224.353 186.746 227.966 189.008C234.006 192.784 242.038 192.487 248.539 190.084C254.895 187.723 260.393 183.243 264.378 177.777C266.255 175.134 267.505 172.097 268.034 168.897V168.84" stroke="#3CA629" stroke-width="5.47" stroke-miterlimit="10"/>
<path d="M225.427 165.7L227.584 175.982" stroke="#3CA629" stroke-width="5.47" stroke-miterlimit="10"/>
<path d="M255.94 139.524L259.201 161.216C259.522 163.34 260.593 165.277 262.219 166.676C263.846 168.075 265.919 168.843 268.062 168.84C278.208 170.488 288.217 172.893 298.006 176.035C336.246 188.394 359.783 222.912 366.43 261.481C369.196 277.631 369.403 294.57 365.931 310.63C363.957 319.67 361.102 329.825 354.473 336.594C345.866 345.422 332.656 341.787 322.485 337.798C290.906 325.491 264.642 303.596 241.963 278.528C229.836 265.121 214.167 254.377 214.167 254.377" stroke="#3CA629" stroke-width="5.47" stroke-miterlimit="10"/>
<path d="M91.5368 315.601C87.994 315.568 84.9082 312.703 84.1121 308.714C82.5386 300.868 82.124 288.735 93.605 286.087C107.95 282.782 118.984 298.437 124.392 308.331C126.211 311.636 124.152 315.885 120.765 315.885L91.5368 315.601Z" fill="#DEFADD"/>
<path d="M96.2729 279.425C99.3182 277.394 99.3653 272.1 96.377 267.601C93.3892 263.101 88.4982 261.099 85.4524 263.13C82.4067 265.161 82.3601 270.455 85.3478 274.954C88.3361 279.454 93.2272 281.456 96.2729 279.425Z" fill="#DEFADD"/>
<path d="M332.025 349.868C331.804 349.901 331.554 349.934 331.338 349.986H331.253L297.743 349.811L247.461 349.552C247.268 349.552 247.079 349.552 246.891 349.552C246.517 349.543 246.145 349.514 245.774 349.467C249.181 349.07 252.339 347.482 254.693 344.982C257.046 342.483 258.444 339.231 258.64 335.8C258.65 335.622 258.65 335.444 258.64 335.266V334.993C258.627 331.636 257.459 328.386 255.335 325.79C253.21 323.194 250.258 321.411 246.976 320.74C246.632 320.655 246.255 320.604 245.892 320.552C246.462 320.5 247.028 320.462 247.579 320.462L290.059 320.689L297.879 320.722L308.427 320.773C312.039 321.104 315.398 322.772 317.847 325.453C320.296 328.133 321.66 331.632 321.67 335.266C321.671 335.952 321.619 336.637 321.515 337.315C321.013 340.775 319.288 343.939 316.654 346.232C314.021 348.526 310.654 349.796 307.165 349.811H332.69C331.22 349.811 331.63 349.811 332.025 349.868Z" fill="white"/>
<path d="M264.053 367.427C265.01 368.391 266.149 369.156 267.403 369.676C268.658 370.196 270.003 370.462 271.36 370.457H246.683C241.972 370.457 239.4 369.305 237.525 367.427C235.598 365.487 234.513 362.864 234.505 360.128C234.505 354.463 239.141 349.818 246.683 349.818H271.36C269.323 349.815 267.33 350.417 265.635 351.55C263.94 352.683 262.619 354.294 261.839 356.18C261.059 358.066 260.855 360.142 261.254 362.144C261.652 364.146 262.634 365.984 264.077 367.427H264.053Z" fill="#DEFADD"/>
<path d="M345.551 335.526C345.545 337.707 345.038 339.856 344.072 341.809C343.381 343.286 342.434 344.627 341.273 345.77C339.36 347.67 336.957 348.999 334.334 349.608C333.252 349.858 332.146 349.985 331.036 349.986C331.262 349.934 331.507 349.901 331.724 349.868C331.328 349.83 330.918 349.816 332.393 349.816H306.863C310.355 349.803 313.725 348.533 316.36 346.238C318.996 343.944 320.722 340.777 321.223 337.315C321.327 336.637 321.379 335.952 321.378 335.266C321.367 331.632 320.004 328.132 317.553 325.451C315.103 322.771 311.743 321.103 308.131 320.773L321.911 320.844L331.116 320.896C334.963 320.929 338.641 322.486 341.345 325.227C344.05 327.968 345.562 331.671 345.551 335.526Z" fill="#8BE386"/>
<path d="M345.551 335.522C345.522 339.38 343.969 343.068 341.231 345.78C338.494 348.492 334.796 350.007 330.946 349.991L247.126 349.557C246.565 349.557 246.005 349.515 245.439 349.458C248.973 349.057 252.236 347.371 254.612 344.719C256.987 342.068 258.31 338.636 258.329 335.072C258.347 331.509 257.06 328.063 254.713 325.387C252.365 322.711 249.119 320.991 245.59 320.553C246.15 320.494 246.713 320.465 247.277 320.468L331.097 320.902C334.946 320.928 338.628 322.481 341.336 325.221C344.045 327.961 345.56 331.665 345.551 335.522Z" stroke="#3CA629" stroke-width="5.47" stroke-linecap="square" stroke-linejoin="round"/>
<path d="M321.369 335.262C321.361 339.119 319.829 342.815 317.107 345.542C314.386 348.269 310.697 349.804 306.849 349.812H247.211C246.648 349.808 246.085 349.777 245.524 349.717C249.055 349.297 252.309 347.594 254.671 344.93C257.032 342.266 258.336 338.827 258.336 335.265C258.336 331.702 257.032 328.263 254.671 325.599C252.309 322.935 249.055 321.232 245.524 320.812C246.085 320.76 246.65 320.722 247.211 320.722H306.849C310.696 320.731 314.382 322.265 317.103 324.99C319.824 327.715 321.357 331.408 321.369 335.262Z" stroke="#3CA629" stroke-width="5.47" stroke-linecap="square" stroke-linejoin="round"/>
<path d="M234.505 360.131C234.504 361.485 234.771 362.825 235.288 364.076C235.806 365.327 236.564 366.463 237.52 367.42C239.404 369.308 241.963 370.455 246.678 370.455H332.388C330.913 370.455 331.313 370.427 331.714 370.389C329.206 370.094 326.894 368.886 325.216 366.994C323.538 365.104 322.611 362.661 322.611 360.131C322.611 357.6 323.538 355.158 325.216 353.267C326.894 351.377 329.206 350.168 331.714 349.872C331.313 349.835 330.913 349.806 332.388 349.806H246.678C239.131 349.811 234.505 354.456 234.505 360.131Z" stroke="#3CA629" stroke-width="5.47" stroke-linecap="square" stroke-linejoin="round"/>
<path d="M261.028 360.131C261.034 362.867 262.122 365.49 264.053 367.424C265.984 369.36 268.601 370.449 271.332 370.455H330.517C330.913 370.455 331.313 370.427 331.714 370.389C329.206 370.094 326.894 368.886 325.216 366.994C323.538 365.104 322.611 362.661 322.611 360.131C322.611 357.6 323.538 355.158 325.216 353.267C326.894 351.377 329.206 350.168 331.714 349.872C331.313 349.835 330.913 349.806 330.517 349.806H271.332C268.601 349.814 265.985 350.904 264.054 352.839C262.124 354.773 261.036 357.395 261.028 360.131Z" stroke="#3CA629" stroke-width="5.47" stroke-linecap="square" stroke-linejoin="round"/>
<path d="M165.087 281.36H138.648C137.438 281.358 136.255 281.003 135.243 280.34C134.231 279.676 133.434 278.732 132.948 277.621C132.76 277.208 132.68 276.754 132.714 276.302C132.749 275.849 132.897 275.413 133.146 275.033C133.394 274.653 133.734 274.342 134.134 274.129C134.535 273.917 134.982 273.809 135.435 273.816H163.542C162.218 276.049 162.892 279.151 165.087 281.36Z" fill="#DEFADD"/>
<path d="M182.184 278.631C182.182 279.353 181.896 280.045 181.386 280.555C180.877 281.066 180.186 281.354 179.465 281.355H165.087C162.892 279.15 162.218 276.048 163.542 273.801H176.238C177.447 273.802 178.629 274.154 179.641 274.814C180.654 275.474 181.454 276.415 181.943 277.521C182.095 277.872 182.177 278.249 182.184 278.631Z" fill="#8BE386"/>
<path d="M175.569 281.36C175.495 281.504 175.408 281.641 175.31 281.771C173.426 284.353 169.332 284.603 166.152 282.271C165.776 281.993 165.42 281.688 165.087 281.36C162.892 279.155 162.218 276.054 163.542 273.807C163.616 273.663 163.703 273.525 163.801 273.396C165.685 270.795 169.76 270.563 172.94 272.877C173.323 273.164 173.684 273.479 174.019 273.821C176.196 276.016 176.874 279.099 175.569 281.36Z" fill="white"/>
<path d="M188.831 295.264C188.825 295.986 188.536 296.678 188.024 297.187C187.512 297.697 186.819 297.983 186.098 297.983H158.354C159.692 295.726 159.023 292.648 156.823 290.429H182.885C184.095 290.43 185.279 290.783 186.292 291.446C187.305 292.109 188.104 293.053 188.59 294.164C188.746 294.51 188.827 294.884 188.831 295.264Z" fill="#8BE386"/>
<path d="M158.354 297.981H145.3C144.092 297.982 142.909 297.631 141.896 296.971C140.883 296.31 140.083 295.369 139.595 294.261C139.441 293.915 139.359 293.541 139.354 293.161C139.354 292.805 139.424 292.451 139.56 292.12C139.696 291.79 139.896 291.49 140.148 291.237C140.4 290.985 140.7 290.785 141.029 290.648C141.359 290.512 141.711 290.442 142.068 290.442H156.823C159.023 292.647 159.707 295.725 158.354 297.981Z" fill="#DEFADD"/>
<path d="M158.355 297.982C158.293 298.13 158.212 298.27 158.114 298.397C156.23 300.994 152.15 301.23 148.975 298.912C148.59 298.625 148.228 298.309 147.891 297.968C145.71 295.763 145.041 292.685 146.346 290.415C146.421 290.269 146.508 290.13 146.605 289.999C148.489 287.417 152.583 287.167 155.759 289.503C156.137 289.779 156.493 290.083 156.823 290.415C159.024 292.647 159.707 295.725 158.355 297.982Z" fill="white"/>
<path d="M167.598 314.491H150.986C149.778 314.49 148.597 314.138 147.585 313.478C146.572 312.817 145.772 311.878 145.281 310.771C145.094 310.357 145.015 309.902 145.049 309.449C145.085 308.995 145.233 308.558 145.481 308.177C145.73 307.796 146.07 307.484 146.471 307.271C146.872 307.056 147.319 306.947 147.773 306.952H166.053C164.743 309.214 165.417 312.287 167.598 314.491Z" fill="#8BE386"/>
<path d="M194.517 311.791C194.513 312.509 194.226 313.197 193.717 313.703C193.208 314.209 192.52 314.492 191.804 314.491H167.598C165.417 312.286 164.743 309.208 166.053 306.938H188.572C189.782 306.938 190.965 307.291 191.979 307.954C192.992 308.617 193.79 309.562 194.277 310.672C194.432 311.025 194.514 311.405 194.517 311.791Z" fill="#DEFADD"/>
<path d="M178.08 314.492C178.005 314.636 177.918 314.775 177.821 314.907C175.937 317.503 171.862 317.739 168.682 315.422C168.299 315.133 167.939 314.818 167.603 314.477C165.421 312.273 164.748 309.195 166.057 306.924C166.13 306.778 166.214 306.639 166.312 306.509C168.196 303.926 172.29 303.704 175.47 306.013C175.848 306.288 176.204 306.593 176.535 306.924C178.73 309.157 179.399 312.254 178.08 314.492Z" fill="white"/>
<path d="M52.5806 163.987L52.9951 164.105L52.8397 164.71C52.7412 164.474 52.6545 164.232 52.5806 163.987Z" fill="#1C610F"/>
<path d="M126.308 201.756C132.51 199.932 135.768 192.415 133.586 184.968C131.404 177.52 124.609 172.962 118.407 174.786C112.206 176.61 108.947 184.126 111.129 191.574C113.311 199.021 120.107 203.58 126.308 201.756Z" fill="#DEFADD"/>
</g>
<defs>
<clipPath id="clip0_196_302">
<rect width="424" height="372" fill="white"/>
</clipPath>
</defs>
</svg>
