<svg width="454" height="449" viewBox="0 0 454 449" fill="none" xmlns="http://www.w3.org/2000/svg">
<g clip-path="url(#clip0_196_364)">
<path d="M20.3163 252.283C19.9651 247.828 19.6942 243.368 19.4785 238.918" stroke="#3CA629" stroke-width="4.05" stroke-miterlimit="10"/>
<path d="M274.225 412.528H146.794" stroke="#E0E0E0" stroke-width="4.05" stroke-miterlimit="10"/>
<path d="M311.428 93.9965C311.428 93.9965 348.982 76.3018 380.842 110.825C391.251 122.108 398.355 137.079 398.857 152.527C399.084 160.064 397.867 167.575 395.27 174.656C392.626 181.884 387.88 186.67 384.233 193.107C378.64 203.033 390.333 204.79 396.609 209.6C400.78 212.824 404.737 216.315 408.453 220.052C416.83 228.399 424.201 237.694 430.416 247.748C442.723 267.773 450.134 290.408 452.047 313.821C453.939 336.907 452.489 361.975 440.625 382.483C434.916 392.359 426.317 402.045 415.742 406.65C401.696 412.761 385.919 412.531 370.909 412.531H338.969" stroke="#E0E0E0" stroke-width="4.05" stroke-miterlimit="10"/>
<path d="M154.886 324.679C153.626 333.619 151.75 343.875 149.678 354.142L147.235 354.837C139.416 357.029 131.113 356.786 123.437 354.142L126.637 343.29L107.153 286.727C107.153 286.727 122.047 281.921 134.277 278.352L135.682 278.292C142.364 279.699 156.135 284.98 156.566 304.757C156.596 305.708 156.566 306.709 156.566 307.8C158.508 314.182 157.735 319.808 154.886 324.679Z" fill="#8BE386"/>
<path d="M109.024 109.37C108.832 108.882 108.456 108.489 107.977 108.275C107.498 108.06 106.953 108.042 106.461 108.224C106.185 108.307 105.929 108.449 105.713 108.639C104.941 109.265 104.765 110.361 104.74 111.402C104.67 113.78 104.534 116.163 104.359 118.53C104.359 118.69 104.334 118.871 104.334 119.031C104.223 120.938 104.304 123.251 103.491 124.912C103.439 125.039 103.35 125.147 103.235 125.223C102.964 125.348 102.678 125.078 102.503 124.832C102.001 124.101 101.499 123.386 100.998 122.64C100.601 122.044 100.155 121.398 99.4626 121.208C98.4342 120.923 97.456 121.829 96.8891 122.75C95.058 125.753 94.8825 130.674 97.7168 133.192C100.551 135.709 94.2052 140.66 89.6602 142.742C88.8992 143.169 88.1021 143.528 87.2773 143.813C87.2372 143.813 88.9177 144.189 88.8776 144.204C85.3409 145.432 81.6568 146.188 77.9214 146.451C73.4868 146.747 69.1625 146.191 66.0171 144.269C66.1525 143.768 67.2261 140.264 67.2913 139.764C67.5221 138.017 67.6876 136.285 67.793 134.528C67.9836 131.229 67.9685 127.926 67.8431 124.637C67.3866 112.804 69.4986 102.863 74.3948 101.346C74.7815 101.231 75.1523 101.067 75.4984 100.861C77.7057 99.6443 78.8846 97.0764 77.8712 94.6537C77.801 94.4885 77.7208 94.3283 77.6505 94.1531C77.5713 93.9804 77.481 93.8133 77.3796 93.6526C86.9412 90.6893 93.4327 92.7466 99.9943 96.3306C101.243 97.3262 102.417 98.4119 103.506 99.5792C106.074 102.361 107.963 105.698 109.024 109.33V109.37Z" fill="#8BE386"/>
<path d="M338.869 223.141H306.261V145.374C306.261 145.374 300.241 212.944 283.746 251.227H182.758C194.662 243.679 204.209 232.276 210.565 220.002C213.073 215.147 217.086 207.939 223.758 209.831C225.344 210.276 227.676 210.562 228.855 209.115C229.262 208.56 229.493 207.896 229.517 207.208C230.089 200.12 222.725 194.153 216.655 192.271C210.585 190.389 203.491 191.27 198.66 195.67C195.179 198.849 192.997 203.068 190.448 206.978C188.919 209.294 187.106 211.412 185.05 213.28C187.669 197.412 190.002 182.245 190.338 176.664C196.724 171.633 201.414 163.429 203.08 156.171C204.911 148.242 206.526 140.489 209.371 133.065L232.653 133.146C233.53 133.146 234.37 132.798 234.99 132.179C235.61 131.561 235.959 130.722 235.959 129.847V91.2639C235.96 90.3969 235.617 89.565 235.005 88.9493C234.393 88.3341 233.562 87.9858 232.693 87.9803L216.84 87.8451C222.601 86.6438 228.443 85.8659 234.318 85.5175C234.439 85.5175 234.549 85.5175 234.654 85.5175C238.522 85.2622 245.299 85.1521 249.202 85.1121C244.552 87.6148 241.677 92.9308 242.179 97.626C242.267 98.6261 242.524 99.6042 242.937 100.519C246.91 109.229 257.374 111.802 266.013 109.269C275.625 106.471 282.688 97.651 282.267 87.5047C288.286 88.3857 294.246 89.5034 300.146 90.8585C309.11 92.9157 317.854 95.6888 324.943 101.736C331.123 106.986 336.36 113.749 338.783 121.392C349.188 154.074 345.987 190.544 338.869 223.141Z" fill="#1C610F"/>
<path d="M190.599 176.665C189.866 188.608 187.98 200.542 185.933 212.445" stroke="#3CA629" stroke-width="4.05" stroke-miterlimit="10"/>
<path d="M209.632 133.066C206.782 140.489 205.172 148.243 203.341 156.172C201.66 163.405 196.98 171.634 190.599 176.665C185.241 180.884 178.679 182.871 171.656 180.208C162.235 176.624 158.929 166.263 157.775 157.128C156.276 145.753 156.184 134.237 157.504 122.84C158.834 125.788 164.267 134.758 181.117 132.4C181.57 132.738 182.114 132.931 182.677 132.956L209.632 133.066Z" fill="#1C610F"/>
<path d="M200.17 107.403C204.093 106.402 206.481 110.167 205.899 113.03C204.951 117.7 198.219 119.537 194.21 119.622C191 119.687 183.174 118.841 179.983 118.471" stroke="#3CA629" stroke-width="4.05" stroke-miterlimit="10"/>
<path d="M178.664 109.715C183.517 111.115 188.657 111.2 193.553 109.961C197.672 108.905 202.538 106.957 204.695 103.048C205.954 100.775 204.951 97.1515 202.322 96.3506C199.287 95.4345 196.478 98.4479 193.729 99.2088C191.956 99.6908 190.145 100.026 188.316 100.21C187.815 100.265 187.343 100.305 186.856 100.345C184.296 100.55 181.723 100.531 179.166 100.29C178.894 100.29 178.629 100.204 178.408 100.046C178.188 99.8865 178.023 99.6623 177.937 99.4045C177.852 99.1472 177.85 98.8689 177.932 98.6101C178.014 98.3513 178.175 98.1245 178.393 97.9624L178.855 97.627" stroke="#3CA629" stroke-width="4.05" stroke-miterlimit="10"/>
<path d="M209.632 133.065C206.782 140.489 205.172 148.242 203.341 156.171C200.251 169.481 187.072 186.064 171.656 180.198C162.235 176.614 158.929 166.252 157.775 157.117C155.969 142.971 156.12 128.44 158.779 114.415C160.986 102.862 164.904 90.7283 176.171 85.047L181.459 82.409C182.72 81.7733 184.18 81.6552 185.527 82.0797C186.875 82.5046 188.001 83.4387 188.667 84.6816C189.073 85.4544 189.289 86.3124 189.295 87.1843C189.3 87.312 189.29 87.4396 189.264 87.5648" stroke="#3CA629" stroke-width="4.05" stroke-miterlimit="10"/>
<path d="M317.026 241.647C319.75 241.563 322.477 241.632 325.193 241.853C327.411 242.033 329.708 242.138 331.82 242.964C333.561 243.655 335.377 245.301 335.287 247.314C335.121 251.258 329.944 251.228 327.105 251.228" stroke="#3CA629" stroke-width="4.05" stroke-miterlimit="10"/>
<path opacity="0.54" d="M268.305 237.888L291.913 177.536C292.206 176.366 292.226 175.145 291.974 173.966C291.723 172.787 291.204 171.681 290.459 170.732C289.714 169.783 288.762 169.016 287.676 168.49C286.589 167.963 285.396 167.691 284.188 167.695H190.438C188.336 167.699 186.298 168.409 184.65 169.709C183.001 171.009 181.839 172.824 181.348 174.863L155.472 235.2C155.192 236.365 155.179 237.577 155.436 238.748C155.694 239.918 156.213 241.015 156.956 241.956C157.699 242.897 158.647 243.658 159.727 244.181C160.807 244.703 161.992 244.975 163.193 244.976H259.21C261.301 244.974 263.331 244.276 264.979 242.992C266.627 241.708 267.798 239.912 268.305 237.888Z" fill="white"/>
<path d="M268.305 237.888L291.913 177.536C292.206 176.366 292.226 175.145 291.974 173.966C291.723 172.787 291.204 171.681 290.459 170.732C289.714 169.783 288.762 169.016 287.676 168.49C286.589 167.963 285.396 167.691 284.188 167.695H190.438C188.336 167.699 186.298 168.409 184.65 169.709C183.001 171.009 181.839 172.824 181.348 174.863L155.472 235.2C155.192 236.365 155.179 237.577 155.436 238.748C155.694 239.918 156.213 241.015 156.956 241.956C157.699 242.897 158.647 243.658 159.727 244.181C160.807 244.703 161.992 244.975 163.193 244.976H259.21C261.301 244.974 263.331 244.276 264.979 242.992C266.627 241.708 267.798 239.912 268.305 237.888Z" fill="#8BE386"/>
<path d="M268.305 237.888L291.913 177.536C292.206 176.366 292.226 175.145 291.974 173.966C291.723 172.787 291.204 171.681 290.459 170.732C289.714 169.783 288.762 169.016 287.676 168.49C286.589 167.963 285.396 167.691 284.188 167.695H190.438C188.336 167.699 186.298 168.409 184.65 169.709C183.001 171.009 181.839 172.824 181.348 174.863L155.472 235.2C155.192 236.365 155.179 237.577 155.436 238.748C155.694 239.918 156.213 241.015 156.956 241.956C157.699 242.897 158.647 243.658 159.727 244.181C160.807 244.703 161.992 244.975 163.193 244.976H259.21C261.301 244.974 263.331 244.276 264.979 242.992C266.627 241.708 267.798 239.912 268.305 237.888Z" stroke="#3CA629" stroke-width="4.05" stroke-linecap="square" stroke-linejoin="round"/>
<path d="M264.849 235.445L286.631 179.768C286.901 178.69 286.921 177.566 286.69 176.479C286.459 175.392 285.983 174.372 285.297 173.497C284.612 172.622 283.736 171.914 282.735 171.427C281.734 170.94 280.636 170.687 279.522 170.688H193.012C191.07 170.687 189.183 171.339 187.658 172.539C186.133 173.739 185.057 175.416 184.604 177.3L160.78 232.967C160.523 234.041 160.514 235.16 160.752 236.238C160.99 237.316 161.47 238.327 162.155 239.194C162.84 240.061 163.714 240.761 164.71 241.243C165.705 241.725 166.797 241.976 167.904 241.977H256.461C258.39 241.979 260.263 241.337 261.783 240.153C263.303 238.969 264.382 237.312 264.849 235.445Z" fill="#8BE386"/>
<path d="M199.253 180.95C200.401 179.233 202.263 178.447 203.447 179.243C204.63 180.039 204.63 182.041 203.487 183.748C203.306 184.011 203.105 184.258 202.885 184.489L211.383 202.394C212.737 201.493 214.227 201.267 215.301 201.978C215.645 202.229 215.93 202.551 216.136 202.923C216.342 203.295 216.465 203.707 216.495 204.131L222.304 202.178L227.381 200.472L229.036 199.931C229.246 199.309 229.536 198.717 229.899 198.169C231.509 195.751 234.143 194.665 235.783 195.766C237.424 196.868 237.444 199.646 235.879 202.043L245.561 215.233C247.673 213.506 250.156 212.97 251.877 214.112C254.219 215.668 254.254 219.728 251.957 223.172C251.861 223.312 251.756 223.422 251.661 223.552L258.102 232.342L258.162 232.427C258.491 232.923 258.61 233.529 258.491 234.112C258.373 234.695 258.027 235.207 257.53 235.536C257.033 235.864 256.426 235.983 255.842 235.864C255.257 235.746 254.744 235.401 254.415 234.905L248.696 226.29C246.885 227.336 244.959 227.537 243.549 226.601C241.312 225.099 241.201 221.355 243.198 218.016L233.932 204.061C232.563 204.987 231.053 205.222 229.969 204.506C229.367 204.08 228.956 203.434 228.825 202.709L228.133 202.899L222.971 204.306L216.359 206.088C216.153 206.878 215.813 207.628 215.356 208.305C213.746 210.718 211.112 211.809 209.471 210.708C207.831 209.607 207.806 206.779 209.416 204.361C209.653 204.006 209.917 203.671 210.209 203.36L202.117 185.119C201.144 185.785 200.065 185.955 199.293 185.44C198.129 184.669 198.109 182.647 199.253 180.95Z" fill="#DEFADD"/>
<path d="M260.811 181.909H273.352C273.925 181.908 274.486 181.742 274.966 181.429C275.446 181.116 275.825 180.671 276.056 180.147C276.125 179.989 276.162 179.82 276.166 179.647C276.165 179.306 276.028 178.978 275.785 178.737C275.543 178.496 275.214 178.36 274.872 178.36H261.543C262.17 179.407 261.854 180.873 260.811 181.909Z" fill="#DEFADD"/>
<path d="M252.704 180.628C252.706 180.968 252.842 181.295 253.083 181.535C253.325 181.775 253.652 181.91 253.993 181.91H260.811C261.854 180.874 262.17 179.407 261.543 178.351H255.523C254.951 178.35 254.39 178.517 253.91 178.828C253.43 179.14 253.051 179.585 252.819 180.108C252.746 180.272 252.706 180.449 252.704 180.628Z" fill="#8BE386"/>
<path d="M255.839 181.911C255.876 181.979 255.918 182.045 255.965 182.106C256.858 183.327 258.799 183.443 260.304 182.346C260.483 182.215 260.65 182.069 260.806 181.911C261.849 180.875 262.165 179.408 261.538 178.352C261.506 178.283 261.465 178.217 261.418 178.157C260.53 176.93 258.588 176.825 257.083 177.911C256.905 178.046 256.738 178.193 256.582 178.352C255.538 179.393 255.222 180.85 255.839 181.911Z" fill="white"/>
<path d="M249.574 188.483C249.576 188.824 249.713 189.149 249.956 189.389C250.199 189.63 250.526 189.764 250.868 189.764H264.026C263.389 188.703 263.705 187.261 264.749 186.205H252.373C251.799 186.206 251.237 186.372 250.756 186.685C250.275 186.998 249.896 187.443 249.664 187.967C249.601 188.132 249.57 188.307 249.574 188.483Z" fill="#8BE386"/>
<path d="M264.006 189.764H270.197C270.769 189.764 271.329 189.598 271.808 189.287C272.288 188.976 272.668 188.533 272.9 188.012C272.971 187.854 273.01 187.684 273.016 187.511C273.016 187.342 272.984 187.174 272.919 187.018C272.854 186.862 272.759 186.72 272.64 186.6C272.52 186.481 272.377 186.386 272.221 186.321C272.064 186.257 271.896 186.224 271.727 186.225H264.728C263.685 187.246 263.369 188.703 264.006 189.764Z" fill="#DEFADD"/>
<path d="M264.007 189.764C264.036 189.833 264.073 189.899 264.117 189.959C265.005 191.186 266.946 191.296 268.451 190.205C268.629 190.07 268.797 189.923 268.953 189.764C269.986 188.723 270.302 187.261 269.685 186.205C269.649 186.138 269.609 186.073 269.565 186.01C268.667 184.789 266.726 184.679 265.221 185.775C265.042 185.905 264.874 186.049 264.719 186.205C263.685 187.246 263.369 188.703 264.007 189.764Z" fill="white"/>
<path d="M259.606 197.563H267.482C268.056 197.562 268.617 197.396 269.097 197.084C269.578 196.772 269.958 196.328 270.191 195.806C270.26 195.648 270.298 195.477 270.302 195.305C270.302 194.962 270.165 194.633 269.923 194.39C269.68 194.147 269.351 194.01 269.008 194.009H260.354C260.976 195.065 260.655 196.522 259.606 197.563Z" fill="#8BE386"/>
<path d="M246.854 196.286C246.855 196.455 246.889 196.621 246.954 196.776C247.02 196.932 247.114 197.073 247.234 197.191C247.354 197.31 247.496 197.404 247.652 197.467C247.808 197.531 247.975 197.564 248.144 197.563H259.607C260.64 196.522 260.961 195.06 260.339 193.999H249.674C249.099 193.998 248.538 194.166 248.057 194.479C247.577 194.793 247.199 195.24 246.97 195.766C246.896 195.93 246.856 196.107 246.854 196.286Z" fill="#DEFADD"/>
<path d="M254.65 197.563C254.687 197.631 254.728 197.697 254.776 197.758C255.664 198.984 257.6 199.09 259.11 197.998C259.288 197.866 259.456 197.721 259.612 197.563C260.645 196.522 260.966 195.06 260.344 193.999C260.311 193.93 260.271 193.864 260.224 193.804C259.326 192.587 257.389 192.482 255.879 193.568C255.702 193.7 255.535 193.844 255.378 193.999C254.344 195.04 254.023 196.507 254.65 197.563Z" fill="white"/>
<path d="M208.693 234.343H216.574C217.147 234.342 217.707 234.175 218.187 233.864C218.667 233.552 219.046 233.108 219.278 232.586C219.347 232.428 219.385 232.257 219.389 232.085C219.389 231.743 219.252 231.415 219.009 231.172C218.767 230.93 218.438 230.794 218.094 230.794H209.441C210.048 231.845 209.727 233.302 208.693 234.343Z" fill="#8BE386"/>
<path d="M177.42 233.067C177.42 233.235 177.455 233.401 177.52 233.557C177.584 233.712 177.68 233.853 177.8 233.971C177.919 234.09 178.061 234.184 178.217 234.248C178.374 234.311 178.541 234.344 178.709 234.343H208.693C209.727 233.302 210.048 231.84 209.426 230.784H180.239C179.666 230.784 179.104 230.95 178.624 231.263C178.144 231.576 177.766 232.022 177.535 232.546C177.464 232.71 177.424 232.887 177.42 233.067Z" fill="#DEFADD"/>
<path d="M203.722 234.344C203.759 234.412 203.801 234.477 203.848 234.539C204.736 235.765 206.672 235.87 208.182 234.784C208.359 234.649 208.527 234.502 208.684 234.344C209.717 233.303 210.038 231.841 209.416 230.785C209.384 230.715 209.343 230.65 209.296 230.59C208.398 229.368 206.461 229.263 204.951 230.349C204.773 230.481 204.605 230.627 204.45 230.785C203.421 231.821 203.095 233.288 203.722 234.344Z" fill="white"/>
<path d="M10.3734 253.621C10.3734 253.621 -6.18134 328.239 36.4043 343.826C78.99 359.414 194.025 344.772 146.217 290.932C98.4092 237.092 10.3734 253.621 10.3734 253.621Z" fill="#1C610F"/>
<path d="M217.006 87.8456C222.794 86.6407 228.662 85.8599 234.564 85.508C234.689 85.508 234.795 85.508 234.905 85.508C238.783 85.2527 245.575 85.1426 249.453 85.1025" stroke="#3CA629" stroke-width="4.05" stroke-miterlimit="10"/>
<path d="M188.316 100.195C188.276 100.22 188.251 100.25 188.211 100.275" stroke="#3CA629" stroke-width="4.05" stroke-miterlimit="10"/>
<path d="M254.314 68.8239C251.354 70.3756 247.953 69.3245 246.648 66.6815" stroke="#3CA629" stroke-width="4.05" stroke-miterlimit="10"/>
<path d="M237.133 31.107C236.999 33.4036 237.59 35.6841 238.821 37.6283C240.053 39.5729 241.864 41.0836 244 41.9491C244.452 41.1217 245.1 40.4174 245.887 39.8968C249.213 37.7494 248.621 43.4858 257.651 41.9741C270.167 39.8668 273.357 44.2166 273.357 44.2166C273.633 44.597 272.856 47.0798 272.745 47.5353C272.244 50.2033 271.742 52.8562 271.286 55.5442C270.991 57.1725 270.694 58.7908 270.393 60.3996C270.62 60.1794 270.862 59.9736 271.115 59.7839C273.172 56.5804 276.187 52.9864 279.473 55.9196C280.132 56.5303 280.638 57.2887 280.948 58.1321C282.452 62.2116 279.573 64.8346 276.207 66.4063C275.319 66.9424 274.375 67.3804 273.393 67.7128C273.558 68.7439 274.245 72.8535 274.245 72.8635C274.316 73.284 282.673 68.1433 283.371 67.5176C284.631 65.8552 285.602 63.9941 286.245 62.0114C288.844 53.8323 288.402 43.2605 283.17 36.533C281.871 34.8662 282.738 33.9051 283.115 32.2833C283.133 32.1957 283.124 32.1051 283.09 32.023C283.056 31.9404 282.998 31.8704 282.923 31.8213C282.849 31.7722 282.761 31.7467 282.672 31.7477C282.582 31.7492 282.496 31.7767 282.422 31.8278C279.603 33.5948 274.501 31.7878 274.501 31.7878C257.947 21.8666 249.464 28.0035 245.405 28.3139C243.759 28.4265 242.125 27.9625 240.785 27.0024C240.549 27.4669 240.191 27.8584 239.749 28.1352C239.307 28.412 238.798 28.5637 238.277 28.5742L238.116 29.4351C237.993 30.0894 237.645 30.6805 237.133 31.107Z" fill="#8BE386"/>
<path d="M244.01 41.9691C241.874 41.1041 240.063 39.5934 238.831 37.6488C237.6 35.7041 237.009 33.4236 237.143 31.127C237.192 30.245 237.319 29.3691 237.524 28.5091L237.669 28.5391C237.867 28.5837 238.07 28.5987 238.271 28.5842C238.793 28.5742 239.302 28.4225 239.744 28.1457C240.186 27.8689 240.544 27.4769 240.78 27.0124C240.918 26.7541 241.014 26.4753 241.066 26.1865L241.838 21.9969C241.838 21.9969 244.346 25.3856 248.36 25.0703C252.373 24.7549 260.856 18.6182 277.456 28.5441C277.456 28.5441 281.439 30.0108 284.258 28.2438C284.331 28.1932 284.418 28.1652 284.508 28.1642C284.597 28.1632 284.685 28.1887 284.759 28.2378C284.834 28.2869 284.892 28.3569 284.926 28.439C284.96 28.5216 284.969 28.6122 284.951 28.6993C284.574 30.3161 284.825 31.6226 286.124 33.2894C291.357 40.0169 291.798 50.5887 289.2 58.7678C288.062 62.1576 286.042 65.1839 283.345 67.5376C282.648 68.1633 274.29 73.304 274.22 72.8835C274.22 72.8835 273.533 68.7639 273.367 67.7328L273.327 67.4975L273.563 67.4274C274.457 67.1516 275.332 66.8173 276.182 66.4263C279.548 64.8546 282.442 62.2317 280.922 58.1521C280.613 57.3092 280.107 56.5508 279.447 55.9396C276.161 53.0064 273.147 56.6004 271.09 59.804C270.692 60.4121 270.366 61.0638 270.116 61.7461C270.197 61.3056 270.277 60.8751 270.362 60.4347C270.663 58.8229 270.961 57.2046 271.255 55.5792C271.757 52.9063 272.223 50.2533 272.715 47.5703C272.805 47.1148 273.603 44.6321 273.327 44.2516C273.327 44.2516 270.137 39.9018 257.62 42.0091C248.59 43.5108 249.182 37.7844 245.856 39.9318C245.069 40.4524 244.422 41.1572 243.97 41.9841C243.83 42.2539 243.706 42.5312 243.599 42.815C243.581 42.8506 243.566 42.8876 243.554 42.9252C243.328 43.5458 243.122 44.1715 242.922 44.7822C241.045 50.7338 239.806 57.161 240.469 63.413C241.276 70.9914 246.809 79.9013 255.614 79.1455C258.384 78.8216 261.086 78.0648 263.62 76.903" stroke="#3CA629" stroke-width="4.05" stroke-miterlimit="10"/>
<path d="M244.971 58.121C245.833 58.0965 246.507 57.2345 246.478 56.1954C246.448 55.1562 245.726 54.3338 244.865 54.3583C244.003 54.3823 243.329 55.2443 243.358 56.2835C243.388 57.3226 244.11 58.145 244.971 58.121Z" fill="#3CA629"/>
<path d="M256.759 61.2825C257.621 61.258 258.295 60.396 258.266 59.3574C258.236 58.3182 257.514 57.4953 256.653 57.5198C255.792 57.5443 255.117 58.4063 255.146 59.445C255.176 60.4841 255.898 61.307 256.759 61.2825Z" fill="#3CA629"/>
<path d="M251.671 61.9758C251.671 61.9758 247.111 62.977 247.572 60.6444C247.713 59.9135 248.856 52.7355 248.856 52.7355C248.856 52.7355 246.729 48.4608 241.166 49.4569" stroke="#3CA629" stroke-width="4.05" stroke-miterlimit="10"/>
<path d="M253.717 52.0968C253.717 52.0968 260.946 50.8704 263.715 56.6318" stroke="#3CA629" stroke-width="4.05" stroke-miterlimit="10"/>
<path d="M249.534 85.0415C243.84 88.0448 240.8 95.2729 243.183 100.504C247.156 109.218 257.615 111.781 266.259 109.263C275.871 106.46 282.934 97.6205 282.513 87.4842" stroke="#3CA629" stroke-width="4.05" stroke-miterlimit="10"/>
<path d="M284.007 251.223C300.516 212.94 306.511 145.37 306.511 145.37V239.645C306.511 241.166 306.81 242.672 307.393 244.077C307.976 245.482 308.831 246.758 309.908 247.833C310.986 248.908 312.265 249.761 313.673 250.343C315.081 250.925 316.59 251.224 318.115 251.223H354.736C356.109 251.245 357.441 250.759 358.477 249.86C359.513 248.962 360.18 247.712 360.349 246.353C360.423 245.604 360.338 244.847 360.101 244.133C359.864 243.419 359.479 242.762 358.972 242.205C358.465 241.648 357.846 241.203 357.157 240.9C356.467 240.596 355.72 240.44 354.966 240.441H339.967C339.369 240.439 338.779 240.301 338.242 240.037C337.706 239.773 337.237 239.391 336.871 238.919C336.505 238.446 336.252 237.897 336.131 237.313C336.011 236.728 336.025 236.124 336.174 235.546C345.204 200.006 350.787 158.29 339.034 121.373C336.606 113.755 331.373 106.967 325.193 101.722C318.099 95.6748 309.356 92.9018 300.396 90.8495C294.486 89.498 288.525 88.3797 282.512 87.4957C282.494 87.5017 282.475 87.5017 282.457 87.4957C282.417 87.4957 282.376 87.4957 282.351 87.4957H282.311H282.256H282.176" stroke="#3CA629" stroke-width="4.05" stroke-miterlimit="10"/>
<path d="M278.73 70.4863L278.068 82.4446C278.004 83.6134 278.372 84.7647 279.101 85.6812C279.83 86.5978 280.871 87.2165 282.026 87.4202H282.176C282.202 87.4132 282.23 87.4132 282.256 87.4202H282.281H282.352" stroke="#3CA629" stroke-width="4.05" stroke-miterlimit="10"/>
<path d="M282.457 87.4752H282.352H282.312H282.281H282.256H282.176H282.026C280.871 87.2715 279.83 86.6528 279.101 85.7363C278.372 84.8193 278.004 83.668 278.068 82.4997L278.73 70.5414" stroke="#3CA629" stroke-width="4.05" stroke-miterlimit="10"/>
<path d="M250.482 78.4006C250.155 78.2704 250.482 91.7555 242.42 97.612" stroke="#3CA629" stroke-width="4.05" stroke-miterlimit="10"/>
<path d="M142.55 251.227H116.725" stroke="#3CA629" stroke-width="4.05" stroke-miterlimit="10"/>
<path d="M394.849 251.227H182.758" stroke="#3CA629" stroke-width="4.05" stroke-miterlimit="10"/>
<path d="M67.8481 124.621C68.0969 129.669 67.9158 134.73 67.3063 139.747C66.5237 145.644 61.0607 153.137 59.8768 158.969C58.1862 167.358 60.7446 176.028 64.2562 183.816C68.5003 193.232 75.1873 202.702 74.5352 213.484C74.2011 218.18 72.801 222.739 70.4402 226.815C68.0799 230.89 64.8206 234.377 60.9102 237.011C55.554 240.587 49.4353 242.866 43.0411 243.668C42.1482 243.773 41.2402 243.858 40.3322 243.883C39.8305 243.883 39.3289 243.828 38.8272 243.788C21.821 242.352 4.37839 229.407 4.41853 211.387C4.41853 199.874 13.1874 190.864 14.6673 179.692C15.5753 172.859 13.5688 165.761 15.4249 159.129C18.4348 148.537 30.0683 142.761 35.1651 133.01C38.9175 125.812 39.5295 117.412 42.4993 109.864C46.633 99.3524 53.2348 87.339 62.2646 86.3379C64.8848 86.6342 67.4177 87.4586 69.7093 88.7606C75.3077 91.7639 76.7325 91.9541 77.8712 94.6321C79.0351 97.4302 77.2993 100.419 74.3997 101.315C69.5036 102.861 67.3916 112.787 67.8481 124.621Z" fill="#8BE386"/>
<path d="M72.7695 90.3894C87.4681 86.1397 96.809 92.3917 103.491 99.5997C110.173 106.808 109.862 114.992 109.862 114.992" stroke="#3CA629" stroke-width="4.05" stroke-miterlimit="10"/>
<path d="M118.36 231.365C118.138 242.823 116.683 254.224 114.021 265.373" stroke="#3CA629" stroke-width="4.05" stroke-miterlimit="10"/>
<path d="M154.886 324.678C149.503 333.919 136.736 340.481 121.114 344.565C93.3924 351.814 56.6911 351.248 36.4141 343.82C-6.19673 328.237 10.368 253.619 10.368 253.619C10.368 253.619 84.0666 239.779 133.209 278.647C137.903 282.35 142.261 286.459 146.232 290.926C151.665 297.058 155.001 302.669 156.576 307.795C158.507 314.182 157.735 319.808 154.886 324.678Z" stroke="#3CA629" stroke-width="4.05" stroke-miterlimit="10"/>
<path d="M126.637 343.306C126.637 343.306 100.817 414.821 144.195 433.086C187.573 451.351 -15.1012 453.784 29.6366 433.086C74.3744 412.388 48.6595 347.676 48.6595 347.676" stroke="#3CA629" stroke-width="4.05" stroke-miterlimit="10"/>
<path d="M179.161 100.275C178.624 98.6382 178.845 92.9468 179.02 89.7332C179.054 89.1266 179.323 88.5564 179.771 88.1445C180.218 87.7325 180.809 87.5103 181.418 87.5258L232.954 87.9763C233.823 87.9843 234.653 88.3342 235.265 88.9499C235.876 89.5661 236.219 90.398 236.219 91.265V129.853C236.219 130.286 236.134 130.715 235.967 131.115C235.801 131.515 235.556 131.878 235.249 132.184C234.941 132.489 234.576 132.731 234.174 132.895C233.773 133.06 233.342 133.144 232.909 133.142L182.688 132.956C181.96 132.926 181.272 132.617 180.768 132.093C180.264 131.568 179.983 130.87 179.984 130.143V127.2C183.555 128.862 190.308 129.372 190.308 129.372C192.711 129.307 196.508 129.017 198.59 127.826C200.496 126.734 202.904 125.168 203.23 122.795C203.356 121.878 203.113 120.948 202.554 120.208C201.994 119.469 201.165 118.981 200.246 118.851C199.693 118.741 199.122 118.781 198.59 118.966" stroke="#3CA629" stroke-width="4.05" stroke-miterlimit="10"/>
<path d="M229.457 207.209C229.433 207.897 229.201 208.563 228.79 209.116C227.611 210.563 225.278 210.277 223.693 209.832C217.026 207.94 213.023 215.148 210.504 220.003C204.143 232.277 194.602 243.68 182.698 251.228C181.925 251.729 181.137 252.199 180.34 252.66C168.706 259.357 153.632 258.111 142.379 251.158L156.767 215.894L158.192 217.03C166.88 223.873 177.576 220.033 184.98 213.281C187.035 211.413 188.849 209.295 190.378 206.979C192.926 203.069 195.109 198.85 198.595 195.671C203.421 191.271 210.484 190.41 216.585 192.272C222.685 194.135 230.009 200.121 229.457 207.209Z" fill="white"/>
<path d="M229.397 204.711C229.397 204.711 227.761 196.071 213.018 202.814" stroke="#3CA629" stroke-width="4.05" stroke-miterlimit="10"/>
<path d="M221.195 194.34C221.195 194.34 212.005 191.407 206.888 198.415" stroke="#3CA629" stroke-width="4.05" stroke-miterlimit="10"/>
<path d="M35.6768 243.805C38.1304 244.024 40.6005 243.983 43.0461 243.685C49.4387 242.872 55.554 240.588 60.9101 237.012C64.8206 234.379 68.0793 230.892 70.4401 226.816C72.8004 222.74 74.2011 218.182 74.5352 213.487C75.1873 202.7 68.5153 193.229 64.2562 183.814C60.7446 176.02 58.1861 167.35 59.8817 158.971C61.0606 153.134 66.5137 145.646 67.3013 139.744C67.9138 134.726 68.0984 129.666 67.8531 124.617C67.3966 112.779 69.5035 102.843 74.3997 101.332C77.2993 100.436 79.0401 97.4424 77.8712 94.6493C76.7525 91.9663 75.3127 91.8061 69.7092 88.7677C55.101 80.8389 44.9424 95.6203 39.3339 109.871C36.359 117.425 35.757 125.814 31.9996 133.012C26.9028 142.768 15.2442 148.529 12.2644 159.141C10.4032 165.768 12.4099 172.871 11.5069 179.694C10.032 190.861 1.27808 199.866 1.253 211.389C1.21287 229.404 18.6756 242.359 35.6768 243.805Z" stroke="#3CA629" stroke-width="4.05" stroke-miterlimit="10"/>
<path d="M154.886 324.68C153.627 333.62 151.75 343.876 149.684 354.143C143.824 383.24 136.37 412.513 136.37 412.513" stroke="#3CA629" stroke-width="4.05" stroke-miterlimit="10"/>
<path d="M156.556 307.795C156.581 306.704 156.596 305.703 156.556 304.752C156.11 284.229 141.321 279.323 134.96 278.147C134.011 277.962 133.051 277.84 132.085 277.782" stroke="#3CA629" stroke-width="4.05" stroke-miterlimit="10"/>
<path d="M138.577 403.638C139.396 403.138 140.333 402.864 141.293 402.846C142.253 402.827 143.2 403.065 144.037 403.534C144.875 404.002 145.572 404.685 146.056 405.512C146.541 406.339 146.796 407.28 146.794 408.238C146.794 408.308 146.794 408.393 146.794 408.493C146.714 410.965 146.061 413.385 144.887 415.563C143.713 417.741 142.049 419.618 140.027 421.047L133.054 425.998" stroke="#3CA629" stroke-width="4.05" stroke-miterlimit="10"/>
<path d="M59.3652 165.587C60.3384 165.191 61.3317 164.841 62.335 164.516C64.447 160.621 64.1209 152.097 63.9203 148.998L66.0323 144.248C71.8615 147.822 79.577 146.48 86.7357 143.993C87.741 143.642 88.7187 143.217 89.6603 142.721C94.2053 140.639 100.576 135.713 97.7169 133.171C94.8575 130.628 95.0582 125.732 96.8892 122.729C97.4461 121.808 98.4343 120.902 99.4627 121.187C100.155 121.378 100.601 122.023 100.998 122.619C101.499 123.365 102.001 124.081 102.503 124.811C102.678 125.057 102.964 125.312 103.235 125.202C103.35 125.127 103.439 125.019 103.491 124.891C104.374 123.079 104.208 120.482 104.359 118.494C104.534 116.127 104.67 113.744 104.74 111.366C104.78 110.055 105.051 108.648 106.461 108.188C106.745 108.079 107.051 108.035 107.355 108.061C107.659 108.087 107.953 108.182 108.215 108.338C108.476 108.495 108.699 108.708 108.865 108.963C109.031 109.218 109.137 109.508 109.175 109.81C110.201 115.563 110.351 121.437 109.621 127.234C108.929 133.306 107.68 139.748 103.777 144.643C101.554 147.468 98.5743 149.605 95.1836 150.81C91.9027 151.947 92.0081 155.896 92.0081 159.36V165.111C102.096 167.153 111.573 169.616 119.409 176.624C124.591 181.351 129.467 186.402 134.007 191.746C148.299 208.479 151.389 211.618 158.272 217.029C166.961 223.872 177.661 220.032 185.061 213.28C187.112 211.411 188.922 209.294 190.448 206.978C192.997 203.068 195.179 198.849 198.66 195.67C203.491 191.27 210.555 190.409 216.655 192.271C222.755 194.134 230.089 200.12 229.507 207.208C229.483 207.896 229.252 208.56 228.845 209.115C227.666 210.562 225.334 210.276 223.748 209.831C217.076 207.939 213.078 215.147 210.555 220.002C204.199 232.276 194.652 243.679 182.748 251.227C181.975 251.728 181.193 252.198 180.39 252.659C167.091 260.317 149.262 257.584 137.824 247.828L110.233 224.457" stroke="#3CA629" stroke-width="4.05" stroke-miterlimit="10"/>
<path d="M62.335 164.517C62.335 164.517 75.5135 160.452 92.008 165.127" stroke="#3CA629" stroke-width="4.05" stroke-miterlimit="10"/>
<path d="M179.983 127.2C179.983 127.2 180.084 144.219 184.152 150.771" stroke="#3CA629" stroke-width="4.05" stroke-miterlimit="10"/>
<path d="M193.353 49.3027C190.222 54.6336 190.368 58.4178 191.181 64.5597C191.248 65.0828 191.166 65.6139 190.943 66.0924C190.721 66.5709 190.367 66.9769 189.923 67.2637C189.48 67.5505 188.964 67.7062 188.436 67.7132C187.907 67.7197 187.388 67.5776 186.937 67.3027C168.877 56.9312 151.976 65.1353 130.415 60.0547C122.499 58.1976 112.631 54.3583 105.864 48.1764C103.619 44.8492 102.42 40.9294 102.422 36.9189C102.422 20.105 125.443 6.46985 153.827 6.46985C172.022 6.46985 188.005 12.0711 197.145 20.5105C197.145 20.5105 197.145 20.5105 197.17 20.5405C199.463 23.8302 200.715 27.7312 200.762 31.7381C200.762 37.7899 196.267 44.2971 193.353 49.3027Z" fill="#DEFADD"/>
<path d="M200.682 31.7487V32.1741C200.576 38.0657 197.622 43.5418 194.115 48.2821C191.767 51.4556 188.983 54.9745 189.645 58.8639C189.936 60.5758 190.894 62.1325 191.15 63.8694C191.406 65.6064 190.473 67.7337 188.732 67.8238C187.629 67.8789 186.685 67.093 185.813 66.4173C180.63 62.4128 173.898 60.9111 167.352 60.6509C160.805 60.3906 154.268 61.2465 147.717 61.4317C138.276 61.702 128.684 60.5257 119.96 56.9267C112.119 53.6631 104.97 48.3572 100.265 41.2943C95.6447 34.3315 98.3787 24.2302 103.305 18.1785C107.93 12.5021 114.622 8.86808 121.49 6.31024C139.956 -0.572429 161.036 -0.407246 179.251 7.12614C184.659 9.33861 189.876 12.2619 193.939 16.4766C197.903 20.5861 200.647 26.0623 200.682 31.7487Z" stroke="#3CA629" stroke-width="4.05" stroke-miterlimit="10"/>
<path d="M124.902 38.4462C128.819 38.4462 131.995 35.2776 131.995 31.3683C131.995 27.4594 128.819 24.2904 124.902 24.2904C120.984 24.2904 117.808 27.4594 117.808 31.3683C117.808 35.2776 120.984 38.4462 124.902 38.4462Z" fill="white"/>
<path d="M147.838 38.4462C151.755 38.4462 154.931 35.2776 154.931 31.3683C154.931 27.4594 151.755 24.2904 147.838 24.2904C143.92 24.2904 140.744 27.4594 140.744 31.3683C140.744 35.2776 143.92 38.4462 147.838 38.4462Z" fill="white"/>
<path d="M171.219 38.4462C175.137 38.4462 178.313 35.2776 178.313 31.3683C178.313 27.4594 175.137 24.2904 171.219 24.2904C167.302 24.2904 164.126 27.4594 164.126 31.3683C164.126 35.2776 167.302 38.4462 171.219 38.4462Z" fill="white"/>
<g opacity="0.54">
<path opacity="0.54" d="M307.525 328.114L304.641 369.66C303.322 372.168 301.673 374.49 299.739 376.563C299.529 376.488 299.318 376.408 299.112 376.313C298.726 376.183 298.345 376.028 297.984 375.877C292.139 373.319 287.7 368.554 286.405 363.153C285.237 358.423 286.29 353.312 284.033 348.867C281.278 343.391 273.789 339.957 272.871 333.78C272.008 327.999 277.225 322.698 276.382 317.032C275.379 310.625 267.528 306.825 266.058 300.568C265.14 296.679 265.963 292.214 265.617 288.21C265.235 283.73 264.481 279.29 263.364 274.935C274.988 274.094 286.817 280.486 290.584 289.641C293.659 297.15 291.808 305.894 296.604 312.722C299.223 316.421 303.582 319.189 305.84 323.059C306.536 324.266 307.044 325.572 307.345 326.933C307.345 327.028 307.345 327.123 307.38 327.198C307.38 327.353 307.42 327.463 307.44 327.579C307.49 327.924 307.525 328.114 307.525 328.114Z" fill="#8BE386"/>
<path opacity="0.54" d="M307.545 328.078C307.545 328.078 307.51 327.908 307.47 327.578C307.504 327.709 307.529 327.843 307.545 327.978C307.552 327.993 307.556 328.011 307.556 328.028C307.556 328.045 307.552 328.062 307.545 328.078Z" fill="#8BE386"/>
</g>
<path d="M345.947 311.866C344.442 317.262 336.2 320.54 335.206 326.071C334.328 330.977 339.756 335.552 338.858 340.532C337.9 345.873 330.099 348.827 327.235 353.547C324.902 357.381 325.991 361.791 324.787 365.871C323.392 370.506 318.767 374.646 312.667 376.838C312.285 376.973 311.924 377.103 311.538 377.218C311.327 377.278 311.097 377.354 310.886 377.409C308.879 375.752 306.547 372.833 304.655 369.685L307.525 328.114C309.762 326.222 312.321 324.49 314.101 322.387C316.033 320.12 316.931 317.642 317.503 315.044H317.563V314.759C318.401 310.659 318.476 306.364 320.407 302.475C324.325 294.561 336.621 289.045 348.721 289.771C347.579 293.509 346.798 297.347 346.388 301.234C346.042 304.673 346.895 308.527 345.947 311.866Z" fill="#8BE386"/>
<path d="M317.584 314.723V315.009H317.523L317.584 314.723Z" fill="#8BE386"/>
<path d="M317.583 314.723L317.523 315.009C316.951 317.606 316.053 320.084 314.122 322.352C312.341 324.454 309.782 326.186 307.545 328.078C307.554 328.052 307.554 328.024 307.545 327.998C307.529 327.863 307.504 327.729 307.47 327.598C307.47 327.482 307.429 327.372 307.409 327.217C307.409 327.142 307.409 327.047 307.374 326.952C307.073 325.591 306.566 324.285 305.869 323.078C303.612 319.208 299.252 316.44 296.634 312.741C296.634 312.741 297.818 293.244 307.816 287.313C317.297 281.706 317.583 311.48 317.583 314.723Z" fill="#8BE386"/>
<path d="M317.584 314.723V315.009H317.523L317.584 314.723Z" fill="#8BE386"/>
<path d="M307.524 327.998V328.113C307.524 328.113 307.489 327.943 307.449 327.613C307.483 327.739 307.508 327.868 307.524 327.998Z" fill="#8BE386"/>
<path d="M306.632 328.113C308.859 326.221 311.448 324.464 313.234 322.366C318.25 316.465 316.314 308.921 319.53 302.449C323.442 294.545 335.748 289.034 347.843 289.755C346.695 293.492 345.912 297.33 345.505 301.218C345.144 304.682 346.007 308.531 345.059 311.885C343.519 317.281 335.307 320.554 334.308 326.085C333.42 330.986 338.863 335.561 337.965 340.536C337.007 345.882 329.212 348.836 326.342 353.551C323.999 357.39 325.098 361.79 323.884 365.88C322.414 370.81 317.297 375.165 310.63 377.222C310.419 377.292 310.189 377.367 309.973 377.423C307.966 375.766 305.634 372.847 303.737 369.694" stroke="#3CA629" stroke-width="4.05" stroke-miterlimit="10"/>
<path d="M340.459 295.946C322.424 315.313 313.941 356.143 310.64 377.227C310.369 379.004 310.139 380.631 309.918 382.097" stroke="#3CA629" stroke-width="4.05" stroke-miterlimit="10"/>
<path d="M342.125 393.971L333.852 442.82C333.656 444.158 332.99 445.383 331.975 446.279C330.959 447.174 329.659 447.681 328.304 447.711H284.921C283.552 447.68 282.24 447.162 281.221 446.25C280.201 445.339 279.542 444.094 279.362 442.74L271.712 393.966L342.125 393.971Z" stroke="#3CA629" stroke-width="4.05" stroke-miterlimit="10"/>
<path d="M350.005 388.516C349.931 389.965 349.311 391.333 348.269 392.344C347.227 393.356 345.841 393.938 344.387 393.973H269.585C268.148 393.938 266.775 393.368 265.737 392.375C264.699 391.382 264.071 390.038 263.976 388.607C263.66 385.103 266.259 382.099 269.585 382.099H344.387C347.683 382.104 350.271 385.063 350.005 388.516Z" stroke="#3CA629" stroke-width="4.05" stroke-miterlimit="10"/>
<path d="M298.852 376.552C302.062 373.374 305.995 366.286 307.736 360.499C309.171 355.729 306.648 350.818 306.066 345.923C305.163 338.259 308.975 330.02 304.957 323.073C302.715 319.198 298.355 316.445 295.736 312.736C290.916 305.903 292.767 297.164 289.686 289.67C285.919 280.505 274.095 274.113 262.477 274.964C263.587 279.32 264.34 283.76 264.729 288.239C265.075 292.243 264.227 296.708 265.16 300.593C266.63 306.849 274.516 310.639 275.485 317.051C276.337 322.717 271.115 328.023 271.973 333.794C272.896 339.981 280.376 343.4 283.14 348.886C285.387 353.336 284.334 358.442 285.498 363.167C286.957 369.074 292.13 374.265 298.852 376.552Z" stroke="#3CA629" stroke-width="4.05" stroke-miterlimit="10"/>
<path d="M269.569 282.142C286.882 304.587 295.028 351.885 298.234 376.302C298.505 378.419 298.736 380.361 298.941 382.098" stroke="#3CA629" stroke-width="4.05" stroke-miterlimit="10"/>
<path d="M295.726 312.736C295.726 312.736 296.915 293.239 306.908 287.312C316.901 281.386 316.69 314.598 316.69 314.598" stroke="#3CA629" stroke-width="4.05" stroke-miterlimit="10"/>
<path d="M306.632 328.113C306.632 328.113 304.59 316.96 308.172 305.993" stroke="#3CA629" stroke-width="4.05" stroke-miterlimit="10"/>
</g>
<defs>
<clipPath id="clip0_196_364">
<rect width="454" height="449" fill="white"/>
</clipPath>
</defs>
</svg>
