<svg width="94" height="161" viewBox="0 0 94 161" fill="none" xmlns="http://www.w3.org/2000/svg">
<g id="Illustration - Asset 43" clip-path="url(#clip0_39_594)">
<g id="Asset 43">
<g id="Clip path group">
<mask id="mask0_39_594" style="mask-type:luminance" maskUnits="userSpaceOnUse" x="0" y="0" width="94" height="161">
<g id="clip0_3_49765">
<path id="Vector" d="M93.9907 0.251953H0.120056V160.899H93.9907V0.251953Z" fill="white"/>
</g>
</mask>
<g mask="url(#mask0_39_594)">
<g id="Asset 43_2">
<g id="Layer 2">
<g id="Layer 1">
<path id="Vector_2" d="M27.8859 129.218V134.126C27.8831 134.986 28.1345 135.828 28.6084 136.544C29.0823 137.261 29.7572 137.82 30.5477 138.15C31.0116 138.347 31.5489 138.568 32.1349 138.764L32.428 139.476V143.279C32.4264 143.941 32.6205 144.589 32.9858 145.139C33.351 145.69 33.8709 146.119 34.4793 146.372L35.5294 146.765V147.697C35.6683 150.783 36.9858 153.696 39.2077 155.83C41.4297 157.964 44.3849 159.155 47.4585 159.155C50.5321 159.155 53.4875 157.964 55.7092 155.83C57.9313 153.696 59.2488 150.783 59.3878 147.697L59.7785 146.642L60.4865 146.372C61.095 146.119 61.615 145.69 61.9799 145.139C62.3453 144.589 62.5393 143.941 62.5378 143.279V139.5V139.77V138.96L64.5649 138.175C65.3553 137.844 66.03 137.285 66.504 136.569C66.9781 135.853 67.2292 135.01 67.2267 134.15V129.242L27.8859 129.218Z" fill="#D9E1E4"/>
<path id="Vector_2_2" d="M47.4947 152.406C43.6277 152.41 39.7882 151.754 36.1394 150.467C35.8498 150.347 35.6173 150.119 35.49 149.832C35.3627 149.544 35.3504 149.217 35.4557 148.921C35.575 148.63 35.8029 148.398 36.0904 148.274C36.378 148.15 36.7024 148.145 36.9941 148.259C43.4784 150.525 50.5342 150.525 57.0186 148.259C57.1626 148.199 57.3173 148.169 57.4729 148.17C57.6291 148.171 57.7827 148.203 57.9263 148.265C58.0693 148.327 58.1992 148.417 58.3073 148.529C58.4155 148.642 58.5004 148.775 58.557 148.921C58.6717 149.211 58.6692 149.535 58.5509 149.823C58.4321 150.112 58.2067 150.342 57.9222 150.467C54.6024 151.78 51.0622 152.438 47.4947 152.406Z" fill="#94B5BF"/>
<path id="Vector_3" d="M47.8858 136.095C41.1059 136.119 34.3702 134.999 27.9591 132.782C27.6677 132.669 27.4332 132.443 27.3072 132.155C27.1813 131.868 27.1742 131.542 27.2876 131.248C27.4009 130.955 27.6254 130.72 27.9116 130.593C28.1978 130.467 28.5224 130.46 28.8138 130.573C29.0092 130.573 47.7637 137.74 65.1996 130.573C65.3441 130.517 65.4978 130.49 65.6524 130.493C65.8076 130.497 65.9602 130.531 66.1017 130.593C66.2437 130.656 66.3716 130.746 66.4787 130.858C66.5858 130.971 66.6697 131.103 66.7258 131.248C66.7819 131.394 66.8092 131.548 66.8057 131.704C66.8022 131.859 66.7683 132.013 66.7061 132.155C66.644 132.298 66.554 132.426 66.4423 132.534C66.3306 132.642 66.1987 132.726 66.0542 132.782C60.2676 135.054 54.098 136.179 47.8858 136.095Z" fill="#94B5BF"/>
<path id="Vector_4" d="M62.0491 138.813V139.624V139.353V142.004L61.5851 142.176C56.7997 143.942 51.7601 144.912 46.6645 145.047C41.666 144.942 36.7176 144.022 32.0125 142.323V139.353L31.866 138.986C36.5642 140.717 41.5152 141.654 46.518 141.759L62.0491 138.813Z" fill="#94B5BF"/>
<path id="Vector_5" d="M70.1321 126.23V116.733C70.1321 116.733 69.0092 99.1369 77.1407 85.9827C85.2727 72.8284 92.6476 64.877 92.6476 46.2013C92.6476 27.5253 76.6282 1.58521 47.0553 1.58521C17.4827 1.58521 1.43884 27.5253 1.43884 46.2013C1.43884 64.877 8.76485 72.8533 16.9699 85.9827C21.7985 93.6193 24.2396 102.535 23.9785 111.579V126.304C23.9714 126.724 24.0851 127.138 24.306 127.495C24.5269 127.852 24.8456 128.137 25.2239 128.317C32.093 131.384 39.5263 132.97 47.0432 132.97C54.5599 132.97 61.9935 131.384 68.8626 128.317C69.2568 128.136 69.5888 127.84 69.8152 127.469C70.0411 127.097 70.1518 126.666 70.1321 126.23Z" fill="#8BE386"/>
<path id="Vector_6" opacity="0.5" d="M76.3341 86.5662C71.5057 94.2028 69.0647 103.118 69.3255 112.163V126.887C69.3245 127.309 69.2047 127.722 68.9803 128.078C68.7554 128.434 68.435 128.719 68.056 128.9C62.9906 131.21 57.5912 132.692 52.0608 133.293C52.0608 131.55 51.9143 129.415 51.792 126.887V112.163C51.4943 103.124 53.9105 94.2048 58.7273 86.5662C66.8593 73.4363 74.2342 65.4849 74.2342 46.7846C74.2342 30.0475 61.3648 7.51862 37.3844 3.00301C40.2976 2.44046 43.2579 2.16104 46.2244 2.16861C75.8216 2.16861 91.841 28.1087 91.841 46.8828C91.841 65.657 84.4418 73.4363 76.3341 86.5662Z" fill="#64D65E"/>
<path id="Vector_7" d="M75.9439 86.1487C72.3138 92.2672 70.4297 99.272 70.4985 106.395C70.4985 110.174 70.4985 112.383 70.4985 112.383L68.8621 126.396C68.8611 126.818 68.7413 127.231 68.5169 127.587C68.292 127.943 67.9716 128.228 67.5926 128.408C62.5499 130.706 57.1752 132.18 51.6707 132.777C51.6707 132.605 51.6707 132.483 51.6707 132.311C56.0341 131.922 60.3237 130.932 64.4178 129.366C65.1991 128.998 65.6388 129.587 65.6388 128.728V111.721C65.3755 102.687 67.8079 93.7812 72.6231 86.1487C80.7546 73.0188 88.1786 65.0679 88.1786 46.3672C88.1786 27.6667 72.6473 2.70828 44.076 1.7757C44.6865 1.7757 45.3214 1.7757 45.9319 1.7757C75.4315 1.72662 91.4751 27.6667 91.4751 46.3426C91.4751 65.0186 84.0759 72.9945 75.9439 86.1487Z" fill="#45CA3D"/>
<path id="Vector_8" d="M16.9699 86.1533C21.7938 93.7833 24.2347 102.69 23.9785 111.725V126.45C23.9817 126.875 24.1051 127.289 24.3343 127.646C24.5635 128.002 24.889 128.286 25.2727 128.462C30.3327 130.75 35.7246 132.208 41.2434 132.782C41.2434 132.61 41.2434 132.487 41.2434 132.316C36.8583 131.569 32.5892 130.249 28.545 128.389C27.7392 128.021 27.2752 129.591 27.2752 128.732L29.4241 119.358C31.723 108.945 30.2782 98.051 25.346 88.6074C24.9064 87.7978 24.418 86.9878 23.9052 86.1533C15.7978 72.999 8.3741 65.0481 8.3741 46.3474C8.3741 27.647 20.2667 2.71302 48.9601 1.78046C48.374 1.78046 47.7391 1.78046 47.1042 1.78046C40.2988 1.68001 33.5612 3.14993 27.4099 6.07708C21.2585 9.00423 15.8573 13.3106 11.6219 18.6648C5.28554 26.5129 1.70579 36.2444 1.43884 46.3474C1.43884 65.0481 8.83808 72.999 16.9699 86.1533Z" fill="white"/>
<path id="Vector_9" d="M11.8905 79.3974C11.6668 79.3994 11.4464 79.344 11.2499 79.2364C11.0534 79.1292 10.8873 78.9733 10.7671 78.7838C4.73543 69.4337 0.120056 61.0896 0.120056 46.193C0.288026 38.594 2.35374 31.1593 6.12739 24.5721C6.21381 24.4173 6.32974 24.2811 6.46862 24.1713C6.6075 24.0616 6.76659 23.9804 6.9367 23.9326C7.10686 23.8847 7.2847 23.871 7.46012 23.8923C7.63548 23.9136 7.80499 23.9695 7.95887 24.0568C8.11008 24.1433 8.24274 24.2591 8.34923 24.3974C8.45571 24.5357 8.53394 24.6938 8.57932 24.8626C8.62471 25.0314 8.63643 25.2076 8.61379 25.381C8.5911 25.5543 8.5345 25.7215 8.44727 25.8728C4.89497 32.0624 2.94687 39.0497 2.78183 46.193C2.78183 60.378 7.00649 68.0593 12.9894 77.3359C13.088 77.4811 13.1563 77.6452 13.1901 77.8178C13.2239 77.9905 13.2225 78.1683 13.186 78.3399C13.1494 78.5121 13.0785 78.6752 12.9776 78.8189C12.8766 78.9626 12.7478 79.084 12.5987 79.1764C12.3897 79.3191 12.1431 79.3963 11.8905 79.3974Z" fill="#03273C"/>
<path id="Vector_10" d="M70.2539 107.598C69.9062 107.561 69.5863 107.389 69.3629 107.119C69.1395 106.848 69.0299 106.501 69.0571 106.15C69.2558 104.17 69.5736 102.202 70.0098 100.261C71.1969 94.9509 73.2695 89.8812 76.139 85.266C77.3847 83.2533 78.581 81.3395 79.8267 79.4984C86.3223 69.5104 91.4504 61.6081 91.4504 46.1962C91.4504 28.0602 76.0657 2.92992 47.177 2.92992C36.3801 2.76596 25.9208 6.71095 17.8974 13.9735C17.7734 14.1199 17.6197 14.238 17.4466 14.3199C17.2735 14.4018 17.085 14.4456 16.8937 14.4482C16.7024 14.451 16.5127 14.4126 16.3373 14.3357C16.162 14.2588 16.005 14.1451 15.8769 14.0023C15.7489 13.8594 15.6526 13.6907 15.5946 13.5075C15.5367 13.3243 15.5184 13.1307 15.5409 12.9398C15.5634 12.7488 15.6262 12.565 15.7252 12.4004C15.8242 12.2358 15.957 12.0944 16.1148 11.9857C24.5976 4.31151 35.642 0.124099 47.0549 0.254929C77.6773 0.254929 93.9899 26.9313 93.9899 46.1962C93.9899 62.4177 88.3979 71.0076 81.9266 80.9464C80.7546 82.787 79.4846 84.6769 78.2636 86.6891C75.5608 91.06 73.6045 95.8544 72.476 100.874C72.0641 102.702 71.7705 104.555 71.5972 106.42C71.5552 106.748 71.3955 107.049 71.1479 107.266C70.9002 107.482 70.5824 107.601 70.2539 107.598Z" fill="#03273C"/>
<path id="Vector_11" d="M47.3244 134.274C39.5207 134.241 31.8099 132.569 24.6871 129.365C24.0728 129.086 23.5522 128.633 23.1882 128.063C22.8243 127.492 22.6324 126.828 22.6358 126.15V115.106C22.6796 114.783 22.8385 114.486 23.0832 114.272C23.328 114.057 23.6419 113.938 23.9668 113.938C24.2917 113.938 24.6056 114.057 24.8503 114.272C25.095 114.486 25.254 114.783 25.2977 115.106V126.15C25.2988 126.313 25.345 126.473 25.4312 126.612C25.5175 126.751 25.6403 126.863 25.7861 126.936C32.4761 129.933 39.7189 131.482 47.0437 131.482C54.3684 131.482 61.6109 129.933 68.3011 126.936C68.4532 126.869 68.5831 126.759 68.6741 126.62C68.765 126.48 68.8136 126.317 68.8141 126.15V109.929C68.8141 109.575 68.952 109.235 69.1987 108.982C69.4453 108.73 69.7808 108.585 70.1326 108.579C70.4889 108.579 70.8305 108.721 71.0822 108.974C71.3344 109.227 71.4759 109.571 71.4759 109.929V126.224C71.4698 126.906 71.2717 127.572 70.9043 128.145C70.5369 128.719 70.0153 129.176 69.4003 129.463C62.4701 132.639 54.941 134.279 47.3244 134.274Z" fill="#03273C"/>
<path id="Vector_12" d="M23.2213 103.325C22.9141 103.324 22.6168 103.216 22.3805 103.019C22.1443 102.822 21.9839 102.548 21.927 102.245C21.1991 98.4797 20.0097 94.8199 18.3861 91.349C18.3119 91.191 18.2695 91.0199 18.2612 90.8457C18.253 90.671 18.2792 90.4968 18.3382 90.3327C18.3971 90.1687 18.4879 90.0178 18.6051 89.8888C18.7222 89.7598 18.8636 89.6557 19.021 89.5821C19.3418 89.4302 19.7092 89.4124 20.0432 89.5318C20.3771 89.6511 20.6505 89.8985 20.8036 90.22C22.5253 93.9006 23.7805 97.7839 24.5399 101.779C24.6047 102.127 24.531 102.486 24.3346 102.78C24.1382 103.074 23.8348 103.278 23.4899 103.349L23.2213 103.325Z" fill="#03273C"/>
<path id="Vector_13" d="M77.1103 64.3188C78.1797 61.4071 77.3751 58.4268 75.3127 57.6614C73.2503 56.8965 70.7112 58.637 69.6419 61.5488C68.5725 64.4605 69.3771 67.4408 71.4395 68.2061C73.5019 68.971 76.0409 67.231 77.1103 64.3188Z" fill="#64D65E"/>
<path id="Vector_14" d="M77.8729 54.6157C79.2218 54.6157 80.3149 53.5171 80.3149 52.1616C80.3149 50.806 79.2218 49.7075 77.8729 49.7075C76.5241 49.7075 75.431 50.806 75.431 52.1616C75.431 53.5171 76.5241 54.6157 77.8729 54.6157Z" fill="#64D65E"/>
<path id="Vector_15" opacity="0.75" d="M71.3768 54.9598C71.9166 54.9598 72.3537 54.5205 72.3537 53.9781C72.3537 53.4361 71.9166 52.9968 71.3768 52.9968C70.8376 52.9968 70.4005 53.4361 70.4005 53.9781C70.4005 54.5205 70.8376 54.9598 71.3768 54.9598Z" fill="#64D65E"/>
<path id="Vector_16" d="M67.3722 68.3045C68.2627 68.3045 68.9839 67.5792 68.9839 66.6849C68.9839 65.79 68.2627 65.0647 67.3722 65.0647C66.4822 65.0647 65.7606 65.79 65.7606 66.6849C65.7606 67.5792 66.4822 68.3045 67.3722 68.3045Z" fill="#64D65E"/>
<path id="Vector_17" opacity="0.35" d="M75.6761 46.4671C76.6742 46.4671 77.4828 45.654 77.4828 44.6511C77.4828 43.648 76.6742 42.835 75.6761 42.835C74.6779 42.835 73.8688 43.648 73.8688 44.6511C73.8688 45.654 74.6779 46.4671 75.6761 46.4671Z" fill="#64D65E"/>
<path id="Vector_18" opacity="0.35" d="M69.8152 49.7524C70.6648 49.7524 71.3536 49.0601 71.3536 48.2063C71.3536 47.3524 70.6648 46.6602 69.8152 46.6602C68.9652 46.6602 68.2764 47.3524 68.2764 48.2063C68.2764 49.0601 68.9652 49.7524 69.8152 49.7524Z" fill="#64D65E"/>
<path id="Vector_19" opacity="0.35" d="M66.0294 58.983C66.7445 58.983 67.3237 58.4004 67.3237 57.6823C67.3237 56.9636 66.7445 56.3816 66.0294 56.3816C65.3148 56.3816 64.7352 56.9636 64.7352 57.6823C64.7352 58.4004 65.3148 58.983 66.0294 58.983Z" fill="#64D65E"/>
<path id="Vector_20" opacity="0.75" d="M61.9511 32.4802C62.4908 32.4802 62.9279 32.0407 62.9279 31.4985C62.9279 30.9564 62.4908 30.5168 61.9511 30.5168C61.4118 30.5168 60.9747 30.9564 60.9747 31.4985C60.9747 32.0407 61.4118 32.4802 61.9511 32.4802Z" fill="#45CA3D"/>
<path id="Vector_21" opacity="0.35" d="M57.6529 23.9873C58.651 23.9873 59.4601 23.1742 59.4601 22.1713C59.4601 21.1683 58.651 20.3552 57.6529 20.3552C56.6552 20.3552 55.8461 21.1683 55.8461 22.1713C55.8461 23.1742 56.6552 23.9873 57.6529 23.9873Z" fill="#45CA3D"/>
<path id="Vector_22" opacity="0.35" d="M56.5547 30.5399C57.4042 30.5399 58.093 29.8477 58.093 28.9939C58.093 28.14 57.4042 27.4478 56.5547 27.4478C55.7051 27.4478 55.0163 28.14 55.0163 28.9939C55.0163 29.8477 55.7051 30.5399 56.5547 30.5399Z" fill="#45CA3D"/>
<path id="Vector_23" opacity="0.35" d="M61.3158 39.3001C62.0309 39.3001 62.6101 38.7178 62.6101 37.9994C62.6101 37.2811 62.0309 36.6987 61.3158 36.6987C60.6012 36.6987 60.0215 37.2811 60.0215 37.9994C60.0215 38.7178 60.6012 39.3001 61.3158 39.3001Z" fill="#45CA3D"/>
<path id="Vector_24" d="M50.1568 132.629C50.0201 132.629 49.8847 132.602 49.7586 132.549C49.6325 132.495 49.5184 132.417 49.4228 132.319C49.3272 132.221 49.2522 132.104 49.2021 131.976C49.152 131.848 49.1279 131.712 49.1312 131.574V94.0752H43.9053V131.157C43.8672 131.406 43.7415 131.633 43.5512 131.797C43.3608 131.962 43.1183 132.052 42.8675 132.052C42.6166 132.052 42.3741 131.962 42.1837 131.797C41.9934 131.633 41.8677 131.406 41.8296 131.157V94.0752H36.7502C34.872 94.0752 33.0708 93.3256 31.7427 91.9909C30.4145 90.6561 29.6685 88.8455 29.6685 86.9582V85.6331C29.6685 83.7453 30.4145 81.9352 31.7427 80.6005C33.0708 79.2658 34.872 78.5161 36.7502 78.5161C38.6285 78.5161 40.4297 79.2658 41.7578 80.6005C43.0859 81.9352 43.832 83.7453 43.832 85.6331V91.9893H49.0579V85.6331C49.1641 83.8144 49.9578 82.1054 51.2765 80.856C52.595 79.606 54.3396 78.9097 56.1518 78.9097C57.9646 78.9097 59.7087 79.606 61.0272 80.856C62.3462 82.1054 63.1397 83.8144 63.2458 85.6331V86.9582C63.2398 88.8227 62.5085 90.6109 61.2081 91.9411C59.9078 93.2707 58.141 94.0366 56.2863 94.0752H51.4023V131.574C51.4048 131.731 51.373 131.886 51.3083 132.029C51.2436 132.172 51.1486 132.298 51.0294 132.399C50.9101 132.5 50.7696 132.574 50.619 132.614C50.4679 132.653 50.3101 132.659 50.1568 132.629ZM51.2067 91.9893H56.0907C56.7537 91.9954 57.4107 91.8705 58.0253 91.6206C58.6398 91.3712 59.1988 91.002 59.6708 90.5347C60.1428 90.067 60.5183 89.5103 60.7755 88.8968C61.0328 88.2828 61.1672 87.624 61.1702 86.9582V85.6331C61.0818 84.3563 60.5143 83.1607 59.5828 82.2877C58.6514 81.4151 57.4254 80.9296 56.1518 80.9296C54.8783 80.9296 53.6523 81.4151 52.7208 82.2877C51.7894 83.1607 51.2224 84.3563 51.1335 85.6331L51.2067 91.9893ZM36.7502 80.602C35.4647 80.633 34.2403 81.1602 33.331 82.0739C32.4217 82.9881 31.8972 84.2182 31.8662 85.5102V86.8353C31.8659 88.1487 32.3765 89.4103 33.2891 90.3504C34.2016 91.2905 35.4438 91.8344 36.7502 91.8664H41.6343V85.6331C41.6346 84.3197 41.124 83.0581 40.2114 82.118C39.2989 81.178 38.0566 80.634 36.7502 80.602Z" fill="#03273C"/>
<path id="Vector_25" d="M73.3048 36.623C76.9456 35.6679 78.8948 31.0344 77.6581 26.274C76.422 21.5134 72.4679 18.4286 68.8272 19.3837C65.1865 20.3388 63.2372 24.9722 64.4739 29.7327C65.7105 34.4932 69.6641 37.5781 73.3048 36.623Z" fill="#64D65E"/>
<path id="Vector_26" d="M38.4106 140.824H38.1664C35.4834 140.222 32.8536 139.401 30.3032 138.37C29.3194 138.037 28.4906 137.355 27.9732 136.451C27.4559 135.547 27.2857 134.483 27.4949 133.462C27.5318 133.151 27.6876 132.867 27.9292 132.67C28.1708 132.473 28.4793 132.378 28.7892 132.406C28.9424 132.419 29.0915 132.461 29.2279 132.533C29.3642 132.604 29.485 132.702 29.5829 132.821C29.6808 132.94 29.754 133.078 29.798 133.226C29.842 133.373 29.8561 133.529 29.8392 133.682C29.6439 135.646 30.987 136.136 31.0602 136.136C33.5345 137.078 36.0725 137.841 38.6548 138.419C38.9613 138.489 39.2279 138.678 39.397 138.944C39.5661 139.211 39.624 139.533 39.5584 139.842C39.5125 140.116 39.3722 140.363 39.1623 140.543C38.9524 140.723 38.6863 140.822 38.4106 140.824Z" fill="white"/>
<path id="Vector_27" d="M39.6319 142.197H39.4365C36.0899 141.573 32.8165 140.602 29.6685 139.302C28.6973 138.903 27.8656 138.224 27.2787 137.35C26.6918 136.476 26.3762 135.447 26.3718 134.393V129.485C26.3487 129.334 26.3583 129.181 26.3999 129.035C26.4415 128.888 26.5141 128.753 26.6126 128.638C26.7112 128.522 26.8335 128.429 26.9711 128.366C27.1086 128.302 27.2582 128.269 27.4096 128.269C27.561 128.269 27.7106 128.302 27.8482 128.366C27.9858 128.429 28.108 128.522 28.2066 128.638C28.3052 128.753 28.3777 128.888 28.4193 129.035C28.4609 129.181 28.4705 129.334 28.4475 129.485V134.393C28.4434 135.046 28.6314 135.685 28.9876 136.231C29.3439 136.777 29.8526 137.205 30.4499 137.461C33.4838 138.65 36.6238 139.546 39.8272 140.136C39.9605 140.159 40.0879 140.209 40.2019 140.283C40.3159 140.356 40.4144 140.451 40.4916 140.563C40.5688 140.675 40.6232 140.801 40.6517 140.934C40.6801 141.067 40.6821 141.205 40.6575 141.338C40.6122 141.579 40.4851 141.796 40.298 141.953C40.1108 142.109 39.8754 142.196 39.6319 142.197Z" fill="#03273C"/>
<path id="Vector_28" d="M46.5177 142.961C46.2698 142.923 46.0437 142.796 45.8804 142.605C45.7171 142.414 45.6273 142.17 45.6273 141.918C45.6273 141.666 45.7171 141.422 45.8804 141.231C46.0437 141.04 46.2698 140.913 46.5177 140.875C52.3843 140.794 58.1835 139.603 63.6117 137.366C64.2136 137.113 64.7276 136.687 65.0885 136.141C65.4493 135.595 65.6403 134.954 65.6388 134.298V129.39C65.6156 129.239 65.6252 129.085 65.6666 128.939C65.7086 128.793 65.7808 128.657 65.8794 128.542C65.9779 128.427 66.1002 128.334 66.2377 128.27C66.3756 128.207 66.5252 128.174 66.6763 128.174C66.828 128.174 66.9776 128.207 67.115 128.27C67.2525 128.334 67.3748 128.427 67.4733 128.542C67.5719 128.657 67.6446 128.793 67.6861 128.939C67.7275 129.085 67.7371 129.239 67.7144 129.39V134.298C67.7078 135.355 67.3884 136.386 66.7971 137.26C66.2058 138.134 65.3689 138.812 64.3931 139.206C58.7258 141.586 52.6592 142.86 46.5177 142.961Z" fill="#03273C"/>
<path id="Vector_29" d="M47.3977 150.322C42.6716 150.254 38.0001 149.296 33.6248 147.5C32.8259 147.164 32.1442 146.598 31.666 145.873C31.1877 145.147 30.9346 144.296 30.9386 143.426V139.647C30.9156 139.496 30.9252 139.343 30.9668 139.197C31.0084 139.05 31.0809 138.915 31.1795 138.799C31.2781 138.684 31.4003 138.591 31.5379 138.527C31.6755 138.464 31.825 138.431 31.9765 138.431C32.1279 138.431 32.2775 138.464 32.415 138.527C32.5526 138.591 32.6748 138.684 32.7734 138.799C32.872 138.915 32.9446 139.05 32.9862 139.197C33.0277 139.343 33.0373 139.496 33.0143 139.647V143.426C33.0082 143.881 33.1375 144.327 33.3855 144.708C33.6335 145.088 33.989 145.385 34.4063 145.561C38.5308 147.266 42.9383 148.173 47.3977 148.236C47.5473 148.213 47.7001 148.223 47.8457 148.264C47.9913 148.306 48.1262 148.379 48.2411 148.478C48.356 148.577 48.4482 148.7 48.5114 148.838C48.5747 148.976 48.6074 149.127 48.6074 149.279C48.6074 149.431 48.5747 149.582 48.5114 149.72C48.4482 149.858 48.356 149.981 48.2411 150.08C48.1262 150.179 47.9913 150.252 47.8457 150.294C47.7001 150.336 47.5473 150.345 47.3977 150.322Z" fill="#03273C"/>
<path id="Vector_30" d="M46.7131 150.322C46.5634 150.345 46.4106 150.336 46.265 150.294C46.1194 150.252 45.9846 150.179 45.8697 150.08C45.7548 149.981 45.6626 149.858 45.5993 149.72C45.5361 149.582 45.5034 149.431 45.5034 149.279C45.5034 149.127 45.5361 148.976 45.5993 148.838C45.6626 148.7 45.7548 148.577 45.8697 148.478C45.9846 148.379 46.1194 148.306 46.265 148.264C46.4106 148.223 46.5634 148.213 46.7131 148.236C51.1648 148.174 55.5641 147.267 59.6799 145.561C60.0994 145.388 60.4567 145.091 60.7053 144.71C60.9535 144.329 61.0813 143.881 61.0722 143.426V139.647C61.049 139.496 61.0586 139.343 61.1 139.197C61.142 139.05 61.2142 138.915 61.3128 138.799C61.4113 138.684 61.5336 138.591 61.6711 138.527C61.8091 138.464 61.9587 138.431 62.1098 138.431C62.2614 138.431 62.411 138.464 62.5484 138.527C62.6859 138.591 62.8082 138.684 62.9067 138.799C63.0053 138.915 63.0781 139.05 63.1195 139.197C63.161 139.343 63.1706 139.496 63.1478 139.647V143.426C63.1503 144.293 62.8997 145.141 62.4266 145.865C61.9531 146.589 61.2784 147.158 60.486 147.5C56.1104 149.296 51.4393 150.254 46.7131 150.322Z" fill="#03273C"/>
<path id="Vector_31" d="M47.0547 160.903C43.6156 160.903 40.3175 159.53 37.8857 157.087C35.4539 154.643 34.0877 151.328 34.0877 147.872C34.0647 147.721 34.0743 147.568 34.1159 147.422C34.1575 147.275 34.23 147.14 34.3286 147.024C34.4272 146.909 34.5494 146.816 34.687 146.753C34.8246 146.689 34.9742 146.656 35.1256 146.656C35.277 146.656 35.4266 146.689 35.5641 146.753C35.7017 146.816 35.824 146.909 35.9225 147.024C36.0211 147.14 36.0937 147.275 36.1353 147.422C36.1769 147.568 36.1865 147.721 36.1634 147.872C36.1634 150.775 37.3109 153.559 39.3534 155.611C41.3959 157.664 44.1662 158.817 47.0547 158.817C49.9433 158.817 52.7138 157.664 54.756 155.611C56.7987 153.559 57.9459 150.775 57.9459 147.872C57.9232 147.721 57.9328 147.568 57.9742 147.422C58.0157 147.275 58.0885 147.14 58.187 147.024C58.2856 146.909 58.4079 146.816 58.5453 146.753C58.6828 146.689 58.8324 146.656 58.984 146.656C59.1351 146.656 59.2847 146.689 59.4226 146.753C59.5601 146.816 59.6824 146.909 59.781 147.024C59.8795 147.14 59.9518 147.275 59.9937 147.422C60.0352 147.568 60.0448 147.721 60.0215 147.872C60.0215 149.583 59.6865 151.278 59.0345 152.859C58.3831 154.44 57.4279 155.876 56.2236 157.087C55.0198 158.297 53.5901 159.256 52.0169 159.912C50.4438 160.566 48.7576 160.903 47.0547 160.903Z" fill="#03273C"/>
<path id="Vector_32" d="M17.5799 88.3056C18.3891 88.3056 19.0451 87.6463 19.0451 86.8332C19.0451 86.0196 18.3891 85.3604 17.5799 85.3604C16.7707 85.3604 16.1147 86.0196 16.1147 86.8332C16.1147 87.6463 16.7707 88.3056 17.5799 88.3056Z" fill="#03273C"/>
<path id="Vector_33" d="M23.9782 108.705C24.7874 108.705 25.4434 108.045 25.4434 107.232C25.4434 106.419 24.7874 105.759 23.9782 105.759C23.169 105.759 22.513 106.419 22.513 107.232C22.513 108.045 23.169 108.705 23.9782 108.705Z" fill="#03273C"/>
<path id="Vector_34" d="M9.88779 23.2228C10.697 23.2228 11.353 22.5635 11.353 21.7503C11.353 20.9371 10.697 20.2778 9.88779 20.2778C9.07859 20.2778 8.42261 20.9371 8.42261 21.7503C8.42261 22.5635 9.07859 23.2228 9.88779 23.2228Z" fill="#03273C"/>
<path id="Vector_35" d="M12.7946 58.514H12.526C12.4361 58.479 12.3539 58.4262 12.2843 58.3591C12.2147 58.2916 12.159 58.2113 12.1204 58.1225C12.0818 58.0336 12.0611 57.9376 12.0595 57.8406C12.0578 57.7436 12.0753 57.6476 12.1108 57.5572L16.1157 47.9861C16.1542 47.8958 16.21 47.8141 16.2799 47.7455C16.3498 47.677 16.4325 47.6229 16.5232 47.5864C16.6139 47.5499 16.7109 47.5318 16.8086 47.533C16.9063 47.5342 17.0027 47.5547 17.0925 47.5934C17.1823 47.6321 17.2637 47.6881 17.3319 47.7584C17.4001 47.8287 17.4539 47.9117 17.4902 48.0029C17.5265 48.094 17.5445 48.1915 17.5433 48.2897C17.5422 48.3878 17.5218 48.4848 17.4832 48.575L13.4784 58.0478C13.4243 58.1859 13.3302 58.3043 13.2082 58.3871C13.0862 58.4704 12.942 58.5145 12.7946 58.514Z" fill="#03273C"/>
<path id="Vector_36" d="M18.1424 53.8983H17.8738C17.7839 53.8633 17.7018 53.8105 17.6321 53.7434C17.5625 53.6759 17.5068 53.5956 17.4683 53.5068C17.4297 53.4179 17.4089 53.3219 17.4073 53.2249C17.4057 53.1279 17.4231 53.0319 17.4587 52.9415L19.6565 47.7387C19.6912 47.6483 19.7438 47.5661 19.8112 47.4968C19.8786 47.4276 19.9594 47.373 20.0485 47.3362C20.1377 47.2994 20.2333 47.2813 20.3297 47.2831C20.426 47.2847 20.5211 47.3062 20.6089 47.3461C20.6988 47.3809 20.7807 47.4338 20.8496 47.5015C20.9184 47.5693 20.9728 47.6504 21.0094 47.74C21.046 47.8296 21.064 47.9258 21.0623 48.0226C21.0606 48.1195 21.0393 48.2149 20.9996 48.3032L18.8506 53.4321C18.7951 53.5743 18.6972 53.6952 18.5704 53.7785C18.4435 53.8623 18.294 53.9039 18.1424 53.8983Z" fill="#03273C"/>
<path id="Vector_37" d="M23.8347 38.4158C26.2505 34.9369 26.3083 30.7836 23.9636 29.1391C21.6189 27.4947 17.7597 28.9819 15.3438 32.4608C12.928 35.9397 12.8703 40.093 15.215 41.7375C17.5597 43.3818 21.4189 41.8947 23.8347 38.4158Z" fill="#64D65E"/>
<path id="Vector_38" d="M34.0169 28.6863C35.2209 26.9524 35.2467 24.8802 34.0743 24.0581C32.902 23.2359 30.9755 23.9749 29.7715 25.7088C28.5674 27.4427 28.5417 29.5149 29.714 30.3371C30.8864 31.1593 32.8128 30.4202 34.0169 28.6863Z" fill="#64D65E"/>
</g>
</g>
</g>
</g>
</g>
</g>
</g>
<defs>
<clipPath id="clip0_39_594">
<rect width="94" height="161" fill="white"/>
</clipPath>
</defs>
</svg>
