<svg width="157" height="162" viewBox="0 0 157 162" fill="none" xmlns="http://www.w3.org/2000/svg">
<g id="Illustration - Asset 41" clip-path="url(#clip0_39_640)">
<g id="Asset 41">
<g id="Clip path group">
<mask id="mask0_39_640" style="mask-type:luminance" maskUnits="userSpaceOnUse" x="0" y="0" width="157" height="162">
<g id="clip0_3_49763">
<path id="Vector" d="M156.765 0.0876465H0.175659V161.459H156.765V0.0876465Z" fill="white"/>
</g>
</mask>
<g mask="url(#mask0_39_640)">
<g id="Asset 41_2">
<g id="Layer 2">
<g id="Layer 1">
<path id="Vector_2" d="M78.1012 159.928C120.174 159.928 154.281 125.71 154.281 83.4999C154.281 41.2899 120.174 7.07202 78.1012 7.07202C36.0278 7.07202 1.92078 41.2899 1.92078 83.4999C1.92078 125.71 36.0278 159.928 78.1012 159.928Z" fill="#64D65E"/>
<path id="Vector_2_2" d="M77.0432 7.12329C76.5941 34.6003 68.4263 95.2931 6.86356 110.579C3.59256 101.935 1.92639 92.7668 1.94702 83.5246C1.93453 80.1187 2.1642 76.7162 2.63428 73.3432C4.70312 57.7047 11.5662 43.0924 22.2787 31.5176C32.9912 19.9428 47.0265 11.9746 62.4526 8.71002C67.2512 7.69773 72.139 7.1662 77.0432 7.12329Z" fill="#8BE386"/>
<path id="Vector_3" opacity="0.5" d="M152.933 82.5947C152.961 102.826 144.962 122.24 130.694 136.575C116.425 150.91 97.0534 158.993 76.8321 159.049C67.522 159.074 58.2886 157.361 49.6062 153.998C113.231 130.488 127.901 75.1903 124.676 23.198C133.513 30.3652 140.638 39.4186 145.526 49.6956C150.416 59.9727 152.946 71.2131 152.933 82.5947Z" fill="#3CA629"/>
<path id="Vector_4" d="M30.2043 69.1079H29.9135C29.8162 69.0701 29.7272 69.0132 29.6519 68.9404C29.5766 68.8681 29.5163 68.7817 29.4745 68.6859C29.4327 68.5896 29.4103 68.4867 29.4086 68.3821C29.4068 68.2776 29.4257 68.1736 29.4641 68.0762L33.7728 57.8417C33.8545 57.6502 34.0084 57.498 34.2014 57.4187C34.3944 57.3393 34.6107 57.3399 34.8037 57.4187C34.9911 57.5057 35.1389 57.6606 35.2173 57.8516C35.2957 58.0426 35.299 58.2566 35.2266 58.4503L30.918 68.6848C30.8454 68.8107 30.7415 68.9158 30.6165 68.9896C30.4915 69.0641 30.3496 69.1046 30.2043 69.1079Z" fill="#03273C"/>
<path id="Vector_5" d="M35.94 64.1613H35.6492C35.5519 64.1235 35.4629 64.0666 35.3876 63.9944C35.3123 63.9216 35.252 63.8351 35.2102 63.7393C35.1685 63.6436 35.146 63.5401 35.1443 63.4356C35.1425 63.331 35.1614 63.2276 35.1999 63.1302L37.4996 57.6561C37.5371 57.5587 37.594 57.47 37.667 57.3951C37.74 57.3206 37.8274 57.2615 37.9239 57.2221C38.0204 57.1827 38.124 57.163 38.2283 57.1646C38.3326 57.1668 38.4354 57.1898 38.5304 57.2325C38.7223 57.3146 38.8743 57.4684 38.9535 57.6616C39.0327 57.8548 39.0326 58.071 38.9534 58.2642L36.6801 63.5532C36.6327 63.7174 36.5365 63.8636 36.4044 63.9725C36.2723 64.0808 36.1103 64.1471 35.94 64.1613Z" fill="#03273C"/>
<path id="Vector_6" d="M78.1001 160.135C62.928 160.188 48.0815 155.735 35.4407 147.34C22.8 138.944 12.9337 126.985 7.09118 112.976C1.24874 98.9667 -0.307067 83.5384 2.6208 68.6443C5.5487 53.7499 12.8285 40.06 23.5384 29.3079C34.2484 18.5558 47.9066 11.2253 62.7836 8.24458C77.6608 5.2639 93.0873 6.76715 107.11 12.564C121.132 18.3608 133.12 28.1904 141.554 40.808C149.989 53.4257 154.492 68.2639 154.492 83.4432C154.492 103.738 146.452 123.205 132.133 137.58C117.815 151.955 98.3848 160.066 78.1001 160.135ZM78.1001 12.9922C64.1473 12.9503 50.4956 17.0519 38.874 24.7776C27.2524 32.5033 18.1838 43.5055 12.8164 56.3908C7.44895 69.2764 6.02419 83.4656 8.72256 97.1623C11.4209 110.858 18.121 123.445 27.9744 133.329C37.8277 143.214 50.3912 149.95 64.074 152.685C77.7566 155.421 91.9429 154.033 104.836 148.697C117.73 143.361 128.75 134.317 136.503 122.71C144.256 111.103 148.391 97.4562 148.386 83.4963C148.386 64.8296 140.987 46.9244 127.811 33.7077C114.635 20.4909 96.7579 13.0412 78.1001 12.9922Z" fill="#3CA629"/>
<path id="Vector_7" d="M1.92013 85.0265C1.72002 85.0265 1.52192 84.9866 1.33737 84.9094C1.15283 84.8317 0.985541 84.7184 0.84528 84.5756C0.705025 84.4327 0.5946 84.2636 0.520453 84.0775C0.446308 83.8915 0.40993 83.6928 0.41344 83.4925C0.413861 78.2264 0.936269 72.9734 1.97299 67.8102C2.01076 67.6132 2.08756 67.4255 2.19889 67.258C2.31023 67.0911 2.45385 66.9477 2.62131 66.8366C2.78877 66.726 2.97669 66.6499 3.17403 66.6127C3.37137 66.5755 3.57415 66.5782 3.77044 66.6204C3.96767 66.6582 4.15535 66.7348 4.32247 66.8464C4.48959 66.9575 4.63277 67.1015 4.74358 67.2689C4.8544 67.4364 4.93063 67.6247 4.96778 67.8223C5.00494 68.0193 5.00227 68.2223 4.95993 68.4188C3.95385 73.3801 3.44908 78.43 3.45325 83.4925C3.45325 83.6939 3.41359 83.8936 3.33655 84.0797C3.2595 84.2658 3.14657 84.4349 3.00421 84.5772C2.86184 84.7195 2.69283 84.8328 2.50683 84.91C2.32082 84.9866 2.12146 85.0265 1.92013 85.0265Z" fill="#03273C"/>
<path id="Vector_8" d="M78.1006 161.408C59.7202 161.452 41.9218 154.962 27.8813 143.094C13.8407 131.227 4.47122 114.755 1.44443 96.6166C1.42249 96.4147 1.44074 96.2111 1.49811 96.0162C1.55548 95.8219 1.65084 95.6408 1.77867 95.4832C1.9065 95.3261 2.06426 95.1953 2.24283 95.0995C2.42138 95.0032 2.61721 94.9435 2.81895 94.9238C3.01556 94.8861 3.2178 94.8888 3.41343 94.9315C3.60905 94.9742 3.794 95.0557 3.95709 95.1717C4.12017 95.2883 4.258 95.4361 4.36224 95.6074C4.46648 95.7782 4.53496 95.9686 4.56354 96.1667C7.63899 113.932 17.019 129.99 30.98 141.39C44.9411 152.791 62.5456 158.768 80.5585 158.224C98.5714 157.679 115.782 150.649 129.03 138.426C142.278 126.203 150.671 109.608 152.669 91.6893C154.666 73.7708 150.134 55.733 139.904 40.8898C129.674 26.0469 114.433 15.396 96.9828 10.8941C79.5328 6.39219 61.0445 8.34177 44.9162 16.3846C28.7874 24.4274 16.1016 38.0231 9.18935 54.6738C9.01638 55.0204 8.71868 55.2891 8.35605 55.4248C7.99336 55.5611 7.59266 55.5551 7.23446 55.4073C6.8762 55.2601 6.58704 54.9826 6.425 54.6306C6.26297 54.2786 6.24011 53.8783 6.361 53.5102C11.8021 40.5323 20.6598 29.274 31.9906 20.9344C43.3214 12.5948 56.701 7.48602 70.7041 6.15242C84.7078 4.81876 98.8104 7.31012 111.51 13.3611C124.211 19.4122 135.032 28.7962 142.823 40.5139C150.614 52.2316 155.082 65.8437 155.752 79.9016C156.421 93.9589 153.268 107.935 146.626 120.34C139.984 132.746 130.104 143.118 118.036 150.35C105.969 157.582 92.1672 161.403 78.1006 161.408Z" fill="#03273C"/>
<path id="Vector_9" d="M1.76177 91.4315C2.63768 91.4315 3.34776 90.7211 3.34776 89.8449C3.34776 88.9687 2.63768 88.2583 1.76177 88.2583C0.885854 88.2583 0.175781 88.9687 0.175781 89.8449C0.175781 90.7211 0.885854 91.4315 1.76177 91.4315Z" fill="#03273C"/>
<path id="Vector_10" d="M78.1001 145.383C65.8585 145.42 53.8818 141.822 43.6857 135.044C33.4897 128.267 25.5329 118.615 20.823 107.311C16.1131 96.0063 14.8617 83.558 17.2275 71.5421C19.5931 59.5256 25.4695 48.4818 34.1124 39.8089C42.7553 31.1358 53.7762 25.2237 65.7797 22.8209C77.7829 20.4181 90.2291 21.6327 101.542 26.311C112.855 30.9892 122.526 38.9208 129.331 49.1013C136.136 59.2821 139.768 71.2537 139.768 83.5005C139.768 99.8811 133.277 115.593 121.717 127.193C110.158 138.793 94.4725 145.334 78.1001 145.383ZM78.1001 27.7533C67.0631 27.7062 56.2602 30.9378 47.061 37.0388C37.8616 43.1398 30.6793 51.8355 26.4242 62.024C22.169 72.2125 21.0326 83.436 23.1588 94.2713C25.2851 105.107 30.5783 115.066 38.3678 122.89C46.1573 130.713 56.0928 136.046 66.9148 138.214C77.7369 140.383 88.9589 139.289 99.1584 135.07C109.358 130.852 118.077 123.7 124.211 114.519C130.343 105.338 133.615 94.5428 133.609 83.5005C133.61 68.752 127.768 54.6046 117.364 44.1559C106.96 33.7074 92.8412 27.8093 78.1001 27.7533Z" fill="#3CA629"/>
<path id="Vector_11" d="M35.5167 128.031C35.3558 128.034 35.1959 128.006 35.0461 127.947C34.8964 127.887 34.7599 127.799 34.6444 127.687C27.2564 120.362 21.8244 111.298 18.8463 101.327C15.8682 91.3565 15.4393 80.7969 17.599 70.6172C19.7587 60.4375 24.4378 50.963 31.2075 43.0621C37.9771 35.1612 46.6207 29.0867 56.3461 25.3955C56.6409 25.3093 56.9576 25.338 57.2323 25.476C57.5069 25.6139 57.7191 25.8508 57.8263 26.139C57.9336 26.4271 57.9275 26.7451 57.8099 27.0292C57.6923 27.3132 57.4713 27.5421 57.1918 27.6697C47.8423 31.2129 39.5321 37.0491 33.0242 44.6424C26.5163 52.2357 22.0192 61.3427 19.9458 71.1278C17.8723 80.913 18.289 91.0626 21.1574 100.645C24.0259 110.227 29.2543 118.934 36.3626 125.968C36.5902 126.196 36.718 126.506 36.718 126.827C36.718 127.15 36.5902 127.459 36.3626 127.687C36.2512 127.797 36.1191 127.884 35.974 127.943C35.8288 128.002 35.6734 128.032 35.5167 128.031Z" fill="#03273C"/>
<path id="Vector_12" d="M78.1002 145.54C66.847 145.561 55.804 142.497 46.1688 136.681C45.8921 136.516 45.6921 136.248 45.6129 135.935C45.5335 135.623 45.5814 135.292 45.7459 135.014C45.9158 134.736 46.1885 134.536 46.5051 134.456C46.8216 134.377 47.1566 134.426 47.4376 134.591C55.3067 139.305 64.1578 142.137 73.301 142.866C82.4436 143.594 91.6312 142.201 100.147 138.793C108.663 135.386 116.277 130.055 122.396 123.22C128.515 116.384 132.972 108.226 135.422 99.3833C137.871 90.5406 138.245 81.2513 136.517 72.2395C134.788 63.2277 131.001 54.7375 125.453 47.4305C119.905 40.1236 112.745 34.1974 104.531 30.1142C96.3171 26.0309 87.2718 23.9009 78.1002 23.8902C74.9213 23.8938 71.7485 24.1502 68.6107 24.6571C68.4526 24.6836 68.2907 24.6785 68.1348 24.6423C67.9789 24.6061 67.8317 24.5393 67.7015 24.4459C67.5713 24.3526 67.4608 24.2344 67.376 24.0981C67.2918 23.9619 67.2354 23.8104 67.2097 23.6522C67.1829 23.4941 67.1884 23.3324 67.2245 23.1763C67.2606 23.0202 67.3273 22.8727 67.4209 22.7425C67.5139 22.6123 67.632 22.5018 67.7682 22.4173C67.9045 22.3329 68.056 22.2762 68.2141 22.2506C71.4848 21.7436 74.79 21.4872 78.1002 21.4836C94.3286 21.8189 109.779 28.504 121.138 40.105C132.497 51.706 138.858 67.2985 138.858 83.5385C138.858 99.7779 132.497 115.37 121.138 126.971C109.779 138.572 94.3286 145.258 78.1002 145.593V145.54Z" fill="#03273C"/>
<path id="Vector_13" d="M62.6639 26.1642C63.5397 26.1642 64.2497 25.4538 64.2497 24.5774C64.2497 23.7011 63.5397 22.9907 62.6639 22.9907C61.7881 22.9907 61.078 23.7011 61.078 24.5774C61.078 25.4538 61.7881 26.1642 62.6639 26.1642Z" fill="#03273C"/>
<path id="Vector_14" d="M40.7505 133.424C41.6264 133.424 42.3365 132.714 42.3365 131.837C42.3365 130.961 41.6264 130.25 40.7505 130.25C39.8746 130.25 39.1646 130.961 39.1646 131.837C39.1646 132.714 39.8746 133.424 40.7505 133.424Z" fill="#03273C"/>
<path id="Vector_15" d="M78.1001 145.383C65.8585 145.42 53.8818 141.822 43.6857 135.044C33.4897 128.267 25.5329 118.615 20.823 107.311C16.1131 96.0063 14.8617 83.558 17.2275 71.5421C19.5931 59.5256 25.4695 48.4818 34.1124 39.8089C42.7553 31.1358 53.7762 25.2237 65.7797 22.8209C77.7829 20.4181 90.2291 21.6327 101.542 26.311C112.855 30.9892 122.526 38.9208 129.331 49.1013C136.136 59.2821 139.768 71.2537 139.768 83.5005C139.768 99.8811 133.277 115.593 121.717 127.193C110.158 138.793 94.4725 145.334 78.1001 145.383ZM78.1001 27.7533C67.0631 27.7062 56.2602 30.9378 47.061 37.0388C37.8616 43.1398 30.6793 51.8355 26.4242 62.024C22.169 72.2125 21.0326 83.436 23.1588 94.2713C25.2851 105.107 30.5783 115.066 38.3678 122.89C46.1573 130.713 56.0928 136.046 66.9148 138.214C77.7369 140.383 88.9589 139.289 99.1584 135.07C109.358 130.852 118.077 123.7 124.211 114.519C130.343 105.338 133.615 94.5428 133.609 83.5005C133.61 68.752 127.768 54.6046 117.364 44.1559C106.96 33.7074 92.8412 27.8093 78.1001 27.7533Z" fill="#3CA629"/>
<path id="Vector_16" d="M35.5167 128.031C35.3558 128.034 35.1959 128.006 35.0461 127.947C34.8964 127.887 34.7599 127.799 34.6444 127.687C27.2564 120.362 21.8244 111.298 18.8463 101.327C15.8682 91.3565 15.4393 80.7969 17.599 70.6172C19.7587 60.4375 24.4378 50.963 31.2075 43.0621C37.9771 35.1612 46.6207 29.0867 56.3461 25.3955C56.6409 25.3093 56.9576 25.338 57.2323 25.476C57.5069 25.6139 57.7191 25.8508 57.8263 26.139C57.9336 26.4271 57.9275 26.7451 57.8099 27.0292C57.6923 27.3132 57.4713 27.5421 57.1918 27.6697C47.8423 31.2129 39.5321 37.0491 33.0242 44.6424C26.5163 52.2357 22.0192 61.3427 19.9458 71.1278C17.8723 80.913 18.289 91.0626 21.1574 100.645C24.0259 110.227 29.2543 118.934 36.3626 125.968C36.5902 126.196 36.718 126.506 36.718 126.827C36.718 127.15 36.5902 127.459 36.3626 127.687C36.2512 127.797 36.1191 127.884 35.974 127.943C35.8288 128.002 35.6734 128.032 35.5167 128.031Z" fill="#03273C"/>
<path id="Vector_17" d="M78.1002 145.54C66.847 145.561 55.804 142.497 46.1688 136.681C45.8921 136.516 45.6921 136.248 45.6129 135.935C45.5335 135.623 45.5814 135.292 45.7459 135.014C45.9158 134.736 46.1885 134.536 46.5051 134.456C46.8216 134.377 47.1566 134.426 47.4376 134.591C55.3067 139.305 64.1578 142.137 73.301 142.866C82.4436 143.594 91.6312 142.201 100.147 138.793C108.663 135.386 116.277 130.055 122.396 123.22C128.515 116.384 132.972 108.226 135.422 99.3833C137.871 90.5406 138.245 81.2513 136.517 72.2395C134.788 63.2277 131.001 54.7375 125.453 47.4305C119.905 40.1236 112.745 34.1974 104.531 30.1142C96.3171 26.0309 87.2718 23.9009 78.1002 23.8902C74.9213 23.8938 71.7485 24.1502 68.6107 24.6571C68.4526 24.6836 68.2907 24.6785 68.1348 24.6423C67.9789 24.6061 67.8317 24.5393 67.7015 24.4459C67.5713 24.3526 67.4608 24.2344 67.376 24.0981C67.2918 23.9619 67.2354 23.8104 67.2097 23.6522C67.1829 23.4941 67.1884 23.3324 67.2245 23.1763C67.2606 23.0202 67.3273 22.8727 67.4209 22.7425C67.5139 22.6123 67.632 22.5018 67.7682 22.4173C67.9045 22.3329 68.056 22.2762 68.2141 22.2506C71.4848 21.7436 74.79 21.4872 78.1002 21.4836C94.3286 21.8189 109.779 28.504 121.138 40.105C132.497 51.706 138.858 67.2985 138.858 83.5385C138.858 99.7779 132.497 115.37 121.138 126.971C109.779 138.572 94.3286 145.258 78.1002 145.593V145.54Z" fill="#03273C"/>
<path id="Vector_18" d="M62.6639 26.1642C63.5397 26.1642 64.2497 25.4538 64.2497 24.5774C64.2497 23.7011 63.5397 22.9907 62.6639 22.9907C61.7881 22.9907 61.078 23.7011 61.078 24.5774C61.078 25.4538 61.7881 26.1642 62.6639 26.1642Z" fill="#03273C"/>
<path id="Vector_19" d="M40.7505 133.424C41.6264 133.424 42.3365 132.714 42.3365 131.837C42.3365 130.961 41.6264 130.25 40.7505 130.25C39.8746 130.25 39.1646 130.961 39.1646 131.837C39.1646 132.714 39.8746 133.424 40.7505 133.424Z" fill="#03273C"/>
<path id="Vector_20" d="M5.30339 62.2902C6.17929 62.2902 6.8894 61.5798 6.8894 60.7036C6.8894 59.8273 6.17929 59.1169 5.30339 59.1169C4.42748 59.1169 3.71741 59.8273 3.71741 60.7036C3.71741 61.5798 4.42748 62.2902 5.30339 62.2902Z" fill="#03273C"/>
<path id="Vector_21" d="M42.9839 29.44C44.2653 28.3548 44.7687 26.8424 44.1085 26.0621C43.4482 25.2818 41.8742 25.529 40.5929 26.6142C39.3115 27.6995 38.808 29.2119 39.4683 29.9921C40.1286 30.7725 41.7026 30.5253 42.9839 29.44Z" fill="white"/>
<path id="Vector_22" d="M22.7228 48.3742C22.4438 48.3798 22.1689 48.3065 21.9298 48.1626C21.5874 47.9447 21.3434 47.6017 21.2496 47.2067C21.1558 46.8117 21.2197 46.3956 21.4275 46.047C25.234 40.365 29.8873 35.2993 35.2256 31.0258C35.378 30.8727 35.5609 30.7534 35.7624 30.6758C35.964 30.5983 36.1797 30.5643 36.3953 30.576C36.611 30.5876 36.8217 30.6447 37.0138 30.7435C37.2058 30.8423 37.3748 30.9806 37.5097 31.1494C37.6447 31.3181 37.7424 31.5134 37.7966 31.7226C37.8508 31.9317 37.8603 32.1499 37.8243 32.363C37.7883 32.576 37.7078 32.7791 37.5879 32.9588C37.4681 33.1385 37.3116 33.2909 37.1288 33.4059C32.0345 37.4622 27.5946 42.2788 23.9652 47.6866C23.8305 47.8945 23.6467 48.066 23.43 48.186C23.2133 48.3059 22.9704 48.3705 22.7228 48.3742Z" fill="white"/>
<path id="Vector_23" opacity="0.4" d="M100.622 117.423C101.367 117.423 101.97 116.819 101.97 116.074C101.97 115.329 101.367 114.725 100.622 114.725C99.8778 114.725 99.2744 115.329 99.2744 116.074C99.2744 116.819 99.8778 117.423 100.622 117.423Z" fill="#3CA629"/>
<path id="Vector_24" d="M101.441 136.73C104.025 136.73 106.12 134.635 106.12 132.049C106.12 129.464 104.025 127.369 101.441 127.369C98.8569 127.369 96.7623 129.464 96.7623 132.049C96.7623 134.635 98.8569 136.73 101.441 136.73Z" fill="#3CA629"/>
<path id="Vector_25" d="M104.56 123.641C105.421 123.641 106.119 122.943 106.119 122.081C106.119 121.219 105.421 120.521 104.56 120.521C103.699 120.521 103 121.219 103 122.081C103 122.943 103.699 123.641 104.56 123.641Z" fill="#3CA629"/>
<path id="Vector_26" d="M90.6038 135.697C91.4648 135.697 92.1634 134.999 92.1634 134.137C92.1634 133.275 91.4648 132.576 90.6038 132.576C89.7422 132.576 89.0442 133.275 89.0442 134.137C89.0442 134.999 89.7422 135.697 90.6038 135.697Z" fill="#3CA629"/>
<path id="Vector_27" d="M113.072 129.008C114.137 129.008 115.001 128.144 115.001 127.078C115.001 126.011 114.137 125.147 113.072 125.147C112.006 125.147 111.142 126.011 111.142 127.078C111.142 128.144 112.006 129.008 113.072 129.008Z" fill="#3CA629"/>
<path id="Vector_28" opacity="0.4" d="M91.8729 129.621C92.6174 129.621 93.2208 129.018 93.2208 128.273C93.2208 127.527 92.6174 126.924 91.8729 126.924C91.1283 126.924 90.5244 127.527 90.5244 128.273C90.5244 129.018 91.1283 129.621 91.8729 129.621Z" fill="#3CA629"/>
<path id="Vector_29" opacity="0.4" d="M95.9434 125.729C96.717 125.729 97.3444 125.102 97.3444 124.327C97.3444 123.554 96.717 122.926 95.9434 122.926C95.1699 122.926 94.5425 123.554 94.5425 124.327C94.5425 125.102 95.1699 125.729 95.9434 125.729Z" fill="#3CA629"/>
<path id="Vector_30" opacity="0.4" d="M95.8105 119.037C96.1027 119.037 96.3395 118.8 96.3395 118.508C96.3395 118.216 96.1027 117.979 95.8105 117.979C95.519 117.979 95.2821 118.216 95.2821 118.508C95.2821 118.8 95.519 119.037 95.8105 119.037Z" fill="#3CA629"/>
<path id="Vector_31" d="M97.6869 154.234C99.2197 154.234 100.463 152.991 100.463 151.458C100.463 149.924 99.2197 148.681 97.6869 148.681C96.1541 148.681 94.9117 149.924 94.9117 151.458C94.9117 152.991 96.1541 154.234 97.6869 154.234Z" fill="#3CA629"/>
<path id="Vector_32" d="M99.59 147.629C100.101 147.629 100.515 147.215 100.515 146.704C100.515 146.192 100.101 145.778 99.59 145.778C99.079 145.778 98.6649 146.192 98.6649 146.704C98.6649 147.215 99.079 147.629 99.59 147.629Z" fill="#3CA629"/>
<path id="Vector_33" d="M91.2909 154.797C91.8018 154.797 92.2159 154.383 92.2159 153.872C92.2159 153.36 91.8018 152.946 91.2909 152.946C90.78 152.946 90.3658 153.36 90.3658 153.872C90.3658 154.383 90.78 154.797 91.2909 154.797Z" fill="#3CA629"/>
<path id="Vector_34" d="M104.666 150.799C105.294 150.799 105.803 150.29 105.803 149.662C105.803 149.034 105.294 148.525 104.666 148.525C104.038 148.525 103.529 149.034 103.529 149.662C103.529 150.29 104.038 150.799 104.666 150.799Z" fill="#3CA629"/>
<path id="Vector_35" opacity="0.4" d="M92.0311 151.166C92.4692 151.166 92.8243 150.811 92.8243 150.372C92.8243 149.934 92.4692 149.579 92.0311 149.579C91.5934 149.579 91.2384 149.934 91.2384 150.372C91.2384 150.811 91.5934 151.166 92.0311 151.166Z" fill="#3CA629"/>
<path id="Vector_36" opacity="0.4" d="M94.4632 148.864C94.9298 148.864 95.3089 148.485 95.3089 148.018C95.3089 147.551 94.9298 147.171 94.4632 147.171C93.996 147.171 93.6169 147.551 93.6169 148.018C93.6169 148.485 93.996 148.864 94.4632 148.864Z" fill="#3CA629"/>
<path id="Vector_37" opacity="0.4" d="M94.3833 144.903C94.5584 144.903 94.7006 144.761 94.7006 144.585C94.7006 144.41 94.5584 144.269 94.3833 144.269C94.2083 144.269 94.066 144.41 94.066 144.585C94.066 144.761 94.2083 144.903 94.3833 144.903Z" fill="#3CA629"/>
<path id="Vector_38" d="M80.9814 140.91C81.9305 140.91 82.6996 140.14 82.6996 139.191C82.6996 138.242 81.9305 137.472 80.9814 137.472C80.0328 137.472 79.2637 138.242 79.2637 139.191C79.2637 140.14 80.0328 140.91 80.9814 140.91Z" fill="#3CA629"/>
<path id="Vector_39" d="M52.298 50.3455C55.0524 46.3813 55.1114 41.6559 52.4299 39.7911C49.7484 37.9263 45.3418 39.6281 42.5875 43.5924C39.8332 47.5566 39.7742 52.282 42.4557 54.1468C45.1371 56.0119 49.5437 54.3098 52.298 50.3455Z" fill="#B3EDAF"/>
<path id="Vector_40" d="M96.6562 89.996C95.8176 88.133 94.6338 86.4456 93.1667 85.0243C91.7291 83.6665 90.1208 82.5018 88.3823 81.5599C86.728 80.7204 85.0142 80.0045 83.2543 79.4178C80.9283 78.5186 78.7342 77.6194 76.6992 76.7733C74.8606 76.0169 73.1691 74.9431 71.7031 73.5995C71.0609 72.9898 70.5565 72.2493 70.2239 71.4284C69.8907 70.6074 69.7376 69.7246 69.7737 68.8396C69.7359 67.5502 70.0368 66.2739 70.6457 65.1372C71.2567 64.0869 72.1812 63.2545 73.2889 62.757C74.8092 62.1495 76.4377 61.8611 78.0733 61.9109C79.7987 61.8665 81.5016 62.3066 82.9901 63.18C84.3949 64.0322 85.6241 65.1454 86.6115 66.4594C87.6186 67.8704 88.5032 69.3656 89.2548 70.9287L97.2377 66.1951C96.2153 64.0355 94.8795 62.0389 93.2728 60.2712C91.4856 58.3272 89.3407 56.7471 86.955 55.6164C85.425 54.8688 83.7965 54.3432 82.1176 54.0563V44.6946H74.1877L74.3732 53.977C72.3234 54.2606 70.3278 54.8491 68.452 55.7226C65.8591 56.8971 63.6107 58.7185 61.9231 61.0116C60.3586 63.1614 59.5249 65.7567 59.5441 68.416C59.4702 70.8739 59.9866 73.3138 61.0506 75.5303C62.0024 77.4076 63.3033 79.0856 64.8837 80.4757C66.3782 81.8051 68.0396 82.9342 69.8262 83.8339C71.3803 84.6056 72.9777 85.2859 74.6106 85.8704C76.831 86.7166 78.9196 87.5895 80.9021 88.515C82.7133 89.3496 84.3468 90.5257 85.7127 91.9794C86.9933 93.4363 87.6651 95.3299 87.5896 97.2685C87.6306 98.7615 87.3041 100.242 86.6378 101.579C85.9835 102.755 84.9622 103.683 83.7303 104.224C82.1635 104.9 80.4655 105.216 78.761 105.149C76.6636 105.191 74.5898 104.7 72.7342 103.721C70.8836 102.697 69.2573 101.312 67.9498 99.6487C66.3755 97.6395 65.0363 95.4569 63.9581 93.1429L56.4779 98.1939C57.6814 101.121 59.4002 103.808 61.5528 106.128C63.6983 108.442 66.2633 110.326 69.1128 111.682C70.7983 112.456 72.5745 113.016 74.3994 113.348L74.1877 122.312H82.1176L81.9595 113.586C84.3982 113.381 86.7849 112.765 89.0168 111.761C91.7641 110.496 94.0731 108.444 95.6513 105.863C97.2432 103.168 98.049 100.081 97.9779 96.951C98.0435 94.5643 97.5928 92.1917 96.6562 89.996Z" fill="white"/>
<path id="Vector_41" d="M122.851 67.4463C141.202 67.4463 156.078 52.516 156.078 34.0984C156.078 15.6809 141.202 0.750488 122.851 0.750488C104.501 0.750488 89.6251 15.6809 89.6251 34.0984C89.6251 52.516 104.501 67.4463 122.851 67.4463Z" fill="#64D65E"/>
<path id="Vector_42" d="M122.402 0.771729C122.19 12.7516 118.622 39.2237 91.7662 45.8879C90.3483 42.1174 89.6229 38.1217 89.6251 34.0932C89.6585 32.604 89.7996 31.1191 90.048 29.6503C90.9386 22.8419 93.9145 16.4764 98.567 11.4285C103.22 6.38056 109.321 2.89802 116.032 1.45931C118.126 1.0145 120.261 0.784125 122.402 0.771729Z" fill="#8BE386"/>
<path id="Vector_43" opacity="0.5" d="M155.497 33.7028C155.503 38.0752 154.649 42.4061 152.984 46.4483C151.317 50.4905 148.872 54.1648 145.787 57.2615C142.702 60.3581 139.036 62.8165 135.001 64.4962C130.967 66.1759 126.641 67.0439 122.27 67.051C118.221 67.0608 114.205 66.3165 110.428 64.8558C138.183 54.5948 144.58 30.4765 143.179 7.78613C147.029 10.9174 150.133 14.8688 152.264 19.3523C154.395 23.8357 155.5 28.7383 155.497 33.7028Z" fill="#3CA629"/>
<path id="Vector_44" d="M107.549 10.486C108.106 10.0142 108.328 9.36055 108.046 9.02615C107.763 8.69175 107.082 8.80313 106.524 9.27501C105.967 9.74683 105.745 10.4005 106.028 10.7349C106.311 11.0693 106.992 10.9579 107.549 10.486Z" fill="white"/>
<path id="Vector_45" d="M101.944 27.8025C101.864 27.7626 101.801 27.6951 101.767 27.6124C101.733 27.5298 101.73 27.4377 101.758 27.353L103.635 22.8837C103.653 22.842 103.678 22.8041 103.71 22.7723C103.742 22.7404 103.78 22.7152 103.822 22.698C103.863 22.6808 103.908 22.672 103.953 22.6721C103.999 22.6722 104.043 22.6812 104.085 22.6986C104.165 22.7386 104.227 22.8061 104.262 22.8887C104.296 22.9713 104.298 23.0635 104.27 23.1482L102.367 27.6174C102.356 27.6608 102.336 27.7011 102.307 27.7353C102.278 27.7694 102.242 27.7965 102.201 27.8144C102.16 27.8323 102.116 27.8406 102.071 27.8385C102.027 27.8365 101.983 27.8242 101.944 27.8025Z" fill="#03273C"/>
<path id="Vector_46" d="M104.455 25.6599H104.322C104.278 25.6458 104.238 25.6223 104.204 25.591C104.17 25.5596 104.143 25.5211 104.125 25.4783C104.107 25.4354 104.1 25.3892 104.101 25.3429C104.104 25.2967 104.116 25.2514 104.138 25.2103L105.142 22.8302C105.177 22.746 105.244 22.6793 105.328 22.6445C105.413 22.6098 105.507 22.61 105.592 22.6451C105.675 22.6802 105.742 22.7473 105.777 22.8315C105.811 22.9159 105.811 23.0105 105.776 23.0947L104.772 25.4748C104.74 25.5306 104.693 25.577 104.638 25.6095C104.582 25.642 104.519 25.6593 104.455 25.6599Z" fill="#03273C"/>
<path id="Vector_47" d="M122.852 67.5211C116.239 67.5474 109.766 65.6094 104.254 61.9524C98.7421 58.2948 94.4391 53.0837 91.8905 46.978C89.3413 40.8722 88.6608 34.1471 89.9348 27.6541C91.2089 21.1612 94.3806 15.1926 99.0479 10.5045C103.715 5.81638 109.669 2.6196 116.153 1.31904C122.638 0.0184938 129.363 0.672696 135.476 3.1988C141.588 5.72487 146.814 10.0092 150.491 15.5091C154.169 21.0091 156.132 27.4771 156.132 34.094C156.132 42.9366 152.63 51.419 146.392 57.684C140.155 63.9489 131.691 67.4861 122.852 67.5211ZM122.852 3.33775C116.768 3.31682 110.814 5.10283 105.745 8.46962C100.675 11.8364 96.7186 16.6325 94.3757 22.2506C92.0327 27.8687 91.4085 34.056 92.583 40.0291C93.757 46.0022 96.6765 51.4923 100.972 55.804C105.267 60.1162 110.744 63.0557 116.71 64.2516C122.677 65.4469 128.863 64.8438 134.487 62.5188C140.11 60.1945 144.918 56.2523 148.3 51.1922C151.683 46.1321 153.489 40.1815 153.489 34.094C153.496 25.9531 150.273 18.1421 144.53 12.3757C138.786 6.60925 130.989 3.35877 122.852 3.33775Z" fill="#3CA629"/>
<path id="Vector_48" d="M89.6252 34.7548C89.4502 34.7548 89.2822 34.6851 89.158 34.5611C89.0339 34.4371 88.9644 34.269 88.9644 34.0936C88.9551 31.7928 89.1854 29.4972 89.652 27.2442C89.664 27.1576 89.6947 27.0745 89.7406 27.0002C89.7866 26.9258 89.8473 26.8618 89.9195 26.8122C89.9917 26.7625 90.0727 26.7283 90.1586 26.7116C90.2445 26.6949 90.3331 26.6962 90.4184 26.7153C90.5059 26.731 90.5896 26.7643 90.664 26.813C90.7384 26.8619 90.8024 26.9252 90.8517 26.9993C90.9009 27.0734 90.9348 27.1568 90.9512 27.2443C90.9676 27.3318 90.966 27.4217 90.9469 27.5087C90.501 29.6751 90.2795 31.8817 90.286 34.0936C90.286 34.269 90.2166 34.4371 90.0924 34.5611C89.9687 34.6851 89.8008 34.7548 89.6252 34.7548Z" fill="#03273C"/>
<path id="Vector_49" d="M122.852 68.1046C114.826 68.1161 107.057 65.2706 100.935 60.0768C94.8144 54.8824 90.7395 47.6792 89.4403 39.7549C89.4146 39.6651 89.408 39.5708 89.4211 39.4784C89.4343 39.3859 89.4671 39.2972 89.5169 39.2183C89.5672 39.1393 89.6334 39.0719 89.7111 39.0204C89.7887 38.9689 89.8768 38.9344 89.9693 38.9194C90.0612 38.9043 90.1553 38.909 90.2455 38.9331C90.3358 38.9571 90.42 39.0001 90.4922 39.059C90.565 39.1179 90.6241 39.1916 90.6662 39.2751C90.7078 39.3585 90.7318 39.45 90.7357 39.5433C92.0912 47.3083 96.2033 54.3226 102.316 59.2958C108.429 64.2691 116.131 66.8671 124.005 66.6121C131.88 66.3565 139.397 63.2648 145.176 57.9062C150.954 52.5471 154.603 45.2812 155.453 37.4446C156.303 29.6081 154.296 21.7281 149.801 15.254C145.307 8.77988 138.627 4.14716 130.99 2.20796C123.353 0.268751 115.274 1.15347 108.237 4.69939C101.201 8.24528 95.6803 14.2139 92.6919 21.5074C92.6219 21.6693 92.4917 21.7981 92.3297 21.867C92.1673 21.9359 91.9846 21.9397 91.8194 21.8776C91.6574 21.8075 91.5289 21.6777 91.4599 21.5153C91.391 21.3528 91.3872 21.1701 91.4496 21.0049C93.8242 15.3458 97.6874 10.4363 102.628 6.79872C107.57 3.16114 113.404 0.931452 119.511 0.346805C125.618 -0.237845 131.768 0.844404 137.309 3.47845C142.851 6.11246 147.575 10.1998 150.979 15.3057C154.383 20.4117 156.34 26.3453 156.643 32.4754C156.945 38.6056 155.581 44.7031 152.695 50.1194C149.81 55.5359 145.511 60.0686 140.256 63.2353C135.001 66.4025 128.987 68.0849 122.852 68.1046Z" fill="#03273C"/>
<path id="Vector_50" d="M89.5458 37.5373C89.9249 37.5373 90.2329 37.2294 90.2329 36.8497C90.2329 36.47 89.9249 36.1621 89.5458 36.1621C89.1661 36.1621 88.8582 36.47 88.8582 36.8497C88.8582 37.2294 89.1661 37.5373 89.5458 37.5373Z" fill="#03273C"/>
<path id="Vector_51" d="M122.852 61.0739C117.509 61.0898 112.282 59.5185 107.833 56.5603C103.384 53.6017 99.9127 49.3886 97.8586 44.4547C95.8044 39.5208 95.2601 34.0879 96.2951 28.8443C97.3296 23.6007 99.8963 18.7822 103.67 14.9992C107.444 11.2161 112.255 8.63872 117.494 7.59344C122.733 6.54815 128.164 7.08199 133.1 9.12729C138.036 11.1727 142.253 14.6375 145.219 19.083C148.185 23.5284 149.765 28.7545 149.76 34.0993C149.76 41.2443 146.927 48.0973 141.882 53.1545C136.837 58.2115 129.993 61.0597 122.852 61.0739ZM122.852 9.76938C118.038 9.75368 113.329 11.1672 109.32 13.8311C105.31 16.4949 102.181 20.2893 100.328 24.7335C98.4751 29.1779 97.9822 34.0723 98.9116 38.797C99.841 43.5218 102.151 47.8644 105.548 51.275C108.946 54.6855 113.279 57.0108 117.999 57.956C122.718 58.9011 127.612 58.4239 132.06 56.585C136.508 54.7455 140.311 51.6273 142.986 47.6246C145.663 43.6218 147.091 38.9147 147.091 34.0993C147.097 27.6582 144.549 21.4777 140.003 16.9157C135.459 12.3537 129.29 9.78339 122.852 9.76938Z" fill="#3CA629"/>
<path id="Vector_52" d="M104.269 53.5286C104.13 53.5266 103.997 53.4696 103.899 53.37C101.364 50.8444 99.3569 47.8389 97.9953 44.5288C96.6338 41.2187 95.945 37.6704 95.9691 34.0911C95.9817 28.5896 97.6606 23.221 100.785 18.6934C103.908 14.1659 108.331 10.6919 113.468 8.72977C113.534 8.70454 113.604 8.69272 113.675 8.69513C113.745 8.69748 113.815 8.7139 113.879 8.74351C113.943 8.77307 114 8.81515 114.048 8.86731C114.095 8.91947 114.132 8.9806 114.155 9.0471C114.199 9.18058 114.191 9.32578 114.132 9.45336C114.073 9.58099 113.968 9.68147 113.838 9.73467C109.761 11.2804 106.137 13.8256 103.3 17.1366C100.462 20.4477 98.5003 24.4188 97.5955 28.6856C96.6901 32.9523 96.8706 37.3781 98.1201 41.557C99.369 45.7359 101.647 49.534 104.745 52.603C104.844 52.7063 104.898 52.8437 104.898 52.9865C104.898 53.1293 104.844 53.2666 104.745 53.37C104.685 53.4337 104.61 53.4816 104.527 53.5093C104.444 53.537 104.355 53.5436 104.269 53.5286Z" fill="#03273C"/>
<path id="Vector_53" d="M122.852 61.1801C117.941 61.179 113.124 59.8343 108.922 57.2926C108.861 57.2598 108.808 57.2144 108.764 57.1602C108.722 57.1055 108.691 57.0431 108.674 56.9757C108.656 56.909 108.653 56.8389 108.664 56.7705C108.675 56.7021 108.699 56.637 108.737 56.5784C108.773 56.5166 108.82 56.4624 108.876 56.4197C108.933 56.3765 108.998 56.3453 109.067 56.3277C109.137 56.3108 109.209 56.3075 109.279 56.319C109.349 56.3299 109.417 56.3551 109.477 56.3934C112.912 58.4266 116.769 59.6411 120.749 59.9421C124.729 60.2431 128.724 59.623 132.426 58.1294C136.128 56.6359 139.435 54.3095 142.093 51.3305C144.751 48.3515 146.687 44.8 147.751 40.9514C148.815 37.1029 148.979 33.0609 148.23 29.1388C147.48 25.2167 145.838 21.5201 143.43 18.3357C141.022 15.1512 137.913 12.5645 134.344 10.7764C130.776 8.98811 126.843 8.04643 122.852 8.02427C121.463 8.02268 120.075 8.1288 118.702 8.34164C118.579 8.37563 118.449 8.36184 118.336 8.30289C118.223 8.24401 118.137 8.1444 118.094 8.02427C118.083 7.9547 118.086 7.88361 118.102 7.81514C118.119 7.74668 118.149 7.6822 118.191 7.62556C118.233 7.56891 118.286 7.52119 118.346 7.48518C118.406 7.44922 118.474 7.42569 118.544 7.416C119.968 7.18132 121.409 7.06628 122.852 7.07224C130.031 7.07224 136.915 9.9253 141.992 15.0039C147.068 20.0824 149.92 26.9704 149.92 34.1525C149.92 41.3347 147.068 48.2227 141.992 53.3012C136.915 58.3796 130.031 61.2326 122.852 61.2326V61.1801Z" fill="#03273C"/>
<path id="Vector_54" d="M116.112 9.04585C116.491 9.04585 116.799 8.73799 116.799 8.35828C116.799 7.97851 116.491 7.67065 116.112 7.67065C115.732 7.67065 115.425 7.97851 115.425 8.35828C115.425 8.73799 115.732 9.04585 116.112 9.04585Z" fill="#03273C"/>
<path id="Vector_55" d="M106.542 55.8631C106.922 55.8631 107.23 55.5555 107.23 55.1757C107.23 54.7958 106.922 54.488 106.542 54.488C106.163 54.488 105.855 54.7958 105.855 55.1757C105.855 55.5555 106.163 55.8631 106.542 55.8631Z" fill="#03273C"/>
<path id="Vector_56" d="M122.852 61.0739C117.509 61.0898 112.282 59.5185 107.833 56.5603C103.384 53.6017 99.9127 49.3886 97.8586 44.4547C95.8044 39.5208 95.2601 34.0879 96.2951 28.8443C97.3296 23.6007 99.8963 18.7822 103.67 14.9992C107.444 11.2161 112.255 8.63872 117.494 7.59344C122.733 6.54815 128.164 7.08199 133.1 9.12729C138.036 11.1727 142.253 14.6375 145.219 19.083C148.185 23.5284 149.765 28.7545 149.76 34.0993C149.76 41.2443 146.927 48.0973 141.882 53.1545C136.837 58.2115 129.993 61.0597 122.852 61.0739ZM122.852 9.76938C118.038 9.75368 113.329 11.1672 109.32 13.8311C105.31 16.4949 102.181 20.2893 100.328 24.7335C98.4751 29.1779 97.9822 34.0723 98.9116 38.797C99.841 43.5218 102.151 47.8644 105.548 51.275C108.946 54.6855 113.279 57.0108 117.999 57.956C122.718 58.9011 127.612 58.4239 132.06 56.585C136.508 54.7455 140.311 51.6273 142.986 47.6246C145.663 43.6218 147.091 38.9147 147.091 34.0993C147.097 27.6582 144.549 21.4777 140.003 16.9157C135.459 12.3537 129.29 9.78339 122.852 9.76938Z" fill="#3CA629"/>
<path id="Vector_57" d="M104.269 53.5286C104.13 53.5266 103.997 53.4696 103.899 53.37C101.364 50.8444 99.3569 47.8389 97.9953 44.5288C96.6338 41.2187 95.945 37.6704 95.9691 34.0911C95.9817 28.5896 97.6606 23.221 100.785 18.6934C103.908 14.1659 108.331 10.6919 113.468 8.72977C113.534 8.70454 113.604 8.69272 113.675 8.69513C113.745 8.69748 113.815 8.7139 113.879 8.74351C113.943 8.77307 114 8.81515 114.048 8.86731C114.095 8.91947 114.132 8.9806 114.155 9.0471C114.199 9.18058 114.191 9.32578 114.132 9.45336C114.073 9.58099 113.968 9.68147 113.838 9.73467C109.761 11.2804 106.137 13.8256 103.3 17.1366C100.462 20.4477 98.5003 24.4188 97.5955 28.6856C96.6901 32.9523 96.8706 37.3781 98.1201 41.557C99.369 45.7359 101.647 49.534 104.745 52.603C104.844 52.7063 104.898 52.8437 104.898 52.9865C104.898 53.1293 104.844 53.2666 104.745 53.37C104.685 53.4337 104.61 53.4816 104.527 53.5093C104.444 53.537 104.355 53.5436 104.269 53.5286Z" fill="#03273C"/>
<path id="Vector_58" d="M122.852 61.1801C117.941 61.179 113.124 59.8343 108.922 57.2926C108.861 57.2598 108.808 57.2144 108.764 57.1602C108.722 57.1055 108.691 57.0431 108.674 56.9757C108.656 56.909 108.653 56.8389 108.664 56.7705C108.675 56.7021 108.699 56.637 108.737 56.5784C108.773 56.5166 108.82 56.4624 108.876 56.4197C108.933 56.3765 108.998 56.3453 109.067 56.3277C109.137 56.3108 109.209 56.3075 109.279 56.319C109.349 56.3299 109.417 56.3551 109.477 56.3934C112.912 58.4266 116.769 59.6411 120.749 59.9421C124.729 60.2431 128.724 59.623 132.426 58.1294C136.128 56.6359 139.435 54.3095 142.093 51.3305C144.751 48.3515 146.687 44.8 147.751 40.9514C148.815 37.1029 148.979 33.0609 148.23 29.1388C147.48 25.2167 145.838 21.5201 143.43 18.3357C141.022 15.1512 137.913 12.5645 134.344 10.7764C130.776 8.98811 126.843 8.04643 122.852 8.02427C121.463 8.02268 120.075 8.1288 118.702 8.34164C118.579 8.37563 118.449 8.36184 118.336 8.30289C118.223 8.24401 118.137 8.1444 118.094 8.02427C118.083 7.9547 118.086 7.88361 118.102 7.81514C118.119 7.74668 118.149 7.6822 118.191 7.62556C118.233 7.56891 118.286 7.52119 118.346 7.48518C118.406 7.44922 118.474 7.42569 118.544 7.416C119.968 7.18132 121.409 7.06628 122.852 7.07224C130.031 7.07224 136.915 9.9253 141.992 15.0039C147.068 20.0824 149.92 26.9704 149.92 34.1525C149.92 41.3347 147.068 48.2227 141.992 53.3012C136.915 58.3796 130.031 61.2326 122.852 61.2326V61.1801Z" fill="#03273C"/>
<path id="Vector_59" d="M116.112 9.04585C116.491 9.04585 116.799 8.73799 116.799 8.35828C116.799 7.97851 116.491 7.67065 116.112 7.67065C115.732 7.67065 115.425 7.97851 115.425 8.35828C115.425 8.73799 115.732 9.04585 116.112 9.04585Z" fill="#03273C"/>
<path id="Vector_60" d="M106.542 55.8631C106.922 55.8631 107.23 55.5555 107.23 55.1757C107.23 54.7958 106.922 54.488 106.542 54.488C106.163 54.488 105.855 54.7958 105.855 55.1757C105.855 55.5555 106.163 55.8631 106.542 55.8631Z" fill="#03273C"/>
<path id="Vector_61" d="M91.106 24.8105C91.4857 24.8105 91.7937 24.5026 91.7937 24.1229C91.7937 23.7432 91.4857 23.4353 91.106 23.4353C90.7264 23.4353 90.4189 23.7432 90.4189 24.1229C90.4189 24.5026 90.7264 24.8105 91.106 24.8105Z" fill="#03273C"/>
<path id="Vector_62" d="M98.6918 18.7521C98.5785 18.7764 98.4615 18.7764 98.3482 18.7521C98.2722 18.7062 98.2065 18.6456 98.1551 18.5738C98.1031 18.502 98.0665 18.4205 98.0468 18.3342C98.0266 18.2478 98.0244 18.1584 98.0402 18.0712C98.0556 17.984 98.0884 17.9008 98.1365 17.8265C99.7793 15.3152 101.804 13.0756 104.137 11.1887C104.265 11.0659 104.436 10.9973 104.613 10.9973C104.79 10.9973 104.961 11.0659 105.089 11.1887C105.21 11.3123 105.278 11.4784 105.278 11.6515C105.278 11.8246 105.21 11.9907 105.089 12.1143C102.809 13.9416 100.845 16.1303 99.2733 18.5935C99.1939 18.6608 99.1004 18.7098 99.0003 18.7372C98.8996 18.7647 98.7946 18.7698 98.6918 18.7521Z" fill="white"/>
<path id="Vector_63" opacity="0.4" d="M132.685 48.8745C133.006 48.8745 133.267 48.614 133.267 48.2927C133.267 47.9714 133.006 47.7109 132.685 47.7109C132.364 47.7109 132.104 47.9714 132.104 48.2927C132.104 48.614 132.364 48.8745 132.685 48.8745Z" fill="#3CA629"/>
<path id="Vector_64" d="M133.029 57.3123C134.153 57.3123 135.064 56.4005 135.064 55.2758C135.064 54.1512 134.153 53.2395 133.029 53.2395C131.905 53.2395 130.994 54.1512 130.994 55.2758C130.994 56.4005 131.905 57.3123 133.029 57.3123Z" fill="#3CA629"/>
<path id="Vector_65" d="M134.403 51.6069C134.783 51.6069 135.091 51.299 135.091 50.9193C135.091 50.5395 134.783 50.2317 134.403 50.2317C134.024 50.2317 133.716 50.5395 133.716 50.9193C133.716 51.299 134.024 51.6069 134.403 51.6069Z" fill="#3CA629"/>
<path id="Vector_66" d="M128.324 56.8658C128.703 56.8658 129.011 56.5582 129.011 56.1784C129.011 55.7986 128.703 55.491 128.324 55.491C127.945 55.491 127.637 55.7986 127.637 56.1784C127.637 56.5582 127.945 56.8658 128.324 56.8658Z" fill="#3CA629"/>
<path id="Vector_67" d="M138.103 53.9594C138.57 53.9594 138.949 53.5805 138.949 53.1131C138.949 52.6457 138.57 52.2668 138.103 52.2668C137.636 52.2668 137.257 52.6457 137.257 53.1131C137.257 53.5805 137.636 53.9594 138.103 53.9594Z" fill="#3CA629"/>
<path id="Vector_68" opacity="0.4" d="M128.852 54.1958C129.173 54.1958 129.434 53.9354 129.434 53.6141C129.434 53.2927 129.173 53.0322 128.852 53.0322C128.531 53.0322 128.271 53.2927 128.271 53.6141C128.271 53.9354 128.531 54.1958 128.852 54.1958Z" fill="#3CA629"/>
<path id="Vector_69" opacity="0.4" d="M130.649 52.5022C130.985 52.5022 131.257 52.2298 131.257 51.8939C131.257 51.558 130.985 51.2856 130.649 51.2856C130.313 51.2856 130.041 51.558 130.041 51.8939C130.041 52.2298 130.313 52.5022 130.649 52.5022Z" fill="#3CA629"/>
<path id="Vector_70" opacity="0.4" d="M130.571 49.6237C130.702 49.6237 130.809 49.5171 130.809 49.3857C130.809 49.2543 130.702 49.1477 130.571 49.1477C130.44 49.1477 130.333 49.2543 130.333 49.3857C130.333 49.5171 130.44 49.6237 130.571 49.6237Z" fill="#3CA629"/>
<path id="Vector_71" d="M131.39 64.9599C132.062 64.9599 132.606 64.4148 132.606 63.7433C132.606 63.0712 132.062 62.5266 131.39 62.5266C130.719 62.5266 130.174 63.0712 130.174 63.7433C130.174 64.4148 130.719 64.9599 131.39 64.9599Z" fill="#3CA629"/>
<path id="Vector_72" d="M132.236 62.08C132.454 62.08 132.632 61.9026 132.632 61.6832C132.632 61.4642 132.454 61.2864 132.236 61.2864C132.017 61.2864 131.839 61.4642 131.839 61.6832C131.839 61.9026 132.017 62.08 132.236 62.08Z" fill="#3CA629"/>
<path id="Vector_73" d="M128.614 65.199C128.833 65.199 129.011 65.0217 129.011 64.8022C129.011 64.5833 128.833 64.406 128.614 64.406C128.395 64.406 128.218 64.5833 128.218 64.8022C128.218 65.0217 128.395 65.199 128.614 65.199Z" fill="#3CA629"/>
<path id="Vector_74" d="M134.43 63.4482C134.707 63.4482 134.932 63.2233 134.932 62.9458C134.932 62.6683 134.707 62.4434 134.43 62.4434C134.152 62.4434 133.928 62.6683 133.928 62.9458C133.928 63.2233 134.152 63.4482 134.43 63.4482Z" fill="#3CA629"/>
<path id="Vector_75" opacity="0.4" d="M128.931 63.6051C129.121 63.6051 129.275 63.4513 129.275 63.2614C129.275 63.0715 129.121 62.9177 128.931 62.9177C128.742 62.9177 128.588 63.0715 128.588 63.2614C128.588 63.4513 128.742 63.6051 128.931 63.6051Z" fill="#3CA629"/>
<path id="Vector_76" opacity="0.4" d="M129.989 62.6043C130.194 62.6043 130.359 62.4384 130.359 62.2343C130.359 62.0296 130.194 61.8638 129.989 61.8638C129.785 61.8638 129.619 62.0296 129.619 62.2343C129.619 62.4384 129.785 62.6043 129.989 62.6043Z" fill="#3CA629"/>
<path id="Vector_77" opacity="0.4" d="M129.962 60.8583C130.035 60.8583 130.094 60.7992 130.094 60.7259C130.094 60.6531 130.035 60.594 129.962 60.594C129.889 60.594 129.83 60.6531 129.83 60.7259C129.83 60.7992 129.889 60.8583 129.962 60.8583Z" fill="#3CA629"/>
<path id="Vector_78" d="M124.12 59.1096C124.529 59.1096 124.86 58.778 124.86 58.3692C124.86 57.9603 124.529 57.6287 124.12 57.6287C123.712 57.6287 123.38 57.9603 123.38 58.3692C123.38 58.778 123.712 59.1096 124.12 59.1096Z" fill="#3CA629"/>
<path id="Vector_79" d="M111.661 19.6933C112.873 17.9565 112.903 15.8846 111.73 15.0655C110.557 14.2463 108.624 14.9902 107.413 16.7268C106.201 18.4636 106.17 20.5355 107.343 21.3546C108.517 22.1738 110.45 21.4299 111.661 19.6933Z" fill="#B3EDAF"/>
<path id="Vector_80" d="M130.94 37.1158C130.585 36.301 130.073 35.5641 129.434 34.9472C128.809 34.3524 128.107 33.8453 127.346 33.4398C126.626 33.036 125.874 32.6911 125.098 32.4085C124.094 32.0118 123.143 31.6416 122.244 31.2449C121.439 30.9151 120.697 30.45 120.05 29.8697C119.776 29.6087 119.56 29.2919 119.419 28.9406C119.277 28.5893 119.213 28.2117 119.23 27.8334C119.218 27.2648 119.346 26.702 119.601 26.1938C119.883 25.7371 120.298 25.3773 120.79 25.1624C121.454 24.8991 122.164 24.7731 122.878 24.7921C123.631 24.7673 124.374 24.9602 125.019 25.3475C125.631 25.7216 126.169 26.2057 126.606 26.7755C127.062 27.3943 127.469 28.0487 127.821 28.7325L131.204 26.5375C130.767 25.575 130.188 24.6837 129.487 23.893C128.705 23.0381 127.761 22.3461 126.711 21.8567C126.022 21.5487 125.292 21.3437 124.544 21.2484V17.1758H121.187V21.222C120.274 21.3347 119.382 21.5844 118.543 21.9624C117.403 22.4855 116.42 23.2967 115.688 24.3161C115.001 25.2494 114.639 26.383 114.658 27.5425C114.621 28.6124 114.848 29.675 115.318 30.6366C115.73 31.4594 116.295 32.1955 116.984 32.8052C117.635 33.3881 118.365 33.8776 119.151 34.2597C119.828 34.6019 120.526 34.9022 121.24 35.1588C122.191 35.5291 123.116 35.8993 123.883 36.3224C124.678 36.6836 125.397 37.1955 125.997 37.8298C126.556 38.4626 126.85 39.2867 126.817 40.1306C126.842 40.7827 126.697 41.4301 126.394 42.0082C126.117 42.5367 125.67 42.9561 125.125 43.1983C124.44 43.4861 123.7 43.6214 122.957 43.595C122.04 43.6107 121.132 43.4019 120.314 42.9867C119.505 42.5327 118.795 41.9212 118.226 41.1884C117.531 40.32 116.945 39.3697 116.481 38.3587L113.177 40.5008C113.688 41.7954 114.442 42.9802 115.398 43.9917C116.332 45.0081 117.454 45.8344 118.702 46.4247C119.44 46.7692 120.223 47.0096 121.028 47.1387V51.0262H124.438V47.218C125.507 47.1365 126.554 46.868 127.531 46.4247C128.736 45.845 129.747 44.9259 130.438 43.7801C131.122 42.6005 131.469 41.2559 131.442 39.8926C131.468 38.9423 131.296 37.9971 130.94 37.1158Z" fill="white"/>
</g>
</g>
</g>
</g>
</g>
</g>
</g>
<defs>
<clipPath id="clip0_39_640">
<rect width="157" height="162" fill="white"/>
</clipPath>
</defs>
</svg>
