<svg width="206" height="109" viewBox="0 0 206 109" fill="none" xmlns="http://www.w3.org/2000/svg">
<g id="Illustration - Asset 8" clip-path="url(#clip0_39_535)">
<g id="Asset 8">
<g id="Clip path group">
<mask id="mask0_39_535" style="mask-type:luminance" maskUnits="userSpaceOnUse" x="0" y="0" width="206" height="109">
<g id="clip0_3_49732">
<path id="Vector" d="M0.101425 0.00463867H205.973V108.877H0.101425V0.00463867Z" fill="white"/>
</g>
</mask>
<g mask="url(#mask0_39_535)">
<g id="Asset 8_2">
<g id="Layer 2">
<g id="Layer 1">
<path id="Vector_2" d="M131.936 43.0071H156.231C157.944 43.0071 159.332 44.3888 159.332 46.0932V104.003C159.332 105.708 157.944 107.089 156.231 107.089H131.936C130.224 107.089 128.836 105.708 128.836 104.003V46.0932C128.836 44.3888 130.224 43.0071 131.936 43.0071Z" fill="#DEFADD"/>
<path id="Vector_2_2" d="M90.1486 23.6138H115.003C116.561 23.6138 117.823 24.8708 117.823 26.4216V105.125C117.823 106.675 116.561 107.932 115.003 107.932H90.1486C88.5906 107.932 87.3278 106.675 87.3278 105.125V26.4216C87.3278 24.8708 88.5906 23.6138 90.1486 23.6138Z" fill="#DEFADD"/>
<path id="Vector_3" d="M49.8175 0.847656H74.011C75.7512 0.847656 77.1626 2.25199 77.1626 3.98431V103.953C77.1626 105.685 75.7512 107.089 74.011 107.089H49.8175C48.0773 107.089 46.6672 105.685 46.6672 103.953V3.98431C46.6672 2.25199 48.0773 0.847656 49.8175 0.847656Z" fill="#DEFADD"/>
<path id="Vector_4" d="M46.2434 68.7327V104.248C46.2421 104.66 46.323 105.068 46.481 105.449C46.6389 105.83 46.8714 106.177 47.1642 106.468C47.457 106.76 47.8051 106.991 48.1878 107.148C48.5705 107.305 48.9802 107.386 49.395 107.384H73.5795C73.9943 107.385 74.404 107.305 74.788 107.148C75.1707 106.991 75.52 106.76 75.8129 106.469C76.107 106.177 76.3394 105.831 76.4987 105.45C76.6566 105.069 76.7388 104.66 76.7388 104.248V71.5236C76.7388 70.1819 76.2033 68.8951 75.2503 67.9463C74.2974 66.9975 73.0041 66.4645 71.6569 66.4645C70.3084 66.4645 69.0151 66.9975 68.0622 67.9463C67.1092 68.8951 66.5737 70.1819 66.5737 71.5236V78.5643C66.5737 79.906 66.0381 81.1928 65.0852 82.1416C64.1322 83.0904 62.839 83.6234 61.4918 83.6234C60.1432 83.6234 58.85 83.0904 57.897 82.1416C56.9441 81.1928 56.4085 79.906 56.4085 78.5643V68.7327C56.4085 67.391 55.873 66.1042 54.92 65.1554C53.9671 64.2066 52.6738 63.6736 51.3253 63.6736C49.9781 63.6736 48.6848 64.2066 47.7319 65.1554C46.7789 66.1042 46.2434 67.391 46.2434 68.7327Z" fill="#8BE386"/>
<path id="Vector_5" d="M87.7936 54.0701V104.763C87.7925 105.175 87.8732 105.583 88.0312 105.964C88.1892 106.345 88.4212 106.691 88.7141 106.983C89.0069 107.274 89.3547 107.505 89.7375 107.663C90.1204 107.82 90.5307 107.9 90.9447 107.899H115.13C115.544 107.9 115.955 107.82 116.338 107.663C116.721 107.506 117.07 107.275 117.363 106.983C117.657 106.692 117.89 106.346 118.049 105.965C118.208 105.584 118.289 105.175 118.289 104.763V75.4111C118.289 74.0694 117.754 72.7826 116.801 71.8338C115.847 70.885 114.555 70.352 113.207 70.352C111.859 70.352 110.566 70.885 109.613 71.8338C108.66 72.7826 108.124 74.0694 108.124 75.4111V79.079C108.124 80.4207 107.589 81.7075 106.635 82.6563C105.682 83.6051 104.389 84.1381 103.041 84.1381C101.693 84.1381 100.401 83.6051 99.4475 82.6563C98.4943 81.7075 97.9588 80.4207 97.9588 79.079V54.0701C97.9588 52.7284 97.4233 51.4416 96.4701 50.4928C95.5169 49.544 94.2242 49.011 92.8762 49.011C91.5282 49.011 90.2354 49.544 89.2822 50.4928C88.329 51.4416 87.7936 52.7284 87.7936 54.0701Z" fill="#8BE386"/>
<path id="Vector_6" d="M128.412 69.576V103.405C128.411 103.817 128.492 104.225 128.65 104.606C128.808 104.987 129.04 105.333 129.333 105.625C129.626 105.916 129.973 106.147 130.356 106.305C130.739 106.462 131.149 106.542 131.564 106.541H155.748C156.163 106.542 156.574 106.462 156.957 106.305C157.34 106.148 157.689 105.917 157.982 105.625C158.276 105.334 158.508 104.988 158.667 104.607C158.826 104.226 158.908 103.817 158.908 103.405V74.0533C158.908 72.7115 158.373 71.4246 157.419 70.4759C156.466 69.5271 155.173 68.9942 153.825 68.9942C152.477 68.9942 151.185 69.5271 150.231 70.4759C149.278 71.4246 148.743 72.7115 148.743 74.0533V77.7211C148.743 79.0628 148.207 80.3497 147.254 81.2984C146.301 82.2472 145.008 82.7802 143.66 82.7802C142.312 82.7802 141.019 82.2472 140.066 81.2984C139.113 80.3497 138.578 79.0628 138.578 77.7211V69.576C138.578 68.2341 138.042 66.9473 137.089 65.9985C136.136 65.0498 134.843 64.5168 133.495 64.5168C132.147 64.5168 130.854 65.0498 129.901 65.9985C128.948 66.9473 128.412 68.2341 128.412 69.576Z" fill="#8BE386"/>
<path id="Vector_7" d="M39.9914 15.6118C39.1823 15.6118 38.5261 14.9587 38.5261 14.153C38.5261 13.3475 39.1823 12.6943 39.9914 12.6943C40.8005 12.6943 41.4568 13.3475 41.4568 14.153C41.4568 14.9587 40.8005 15.6118 39.9914 15.6118Z" fill="#64D65E"/>
<path id="Vector_8" d="M35.7045 24.6171C36.5097 24.6118 37.2893 24.3289 37.9083 23.8163C38.5274 23.3039 38.9486 22.5938 39.1002 21.8068C39.253 21.0198 39.1258 20.2045 38.7418 19.4999C38.3591 18.7954 37.7414 18.245 36.9952 17.9426C36.2503 17.6401 35.422 17.6042 34.6527 17.841C33.8834 18.0779 33.2207 18.5728 32.7763 19.2415C32.3332 19.9102 32.1355 20.7114 32.2189 21.5085C32.3011 22.3058 32.6594 23.0497 33.2309 23.6138C33.8898 24.2615 34.7798 24.6224 35.7045 24.6171ZM35.7045 18.5547C36.3787 18.5927 37.0132 18.886 37.4768 19.3744C37.9404 19.8628 38.1986 20.5093 38.1986 21.1811C38.1986 21.8532 37.9404 22.4996 37.4768 22.988C37.0132 23.4764 36.3787 23.7697 35.7045 23.8077C35.359 23.8111 35.0148 23.7463 34.6925 23.617C34.3714 23.4878 34.0786 23.2966 33.832 23.0546C33.5841 22.8126 33.3876 22.5243 33.2528 22.2065C33.1179 21.8886 33.0473 21.5474 33.0447 21.2022C33.0409 20.5075 33.3132 19.839 33.8012 19.343C34.2905 18.8469 34.9557 18.5636 35.6544 18.5547H35.7045Z" fill="#64D65E"/>
<path id="Vector_9" d="M144.507 96.9709C139.127 96.9709 134.766 92.6296 134.766 87.2743C134.766 81.919 139.127 77.5776 144.507 77.5776C149.887 77.5776 154.249 81.919 154.249 87.2743C154.249 92.6296 149.887 96.9709 144.507 96.9709Z" fill="#3CA629"/>
<path id="Vector_10" d="M143.66 91.9121C138.28 91.9121 133.919 87.5708 133.919 82.2155C133.919 76.8601 138.28 72.5188 143.66 72.5188C149.04 72.5188 153.402 76.8601 153.402 82.2155C153.402 87.5708 149.04 91.9121 143.66 91.9121Z" fill="white"/>
<path id="Vector_11" d="M144.507 93.5985C146.602 93.5985 148.649 92.9803 150.39 91.8222C152.131 90.6641 153.489 89.018 154.29 87.092C155.091 85.1662 155.301 83.047 154.893 81.0024C154.484 78.9579 153.476 77.0798 151.995 75.6058C150.514 74.1319 148.627 73.128 146.573 72.7214C144.519 72.3146 142.39 72.5233 140.455 73.3211C138.52 74.1188 136.867 75.4698 135.703 77.203C134.54 78.9363 133.918 80.9741 133.918 83.0586C133.923 85.8526 135.04 88.5308 137.025 90.5065C139.01 92.4821 141.7 93.594 144.507 93.5985ZM144.507 74.2052C146.266 74.2052 147.986 74.7244 149.449 75.6972C150.912 76.67 152.052 78.0528 152.725 79.6705C153.398 81.2883 153.574 83.0685 153.231 84.7859C152.888 86.5033 152.041 88.0808 150.797 89.319C149.553 90.5571 147.968 91.4004 146.242 91.7419C144.517 92.0836 142.729 91.9083 141.103 91.2382C139.478 90.5681 138.089 89.4333 137.112 87.9773C136.134 86.5214 135.613 84.8096 135.613 83.0586C135.615 80.7112 136.553 78.4607 138.22 76.8008C139.888 75.1408 142.149 74.2074 144.507 74.2052Z" fill="#03273C"/>
<path id="Vector_12" d="M61.4904 40.4773C56.1106 40.4773 51.7491 36.136 51.7491 30.7806C51.7491 25.4253 56.1106 21.084 61.4904 21.084C66.8716 21.084 71.2331 25.4253 71.2331 30.7806C71.2331 36.136 66.8716 40.4773 61.4904 40.4773Z" fill="#8BE386"/>
<path id="Vector_13" d="M60.6441 36.2615C55.2642 36.2615 50.9028 31.9201 50.9028 26.5648C50.9028 21.2095 55.2642 16.8682 60.6441 16.8682C66.024 16.8682 70.3854 21.2095 70.3854 26.5648C70.3854 31.9201 66.024 36.2615 60.6441 36.2615Z" fill="#45CA3D"/>
<path id="Vector_14" d="M51.7491 26.9025C51.7452 29.0683 52.4696 31.173 53.8078 32.8807C55.1461 34.5886 57.0198 35.8008 59.1312 36.324C61.2426 36.8471 63.4695 36.6511 65.455 35.7672C67.4418 34.8832 69.0729 33.3623 70.0887 31.4472C68.685 32.1971 67.1169 32.5882 65.5231 32.5855C63.8394 32.5941 62.1814 32.1673 60.7121 31.3471C59.2429 30.5268 58.0126 29.3411 57.1418 27.9058C56.2711 26.4707 55.7895 24.8352 55.7445 23.1591C55.6983 21.4831 56.0913 19.8241 56.8824 18.3442C55.3271 19.1716 54.0261 20.4058 53.122 21.9136C52.2179 23.4216 51.7427 25.1463 51.7491 26.9025Z" fill="#1C610F"/>
<path id="Vector_15" d="M61.4994 37.1046C63.4439 37.1053 65.351 36.5737 67.0116 35.5681C68.6722 34.5623 70.0233 33.1211 70.9171 31.4023C71.8097 29.6834 72.2104 27.7532 72.0756 25.8226C71.9407 23.8922 71.2742 22.036 70.1504 20.4571C69.0254 18.8782 67.4868 17.6376 65.7017 16.8711C63.9165 16.1044 61.9541 15.8414 60.0289 16.1108C58.1038 16.38 56.2904 17.1714 54.7865 18.398C53.2826 19.6247 52.1473 21.2394 51.5038 23.0655C50.9477 24.6554 50.7808 26.3547 51.0184 28.0217C51.256 29.6886 51.8891 31.2749 52.8677 32.6485C53.8451 34.022 55.1397 35.1431 56.641 35.9182C58.1423 36.6934 59.808 37.1001 61.4994 37.1046ZM61.4994 17.7112C63.3899 17.7101 65.2316 18.3079 66.7573 19.4181C68.2844 20.5283 69.4158 22.0932 69.9886 23.8863C70.5627 25.6794 70.5473 27.6075 69.9462 29.3915C69.3452 31.1755 68.188 32.7227 66.6456 33.809C65.1019 34.8953 63.2512 35.4645 61.3607 35.4339C59.4703 35.4034 57.6389 34.7748 56.1311 33.6391C54.6247 32.5034 53.5189 30.9197 52.9769 29.1173C52.4337 27.3149 52.4812 25.3873 53.113 23.6136C53.7295 21.8894 54.8661 20.397 56.3674 19.3404C57.8688 18.2838 59.6603 17.7148 61.4994 17.7112Z" fill="#03273C"/>
<path id="Vector_16" d="M93.3083 41.3204C93.4989 41.3173 93.683 41.2505 93.8307 41.1305C93.9784 41.0105 94.081 40.8445 94.1222 40.6592C94.1633 40.474 94.1404 40.2804 94.0573 40.1095C93.9742 39.9388 93.8357 39.8009 93.6641 39.7182L71.6389 29.2881C71.4398 29.2102 71.2189 29.2103 71.0186 29.2885C70.8195 29.3666 70.6577 29.517 70.5652 29.7094C70.4728 29.9017 70.4574 30.1218 70.5216 30.3252C70.5858 30.5286 70.7245 30.7004 70.9107 30.8058L92.9355 41.2361C93.0511 41.2938 93.179 41.3228 93.3083 41.3204Z" fill="#03273C"/>
<path id="Vector_17" d="M159.755 15.5359L152.038 31.1096L139.848 32.0455L148.319 37.9477L143.237 60.7138L158.061 53.2179L158.069 48.1503L173.732 53.9683L172.25 45.7304L171.191 34.575L167.481 31.1096L159.755 15.5359Z" fill="#8BE386"/>
<path id="Vector_18" opacity="0.3" d="M204.236 63.3359C203.677 62.7904 203.015 62.3606 202.288 62.0711C201.561 61.7816 200.784 61.6383 200.001 61.6496H180.687C179.114 61.6496 177.606 61.0277 176.494 59.9208C175.382 58.8139 174.757 57.3126 174.757 55.7472C174.757 54.1819 175.382 52.6805 176.494 51.5737C177.606 50.4668 179.114 49.8449 180.687 49.8449H191.886C193.458 49.8449 194.967 49.2231 196.079 48.1162C197.191 47.0093 197.815 45.508 197.815 43.9426C197.815 42.3773 197.191 40.8759 196.079 39.7691C194.967 38.6622 193.458 38.0403 191.886 38.0403H164.465C163.225 38.0403 162.035 38.5307 161.158 39.4036C160.282 40.2764 159.789 41.4603 159.789 42.6947V104.222C159.789 105.456 160.282 106.64 161.158 107.513C162.035 108.386 163.225 108.876 164.465 108.876H172.538C170.965 108.876 169.457 108.255 168.345 107.148C167.233 106.041 166.608 104.539 166.608 102.974C166.608 101.409 167.233 99.9074 168.345 98.8006C169.457 97.6936 170.965 97.0718 172.538 97.0718H200.043C201.616 97.0718 203.124 96.45 204.236 95.3431C205.348 94.2361 205.973 92.7349 205.973 91.1695C205.973 89.6041 205.348 88.1028 204.236 86.996C203.124 85.889 201.616 85.2672 200.043 85.2672H185.016C183.443 85.2672 181.935 84.6454 180.823 83.5384C179.711 82.4315 179.086 80.9303 179.086 79.3648C179.086 77.7995 179.711 76.2983 180.823 75.1913C181.935 74.0844 183.443 73.4626 185.016 73.4626H200.043C201.616 73.4626 203.124 72.8407 204.236 71.7338C205.348 70.6269 205.973 69.1256 205.973 67.5602C205.982 66.7777 205.832 66.0013 205.534 65.2771C205.236 64.553 204.794 63.8958 204.236 63.3444" fill="#8BE386"/>
<path id="Vector_19" opacity="0.3" d="M46.3191 17.3067V78.9014C46.3204 79.514 46.1997 80.1208 45.9647 80.6871C45.7297 81.2534 45.3855 81.7679 44.9501 82.201C44.5147 82.6342 43.9971 82.9776 43.4295 83.2116C42.8606 83.4455 42.2505 83.5654 41.6353 83.5642H33.5366C35.1099 83.5642 36.6176 82.9425 37.7298 81.8355C38.842 80.7286 39.4662 79.2274 39.4662 77.6619C39.4662 76.0965 38.842 74.5953 37.7298 73.4883C36.6176 72.3815 35.1099 71.7597 33.5366 71.7597H6.05667C4.48341 71.7597 2.97565 71.1377 1.86346 70.0309C0.751266 68.924 0.127102 67.4227 0.127102 65.8573C0.127102 64.292 0.751266 62.7906 1.86346 61.6837C2.97565 60.5769 4.48341 59.9551 6.05667 59.9551H21.0585C22.6317 59.9551 24.1395 59.3332 25.2517 58.2263C26.3638 57.1194 26.988 55.6181 26.988 54.0527C26.988 52.4874 26.3638 50.986 25.2517 49.8792C24.1395 48.7723 22.6317 48.1504 21.0585 48.1504H6.05667C4.48341 48.1504 2.97565 47.5286 1.86346 46.4217C0.751266 45.3147 0.127102 43.8135 0.127102 42.2481C0.127102 40.6826 0.751266 39.1814 1.86346 38.0746C2.97565 36.9677 4.48341 36.3458 6.05667 36.3458H25.3955C26.9688 36.3458 28.4765 35.724 29.5887 34.6171C30.7009 33.5101 31.3251 32.0089 31.3251 30.4435C31.3251 28.8781 30.7009 27.3769 29.5887 26.27C28.4765 25.163 26.9688 24.5412 25.3955 24.5412H14.1888C12.6155 24.5412 11.1078 23.9194 9.99559 22.8124C8.8834 21.7055 8.25923 20.2043 8.25923 18.6388C8.25923 17.0735 8.8834 15.5723 9.99559 14.4653C11.1078 13.3584 12.6155 12.7366 14.1888 12.7366H41.6353C42.8618 12.7342 44.0408 13.212 44.9167 14.067C45.7939 14.9218 46.2973 16.0854 46.3191 17.3067Z" fill="#8BE386"/>
<path id="Vector_20" d="M53.7988 60.9584C52.3116 60.9584 51.1057 59.7579 51.1057 58.277C51.1057 56.7962 52.3116 55.5957 53.7988 55.5957C55.2873 55.5957 56.4933 56.7962 56.4933 58.277C56.4933 59.7579 55.2873 60.9584 53.7988 60.9584Z" fill="#8BE386"/>
<path id="Vector_21" opacity="0.5" d="M58.5006 62.9658C57.757 62.9658 57.1534 62.3655 57.1534 61.6251C57.1534 60.8848 57.757 60.2844 58.5006 60.2844C59.2442 60.2844 59.8478 60.8848 59.8478 61.6251C59.8478 62.3655 59.2442 62.9658 58.5006 62.9658Z" fill="#8BE386"/>
<path id="Vector_22" d="M106.726 67.451C105.239 67.451 104.033 66.2506 104.033 64.7697C104.033 63.2888 105.239 62.0884 106.726 62.0884C108.214 62.0884 109.42 63.2888 109.42 64.7697C109.42 66.2506 108.214 67.451 106.726 67.451Z" fill="#8BE386"/>
<path id="Vector_23" opacity="0.5" d="M111.436 69.4577C110.692 69.4577 110.089 68.8575 110.089 68.1171C110.089 67.3766 110.692 66.7764 111.436 66.7764C112.18 66.7764 112.783 67.3766 112.783 68.1171C112.783 68.8575 112.18 69.4577 111.436 69.4577Z" fill="#8BE386"/>
<path id="Vector_24" d="M145.21 66.4477C143.723 66.4477 142.517 65.2472 142.517 63.7663C142.517 62.2855 143.723 61.085 145.21 61.085C146.698 61.085 147.904 62.2855 147.904 63.7663C147.904 65.2472 146.698 66.4477 145.21 66.4477Z" fill="#8BE386"/>
<path id="Vector_25" opacity="0.5" d="M149.92 68.4545C149.176 68.4545 148.573 67.8543 148.573 67.1138C148.573 66.3734 149.176 65.7732 149.92 65.7732C150.664 65.7732 151.267 66.3734 151.267 67.1138C151.267 67.8543 150.664 68.4545 149.92 68.4545Z" fill="#8BE386"/>
<path id="Vector_26" d="M106.726 24.71H90.3434C90.3434 25.2019 90.5398 25.6737 90.8892 26.0217C91.2387 26.3695 91.7127 26.565 92.207 26.565H104.854C105.349 26.565 105.823 26.3695 106.172 26.0217C106.522 25.6737 106.718 25.2019 106.718 24.71H106.726Z" fill="white"/>
<path id="Vector_27" d="M131.868 107.932H156.172C157.235 107.932 158.254 107.512 159.005 106.764C159.757 106.016 160.179 105.002 160.179 103.944V46.6074C160.179 45.5497 159.757 44.5353 159.005 43.7873C158.254 43.0394 157.235 42.6191 156.172 42.6191H131.868C130.806 42.6191 129.787 43.0394 129.035 43.7873C128.284 44.5353 127.862 45.5497 127.862 46.6074V103.944C127.862 105.002 128.284 106.016 129.035 106.764C129.787 107.512 130.806 107.932 131.868 107.932ZM156.172 44.2802C156.785 44.2802 157.373 44.5227 157.807 44.9544C158.241 45.3862 158.484 45.9717 158.484 46.5821V103.919C158.488 104.223 158.431 104.525 158.316 104.808C158.201 105.09 158.031 105.346 157.816 105.563C157.601 105.779 157.345 105.951 157.063 106.068C156.78 106.186 156.478 106.246 156.172 106.246H131.868C131.256 106.244 130.669 106.001 130.236 105.569C129.802 105.138 129.558 104.554 129.556 103.944V46.6074C129.556 45.997 129.799 45.4115 130.233 44.9797C130.667 44.548 131.255 44.3055 131.868 44.3055L156.172 44.2802Z" fill="#03273C"/>
<path id="Vector_28" d="M90.8855 107.933H115.189C116.252 107.933 117.271 107.512 118.022 106.765C118.773 106.017 119.196 105.002 119.196 103.944V27.3071C119.196 26.2495 118.773 25.235 118.022 24.4871C117.271 23.7391 116.252 23.3188 115.189 23.3188H90.8855C89.8228 23.3188 88.8037 23.7391 88.0522 24.4871C87.3008 25.235 86.8787 26.2495 86.8787 27.3071V103.944C86.8787 105.002 87.3008 106.017 88.0522 106.765C88.8037 107.512 89.8228 107.933 90.8855 107.933ZM115.189 25.0052C115.802 25.0052 116.39 25.2478 116.824 25.6794C117.258 26.1112 117.502 26.6967 117.502 27.3071V103.944C117.502 104.555 117.258 105.14 116.824 105.572C116.39 106.004 115.802 106.246 115.189 106.246H90.8855C90.2728 106.244 89.6859 106.001 89.2527 105.57C88.8195 105.138 88.5751 104.554 88.5729 103.944V27.3071C88.5729 26.6967 88.8165 26.1112 89.2502 25.6794C89.6839 25.2478 90.2721 25.0052 90.8855 25.0052H115.189Z" fill="#03273C"/>
<path id="Vector_29" d="M76.9173 24.457C77.1421 24.457 77.3565 24.3682 77.5158 24.21C77.6747 24.0519 77.7639 23.8375 77.7639 23.6139V20.3844C77.7639 20.1608 77.6747 19.9463 77.5158 19.7881C77.3565 19.6301 77.1421 19.5413 76.9173 19.5413C76.6926 19.5413 76.4768 19.6301 76.3176 19.7881C76.1596 19.9463 76.0697 20.1608 76.0697 20.3844V23.6139C76.0697 23.8375 76.1596 24.0519 76.3176 24.21C76.4768 24.3682 76.6926 24.457 76.9173 24.457Z" fill="#03273C"/>
<path id="Vector_30" d="M76.9173 28.2432C77.1421 28.2432 77.3565 28.1544 77.5158 27.9963C77.6747 27.8381 77.7639 27.6237 77.7639 27.4001V26.7002C77.7639 26.4766 77.6747 26.2621 77.5158 26.1039C77.3565 25.9459 77.1421 25.8569 76.9173 25.8569C76.6926 25.8569 76.4768 25.9459 76.3176 26.1039C76.1596 26.2621 76.0697 26.4766 76.0697 26.7002V27.4001C76.0697 27.6237 76.1596 27.8381 76.3176 27.9963C76.4768 28.1544 76.6926 28.2432 76.9173 28.2432Z" fill="#03273C"/>
<path id="Vector_31" d="M49.4541 107.932H73.7567C74.8201 107.932 75.8385 107.512 76.5898 106.764C77.3411 106.016 77.7639 105.002 77.7639 103.944V30.2412C77.7639 30.0176 77.6747 29.8032 77.5158 29.645C77.3565 29.4869 77.1421 29.3979 76.9173 29.3979C76.6926 29.3979 76.4768 29.4869 76.3176 29.645C76.1596 29.8032 76.0697 30.0176 76.0697 30.2412V103.944C76.0671 104.554 75.8231 105.138 75.3903 105.569C74.9562 106.001 74.3693 106.244 73.7567 106.246H49.4541C48.8402 106.246 48.252 106.003 47.8179 105.572C47.3851 105.14 47.1411 104.555 47.1411 103.944V102.148C47.1411 101.924 47.0525 101.71 46.8932 101.552C46.7339 101.394 46.5182 101.305 46.2934 101.305C46.07 101.305 45.8542 101.394 45.695 101.552C45.5357 101.71 45.4471 101.924 45.4471 102.148V103.944C45.4471 105.002 45.8696 106.016 46.6209 106.764C47.3722 107.512 48.3907 107.932 49.4541 107.932Z" fill="#03273C"/>
<path id="Vector_32" d="M46.2934 82.9827C46.5182 82.9827 46.7339 82.8937 46.8932 82.7356C47.0525 82.5776 47.1411 82.363 47.1411 82.1394V3.99291C47.1411 3.38241 47.3851 2.79692 47.8179 2.36522C48.252 1.93353 48.8402 1.69101 49.4541 1.69101H73.7567C74.3693 1.69323 74.9562 1.93647 75.3903 2.36768C75.8231 2.79889 76.0671 3.38309 76.0697 3.99291V17.2985C76.0697 17.5221 76.1596 17.7365 76.3176 17.8946C76.4768 18.0528 76.6926 18.1416 76.9173 18.1416C77.1421 18.1416 77.3565 18.0528 77.5158 17.8946C77.6747 17.7365 77.7639 17.5221 77.7639 17.2985V3.99291C77.7639 2.93515 77.3411 1.92073 76.5898 1.17278C75.8385 0.424831 74.8201 0.00463867 73.7567 0.00463867H49.4541C48.3907 0.00463867 47.3722 0.424831 46.6209 1.17278C45.8696 1.92073 45.4471 2.93515 45.4471 3.99291V82.1394C45.4471 82.363 45.5357 82.5776 45.695 82.7356C45.8542 82.8937 46.07 82.9827 46.2934 82.9827Z" fill="#03273C"/>
<path id="Vector_33" d="M64.1168 20.1401C64.2298 20.1547 64.3429 20.1242 64.4328 20.0554C64.5227 19.9867 64.5818 19.8852 64.5959 19.7734C64.61 19.6616 64.5792 19.5485 64.5111 19.4592C64.4418 19.3699 64.339 19.3115 64.2273 19.297L63.982 19.238C63.928 19.2242 63.8715 19.2215 63.8163 19.2298C63.7611 19.2381 63.7084 19.2574 63.6609 19.2865C63.6134 19.3157 63.5723 19.354 63.5402 19.3992C63.5081 19.4445 63.485 19.4957 63.4734 19.5499C63.4477 19.6584 63.467 19.7724 63.5248 19.8672C63.5839 19.962 63.6776 20.0299 63.7868 20.0558L64.0077 20.1148L64.1168 20.1401Z" fill="white"/>
<path id="Vector_34" d="M68.6157 26.0259C68.6709 26.0237 68.7261 26.0105 68.7762 25.9874C68.8263 25.9641 68.8725 25.9312 68.9098 25.8905C68.947 25.8498 68.9766 25.8021 68.9958 25.75C69.0151 25.698 69.0241 25.6428 69.0215 25.5873C69.0215 25.4187 68.8096 21.4726 65.4383 19.7778C65.3382 19.7277 65.2226 19.7192 65.116 19.7539C65.0107 19.7887 64.9221 19.864 64.8707 19.9633C64.845 20.0123 64.8296 20.0661 64.8244 20.1215C64.8193 20.1768 64.8257 20.2324 64.8437 20.2851C64.8617 20.3379 64.8887 20.3866 64.9259 20.4284C64.9619 20.47 65.0068 20.504 65.0569 20.5282C67.9967 22.0123 68.1752 25.5873 68.1752 25.5873C68.1726 25.6456 68.1816 25.7036 68.2034 25.7579C68.2253 25.8122 68.2574 25.8615 68.2985 25.9027C68.3396 25.9438 68.3896 25.9761 68.4436 25.9972C68.4988 26.0184 68.5566 26.0282 68.6157 26.0259Z" fill="white"/>
<path id="Vector_35" d="M103.041 57.1643C97.6613 57.1643 93.2997 52.823 93.2997 47.4677C93.2997 42.1123 97.6613 37.771 103.041 37.771C108.422 37.771 112.783 42.1123 112.783 47.4677C112.783 52.823 108.422 57.1643 103.041 57.1643Z" fill="#8BE386"/>
<path id="Vector_36" d="M103.041 53.1335C97.6613 53.1335 93.2997 48.7922 93.2997 43.4369C93.2997 38.0816 97.6613 33.7402 103.041 33.7402C108.422 33.7402 112.783 38.0816 112.783 43.4369C112.783 48.7922 108.422 53.1335 103.041 53.1335Z" fill="white"/>
<path id="Vector_37" d="M136.053 79.2641C136.24 79.2636 136.422 79.2013 136.57 79.087C136.659 79.0193 136.733 78.9347 136.789 78.8381C136.845 78.7415 136.881 78.6348 136.895 78.5243C136.909 78.4137 136.901 78.3014 136.872 78.1939C136.842 78.0865 136.791 77.986 136.722 77.8981L112.563 46.9195C112.421 46.758 112.222 46.6565 112.008 46.6358C111.793 46.615 111.578 46.6765 111.408 46.8076C111.237 46.9388 111.123 47.1298 111.089 47.3417C111.055 47.5537 111.103 47.7705 111.224 47.9482L135.384 78.9691C135.466 79.0649 135.569 79.1412 135.685 79.1922C135.8 79.2433 135.926 79.2678 136.053 79.2641Z" fill="#03273C"/>
<path id="Vector_38" d="M98.3146 35.1567C97.3775 36.9791 97.0448 39.0503 97.3646 41.0728C97.6845 43.0951 98.6403 44.9644 100.095 46.4121C101.549 47.8598 103.427 48.8111 105.459 49.1296C107.491 49.4479 109.572 49.1168 111.402 48.184C110.708 49.5523 109.697 50.7372 108.454 51.6416C107.21 52.5459 105.769 53.1438 104.248 53.3863C102.727 53.6287 101.17 53.5087 99.7048 53.0363C98.2397 52.5638 96.9079 51.7522 95.8188 50.6682C94.7298 49.5842 93.9144 48.2586 93.4397 46.8001C92.965 45.3417 92.8446 43.792 93.0881 42.2782C93.3317 40.7644 93.9323 39.3298 94.8409 38.0918C95.7495 36.8538 96.9399 35.8481 98.3146 35.1567Z" fill="#8BE386"/>
<path id="Vector_39" d="M160.602 7.94727L152.885 23.5209L135.613 26.0167L148.107 38.1418L145.16 55.2585L160.602 47.1807L176.045 55.2585L173.097 38.1418L185.592 26.0167L168.328 23.5209L160.602 7.94727Z" fill="#45CA3D"/>
<path id="Vector_40" d="M148.107 38.4878L145.159 55.6551L160.602 47.5267L176.045 55.6551L174.478 46.5402C168.557 45.6947 162.856 43.7192 157.688 40.7222C151.249 36.9753 145.808 31.7444 141.822 25.469L135.613 26.3713L148.107 38.4878Z" fill="#1C610F"/>
<path id="Vector_41" d="M156.527 17.7115C156.685 17.7125 156.84 17.6697 156.975 17.5878C157.11 17.5059 157.219 17.3881 157.29 17.2478L158.281 15.2325C158.373 15.0334 158.383 14.8065 158.31 14.5998C158.237 14.3932 158.085 14.2231 157.888 14.1255C157.691 14.028 157.464 14.0106 157.254 14.0772C157.044 14.1438 156.869 14.2889 156.765 14.482L155.765 16.4973C155.716 16.597 155.687 16.7052 155.68 16.816C155.673 16.9268 155.688 17.0378 155.724 17.1427C155.76 17.2478 155.817 17.3445 155.891 17.4277C155.965 17.5108 156.055 17.5786 156.155 17.6272C156.271 17.6831 156.398 17.712 156.527 17.7115Z" fill="#03273C"/>
<path id="Vector_42" d="M144.033 57.5017L160.602 48.8337L177.172 57.5017L174.012 39.137L187.413 26.1435L168.887 23.4622L160.602 6.75024L158.247 11.5058C158.155 11.7049 158.145 11.9318 158.218 12.1385C158.292 12.3451 158.443 12.5152 158.64 12.6128C158.837 12.7103 159.065 12.7277 159.274 12.6611C159.484 12.5946 159.659 12.4494 159.764 12.2562L160.611 10.5699L167.76 24.9968L183.77 27.3071L172.191 38.5468L174.927 54.424L160.602 46.928L146.286 54.424L149.022 38.5468L137.434 27.3071L153.453 24.9968L154.232 23.4201C154.332 23.2198 154.348 22.9884 154.276 22.7766C154.205 22.5647 154.052 22.3897 153.851 22.2902C153.751 22.2413 153.642 22.2125 153.531 22.2055C153.419 22.1985 153.308 22.2134 153.202 22.2494C153.097 22.2855 153 22.342 152.916 22.4154C152.833 22.489 152.764 22.5782 152.716 22.678L152.326 23.4538L133.791 26.1435L147.201 39.137L144.033 57.5017Z" fill="#03273C"/>
<path id="Vector_43" d="M154.766 21.2697C154.922 21.2692 155.075 21.2256 155.208 21.1437C155.341 21.0619 155.449 20.945 155.519 20.806L155.833 20.1736C155.884 20.0732 155.915 19.964 155.924 19.8519C155.932 19.7399 155.919 19.6271 155.884 19.5203C155.849 19.4135 155.793 19.3145 155.72 19.2291C155.646 19.1436 155.557 19.0735 155.456 19.0226C155.355 18.9716 155.245 18.9409 155.133 18.9323C155.02 18.9236 154.907 18.937 154.8 18.9717C154.692 19.0066 154.593 19.0622 154.507 19.1353C154.421 19.2084 154.351 19.2976 154.3 19.3978L153.986 20.0302C153.886 20.2303 153.87 20.4618 153.942 20.6736C154.013 20.8854 154.166 21.0605 154.367 21.16C154.489 21.2287 154.626 21.2664 154.766 21.2697Z" fill="#03273C"/>
<g id="Group" opacity="0.15">
<path id="Vector_44" opacity="0.15" d="M161.966 36.4809C158.991 36.4809 156.578 34.08 156.578 31.1182C156.578 28.1566 158.991 25.7556 161.966 25.7556C164.941 25.7556 167.354 28.1566 167.354 31.1182C167.354 34.08 164.941 36.4809 161.966 36.4809Z" fill="white"/>
<path id="Vector_45" opacity="0.15" d="M168.167 41.7168C166.679 41.7168 165.473 40.5164 165.473 39.0355C165.473 37.5547 166.679 36.3542 168.167 36.3542C169.655 36.3542 170.861 37.5547 170.861 39.0355C170.861 40.5164 169.655 41.7168 168.167 41.7168Z" fill="white"/>
</g>
<path id="Vector_46" d="M160.339 19.9457C160.002 19.9457 159.679 19.8126 159.441 19.5753C159.203 19.3381 159.069 19.0165 159.069 18.6811C159.069 18.3456 159.203 18.0239 159.441 17.7867C159.679 17.5495 160.002 17.4163 160.339 17.4163C160.676 17.4163 161 17.5495 161.238 17.7867C161.476 18.0239 161.61 18.3456 161.61 18.6811C161.61 19.0165 161.476 19.3381 161.238 19.5753C161 19.8126 160.676 19.9457 160.339 19.9457Z" fill="#FDFEFF"/>
<path id="Vector_47" d="M164.516 28.6728C164.035 26.6842 163.225 24.7892 162.118 23.0656C161.466 22.0284 163.118 21.0756 163.762 22.1127C164.955 23.9748 165.831 26.0205 166.354 28.1669C166.625 29.3558 164.795 29.8533 164.516 28.6728Z" fill="#FDFEFF"/>
<path id="Vector_48" d="M103.041 53.9689C105.137 53.9705 107.185 53.3536 108.927 52.196C110.67 51.0385 112.029 49.3925 112.831 47.4663C113.634 45.5401 113.844 43.4202 113.436 41.3748C113.027 39.3295 112.019 37.4507 110.537 35.9762C109.056 34.5017 107.169 33.4977 105.114 33.0912C103.059 32.6849 100.929 32.8943 98.9939 33.6931C97.0587 34.4919 95.4051 35.8441 94.2421 37.5786C93.0794 39.3132 92.4594 41.3521 92.4611 43.4374C92.4679 46.2285 93.5847 48.9033 95.5675 50.8769C97.5502 52.8505 100.237 53.9621 103.041 53.9689ZM103.041 34.5756C104.801 34.5739 106.521 35.0914 107.984 36.063C109.448 37.0344 110.589 38.416 111.264 40.0331C111.939 41.6502 112.117 43.4303 111.775 45.1479C111.434 46.8657 110.588 48.444 109.345 49.6834C108.103 50.9228 106.519 51.7674 104.793 52.1106C103.068 52.454 101.28 52.2803 99.654 51.6118C98.0281 50.9432 96.6379 49.8098 95.6591 48.3547C94.6804 46.8997 94.157 45.1884 94.1553 43.4374C94.1553 41.09 95.0911 38.8386 96.757 37.1771C98.423 35.5157 100.683 34.58 103.041 34.5756Z" fill="#03273C"/>
<path id="Vector_49" d="M46.2434 98.042C46.4681 98.042 46.6839 97.9531 46.8418 97.7951C47.0011 97.6369 47.091 97.4225 47.091 97.1988V91.9711C47.091 91.7474 47.0011 91.533 46.8418 91.3748C46.6839 91.2167 46.4681 91.1279 46.2434 91.1279C46.0186 91.1279 45.8028 91.2167 45.6449 91.3748C45.4856 91.533 45.3957 91.7474 45.3957 91.9711V97.1988C45.3957 97.4225 45.4856 97.6369 45.6449 97.7951C45.8028 97.9531 46.0186 98.042 46.2434 98.042Z" fill="#03273C"/>
<path id="Vector_50" d="M46.2434 88.7835C46.4681 88.7835 46.6839 88.6947 46.8418 88.5366C47.0011 88.3784 47.091 88.164 47.091 87.9404V86.937C47.091 86.7134 47.0011 86.4988 46.8418 86.3408C46.6839 86.1826 46.4681 86.0938 46.2434 86.0938C46.0186 86.0938 45.8028 86.1826 45.6449 86.3408C45.4856 86.4988 45.3957 86.7134 45.3957 86.937V87.9404C45.3957 88.164 45.4856 88.3784 45.6449 88.5366C45.8028 88.6947 46.0186 88.7835 46.2434 88.7835Z" fill="#03273C"/>
</g>
</g>
</g>
</g>
</g>
</g>
</g>
<defs>
<clipPath id="clip0_39_535">
<rect width="206" height="109" fill="white" transform="matrix(-1 0 0 1 206 0)"/>
</clipPath>
</defs>
</svg>
